<svg width="862" height="754" viewBox="0 0 862 754" fill="none" xmlns="http://www.w3.org/2000/svg">
<path d="M426.708 494.579C424.025 489.709 439.007 419.497 446.834 385C516.155 392.102 663.519 407.22 698.404 410.873C733.288 414.526 776.67 427.614 794 433.702L772.197 645.251L767.166 739.611C767.166 741.64 764.818 746.916 755.426 751.786C746.034 756.657 697.845 745.699 674.924 739.611C650.326 739.104 594.757 737.785 569.265 736.567C543.772 735.349 461.369 708.665 423.354 695.475L420 645.251L435.094 596.549C433.417 564.588 429.392 499.45 426.708 494.579Z" fill="#6F0664" stroke="white" stroke-width="2"/>
<path d="M113.793 252.751C73.8207 234.763 23.2759 236.578 3 239.734V235L209.379 238.55L224.586 259.852L233.276 262.219L322.345 429.082L339.724 439.733L444 382.929L430.966 483.52C406.345 496.538 348.848 524.467 315.828 532.041C282.807 539.615 251.379 500.483 239.793 479.97L115.966 368.727C115.241 364.783 115.966 351.449 124.655 329.674C133.345 307.899 164.483 288.254 178.966 281.154C173.897 279.181 153.766 270.74 113.793 252.751Z" fill="white" stroke="#6F0664" stroke-width="5"/>
<path d="M527.714 614.429C523.065 597.971 542.242 525.286 552.412 491L703.503 525.286L767.425 528.029L764.52 522.543L664.277 375.8C669.604 366.2 684.326 347 700.597 347C716.868 347 757.74 358.886 776.142 364.829L829.896 466.314C840.065 493.286 860.114 553.811 858.952 580.143C857.499 613.057 748.539 618.543 713.672 625.4C685.778 630.886 585.826 634.086 539.337 635C537.4 635 532.363 630.886 527.714 614.429Z" fill="white" stroke="#6E0664" stroke-width="5"/>
<path d="M776 533L749.5 360.204L722.5 347L675 382.019L776 533Z" fill="#6E0664" fill-opacity="0.5"/>
<path d="M151.037 401.854C187.194 368.781 259.398 303.521 258.954 307.068" stroke="#6E0664" stroke-width="4"/>
<path d="M133.444 385.349C171.523 349.364 247.533 278.331 246.951 282.073" stroke="#6E0664" stroke-width="4"/>
<path d="M368.194 502.256C394.528 490.267 425.981 416.423 438.417 381L444.862 387.058L438.417 479.095C404.037 498.169 331.328 537.135 315.528 540.404C299.728 543.674 289.926 532.684 287 526.78L291.389 521.33L315.528 518.606C322.111 518.151 341.861 514.246 368.194 502.256Z" fill="#6E0664" fill-opacity="0.7"/>
<path d="M487.987 492.046L545.314 529.158L547 534.46L531.825 592.779L455.952 589.244C452.58 589.833 444.15 591.719 437.406 594.546C430.661 597.374 431.223 586.299 432.347 580.408L445.836 562.736L430.661 571.572V555.667L447.522 545.063L428.975 555.667C428.413 552.721 427.289 545.77 427.289 541.529C427.289 537.287 437.406 532.693 442.464 530.925L430.661 532.693C427.289 527.98 421.894 516.787 427.289 509.718C432.684 502.649 458.762 506.773 471.127 509.718V499.115C468.317 492.635 462.359 478.615 461.01 474.373C459.324 469.072 471.127 467.304 474.499 470.839C477.197 473.666 484.615 486.155 487.987 492.046Z" fill="white"/>
<path d="M442.464 530.925L430.661 532.693C427.289 527.98 421.894 516.787 427.289 509.718C432.684 502.649 458.762 506.773 471.127 509.718V499.115C468.317 492.635 462.359 478.615 461.01 474.373C459.324 469.072 471.127 467.304 474.499 470.839C477.197 473.666 484.615 486.155 487.987 492.046L545.314 529.158L547 534.46L531.825 592.779L455.952 589.244C452.58 589.833 444.15 591.719 437.406 594.546C430.661 597.374 431.223 586.299 432.347 580.408L445.836 562.736L430.661 571.572V555.667L447.522 545.063L428.975 555.667C428.413 552.721 427.289 545.77 427.289 541.529C427.289 537.287 437.406 532.693 442.464 530.925ZM442.464 530.925L435.719 518.555" stroke="#6E0664" stroke-width="3"/>
<path d="M539.863 82.5219C539.863 78.2351 530.621 75.0199 526 73.9482L528.203 66.6156L540.93 57.8725L552.661 61.0877L563.325 54.6574L575.055 48.2271H600.649L618.779 61.0877L635.841 65.3745L658.236 78.2351L663.568 72.8765L658.236 54.6574L662.502 37.51C668.189 35.3665 679.565 30.4367 679.565 27.8645C679.565 25.2924 683.83 13.9323 685.963 8.57371L710.491 10.7171L735.018 0L742.483 6.43028L756.347 22.506H777.675L789.406 34.2948L795.804 54.6574L810.734 71.8048L815 99.6693L789.406 116.817V121.104L792.605 128.606C793.316 131.106 794.525 137.179 793.672 141.466C792.818 145.753 786.918 146.825 784.074 146.825L770.21 147.896H751.015C744.972 149.325 731.819 151.969 727.554 151.112C723.288 150.254 716.534 142.181 713.69 138.251L712.624 144.681L717.956 157.542L714.756 166.116L717.956 184.335L708.358 195.052L707.292 213.271L692.362 228.275L693.428 234.705L656.103 262.57L625.177 269L621.978 263.641L616.646 243.279L608.114 228.275V217.558C608.114 214.343 614.513 192.908 614.513 188.622C614.513 185.192 601.005 176.475 594.251 172.546C591.052 172.546 583.587 172.975 579.321 174.689C575.055 176.404 570.434 190.408 568.657 197.195L565.458 190.765C564.747 187.193 563.111 179.405 562.258 176.833C561.192 173.618 566.524 159.685 567.59 154.327C568.444 150.04 562.258 138.965 559.059 133.964C553.727 131.106 542.636 124.747 540.93 122.175C539.224 119.603 539.508 108.958 539.863 103.956V82.5219Z" fill="black"/>
<path d="M497.208 99.9839C502.702 89.7037 521.082 75.7112 529.585 70H537.434L542.34 75.3543C542.994 76.0682 544.302 78.781 544.302 83.9211V113.905L554.113 123.543C557.384 126.755 565.691 134.251 572.755 138.535C579.819 142.818 571.774 158.881 566.868 166.377L572.755 188.865C575.371 183.868 581.977 172.374 587.472 166.377C592.966 160.38 600.881 166.734 604.151 170.66C607.421 172.445 614.551 178.585 616.906 188.865C619.26 199.145 613.308 210.282 610.038 214.565L620.83 257.4C627.044 269.536 640.845 296.379 646.34 306.659C651.834 316.939 695.069 337.357 716 346.281L695.396 355.918C688.855 359.488 669.887 368.769 646.34 377.335C616.906 388.044 537.434 371.981 532.528 370.91C528.604 370.054 503.421 356.275 491.321 349.493V345.21C503.748 342.354 530.37 335.572 537.434 331.289C544.498 327.005 543.648 320.223 542.34 317.368L532.528 269.179C516.83 271.321 483.864 275.39 477.585 274.533C469.736 273.462 468.755 269.179 462.868 262.754C458.158 257.614 460.906 243.479 462.868 237.053L457.962 238.124L456 230.628L458.943 228.487L461.887 222.061L456.981 216.707L456 207.069L461.887 199.573L464.83 193.148C463.522 192.791 460.513 190.578 458.943 184.582C457.374 178.585 468.101 172.802 473.66 170.66L488.377 153.527C489.031 139.963 491.713 110.264 497.208 99.9839Z" fill="white" stroke="#6E0664" stroke-width="4"/>
<path d="M465.336 326.784C456.773 342.124 459.984 372.689 462.66 386.054L563 400L560.324 356.419L554.973 337.243C551.405 330.851 542.397 316.673 534.905 311.095C527.413 305.516 528.216 293.662 529.553 288.432L477.377 297.149C476.931 300.635 473.898 311.443 465.336 326.784Z" fill="white"/>
<path d="M528.216 286.689C536.778 285.295 541.594 275.649 542.932 271H538.919L473.363 274.486C468.012 276.23 455.436 281.808 447.944 290.176C440.452 298.543 456.417 299.473 465.336 298.892C482.728 295.405 519.653 288.084 528.216 286.689Z" fill="white"/>
<path d="M465.336 326.784C456.773 342.124 459.984 372.689 462.66 386.054L563 400L560.324 356.419L554.973 337.243C551.405 330.851 542.397 316.673 534.905 311.095C527.413 305.516 528.216 293.662 529.553 288.432L477.377 297.149C476.931 300.635 473.898 311.443 465.336 326.784Z" stroke="#6E0664" stroke-width="2"/>
<path d="M528.216 286.689C536.778 285.295 541.594 275.649 542.932 271H538.919L473.363 274.486C468.012 276.23 455.436 281.808 447.944 290.176C440.452 298.543 456.417 299.473 465.336 298.892C482.728 295.405 519.653 288.084 528.216 286.689Z" stroke="#6E0664" stroke-width="2"/>
<path d="M626.918 311L536.831 317.293C541.608 321.969 551.945 332.642 556.949 339.797C562.038 347.072 561.614 380.214 560.766 395.875L646 408V356.469V339.797L639.639 330.703V314.031L626.918 311Z" fill="white"/>
<path d="M536 317.351L626.918 311L639.639 314.031V330.703L646 339.797V356.469V408L560.766 395.875C561.614 380.214 562.038 347.072 556.949 339.797C551.86 332.522 541.259 321.609 536.595 317.063" stroke="#6E0664" stroke-width="2"/>
<path d="M704.185 369.336C721.206 379.194 719.073 405.322 715.879 417.154L655.141 401.876L660.711 362.191C668.11 360.465 687.164 359.478 704.185 369.336Z" fill="#E7C06C" stroke="white" stroke-width="2"/>
<path d="M652.983 352.142C662.218 360.269 662.602 390.746 661.641 404.968V407L580.84 396.841C579.878 395.487 578.243 392.371 579.397 390.746C580.84 388.714 586.611 368.396 601.04 350.11C615.469 331.824 641.44 341.983 652.983 352.142Z" fill="#E7C06C" stroke="white" stroke-width="2"/>
<ellipse cx="630" cy="359.5" rx="4" ry="4.5" fill="white"/>
<circle cx="611" cy="368" r="4" fill="white"/>
<ellipse cx="642" cy="375.5" rx="4" ry="4.5" fill="white"/>
<ellipse cx="690.5" cy="371" rx="3.5" ry="5" fill="white"/>
<circle cx="670.5" cy="380.5" r="4.5" fill="white"/>
<ellipse cx="702.5" cy="387" rx="4.5" ry="5" fill="white"/>
<path d="M624.679 325.113L552.126 331.996" stroke="#6E0664" stroke-width="3"/>
<path d="M622 325L639 327" stroke="#6E0664" stroke-width="3"/>
<path d="M620 314V324.235L610 343" stroke="#6E0664" stroke-width="3"/>
<path d="M769 531.455L786.286 526M769 531.455L802 533.091M769 531.455L802 544" stroke="#6E0664" stroke-width="5"/>
</svg>
