<svg width="641" height="1013" viewBox="0 0 641 1013" fill="none" xmlns="http://www.w3.org/2000/svg">
<circle cx="180" cy="537" r="5" fill="#E464D8"/>
<circle cx="149" cy="453" r="5" fill="#E464D8"/>
<circle cx="307" cy="593" r="5" fill="#E464D8"/>
<circle cx="278" cy="789" r="5" fill="#E464D8"/>
<circle cx="111" cy="648" r="5" fill="#E464D8"/>
<circle cx="144" cy="583" r="5" fill="#A59ED8"/>
<circle cx="111" cy="730" r="5" fill="#A59ED8"/>
<circle cx="283" cy="723" r="5" fill="#E7C06C"/>
<circle cx="159" cy="697" r="5" fill="#E7C06C"/>
<circle cx="261" cy="643" r="5" fill="#E7C06C"/>
<circle cx="121" cy="822" r="5" fill="#E7C06C"/>
<circle cx="106" cy="510" r="5" fill="#E7C06C"/>
<path d="M204 636.5C204 639.261 201.761 641.5 199 641.5C196.239 641.5 194 639.261 194 636.5C194 633.739 196.239 631.5 199 631.5C201.761 631.5 204 633.739 204 636.5Z" fill="#A59ED8"/>
<path d="M189 767C189 769.761 186.761 772 184 772C181.239 772 179 769.761 179 767C179 764.239 181.239 762 184 762C186.761 762 189 764.239 189 767Z" fill="#A59ED8"/>
<path d="M334 646.5C334 649.261 331.761 651.5 329 651.5C326.239 651.5 324 649.261 324 646.5C324 643.739 326.239 641.5 329 641.5C331.761 641.5 334 643.739 334 646.5Z" fill="#A59ED8"/>
<path d="M250.5 560C250.5 562.761 248.261 565 245.5 565C242.739 565 240.5 562.761 240.5 560C240.5 557.239 242.739 555 245.5 555C248.261 555 250.5 557.239 250.5 560Z" fill="#A59ED8"/>
<circle cx="225" cy="843" r="5" fill="#E464D8"/>
<circle cx="410" cy="139" r="5" fill="#E464D8"/>
<circle cx="379" cy="55" r="5" fill="#E464D8"/>
<circle cx="537" cy="195" r="5" fill="#E464D8"/>
<circle cx="508" cy="391" r="5" fill="#E464D8"/>
<circle cx="341" cy="250" r="5" fill="#E464D8"/>
<circle cx="374" cy="185" r="5" fill="#A59ED8"/>
<circle cx="341" cy="332" r="5" fill="#A59ED8"/>
<circle cx="513" cy="325" r="5" fill="#E7C06C"/>
<circle cx="389" cy="299" r="5" fill="#E7C06C"/>
<circle cx="491" cy="245" r="5" fill="#E7C06C"/>
<circle cx="351" cy="424" r="5" fill="#E7C06C"/>
<circle cx="336" cy="112" r="5" fill="#E7C06C"/>
<path d="M434 238.5C434 241.261 431.761 243.5 429 243.5C426.239 243.5 424 241.261 424 238.5C424 235.739 426.239 233.5 429 233.5C431.761 233.5 434 235.739 434 238.5Z" fill="#A59ED8"/>
<path d="M419 369C419 371.761 416.761 374 414 374C411.239 374 409 371.761 409 369C409 366.239 411.239 364 414 364C416.761 364 419 366.239 419 369Z" fill="#A59ED8"/>
<path d="M564 248.5C564 251.261 561.761 253.5 559 253.5C556.239 253.5 554 251.261 554 248.5C554 245.739 556.239 243.5 559 243.5C561.761 243.5 564 245.739 564 248.5Z" fill="#A59ED8"/>
<path d="M480.5 162C480.5 164.761 478.261 167 475.5 167C472.739 167 470.5 164.761 470.5 162C470.5 159.239 472.739 157 475.5 157C478.261 157 480.5 159.239 480.5 162Z" fill="#A59ED8"/>
<circle cx="455" cy="445" r="5" fill="#E464D8"/>
<circle cx="410" cy="702" r="5" fill="#E464D8"/>
<circle cx="379" cy="618" r="5" fill="#E464D8"/>
<circle cx="537" cy="758" r="5" fill="#E464D8"/>
<circle cx="508" cy="954" r="5" fill="#E464D8"/>
<circle cx="341" cy="813" r="5" fill="#E464D8"/>
<circle cx="374" cy="748" r="5" fill="#A59ED8"/>
<circle cx="341" cy="895" r="5" fill="#A59ED8"/>
<circle cx="513" cy="888" r="5" fill="#E7C06C"/>
<circle cx="389" cy="862" r="5" fill="#E7C06C"/>
<circle cx="491" cy="808" r="5" fill="#E7C06C"/>
<circle cx="351" cy="987" r="5" fill="#E7C06C"/>
<circle cx="336" cy="675" r="5" fill="#E7C06C"/>
<circle cx="555" cy="451" r="5" fill="#E464D8"/>
<circle cx="486" cy="562" r="5" fill="#E464D8"/>
<circle cx="519" cy="497" r="5" fill="#A59ED8"/>
<circle cx="534" cy="611" r="5" fill="#E7C06C"/>
<circle cx="481" cy="424" r="5" fill="#E7C06C"/>
<circle cx="287" cy="330" r="5" fill="#E464D8"/>
<circle cx="218" cy="441" r="5" fill="#E464D8"/>
<circle cx="251" cy="376" r="5" fill="#A59ED8"/>
<circle cx="266" cy="490" r="5" fill="#E7C06C"/>
<circle cx="213" cy="303" r="5" fill="#E7C06C"/>
<circle cx="319" cy="92" r="5" fill="#E464D8"/>
<circle cx="250" cy="203" r="5" fill="#E464D8"/>
<circle cx="283" cy="138" r="5" fill="#A59ED8"/>
<circle cx="298" cy="252" r="5" fill="#E7C06C"/>
<circle cx="245" cy="65" r="5" fill="#E7C06C"/>
<path d="M434 801.5C434 804.261 431.761 806.5 429 806.5C426.239 806.5 424 804.261 424 801.5C424 798.739 426.239 796.5 429 796.5C431.761 796.5 434 798.739 434 801.5Z" fill="#A59ED8"/>
<path d="M419 932C419 934.761 416.761 937 414 937C411.239 937 409 934.761 409 932C409 929.239 411.239 927 414 927C416.761 927 419 929.239 419 932Z" fill="#A59ED8"/>
<path d="M564 811.5C564 814.261 561.761 816.5 559 816.5C556.239 816.5 554 814.261 554 811.5C554 808.739 556.239 806.5 559 806.5C561.761 806.5 564 808.739 564 811.5Z" fill="#A59ED8"/>
<path d="M480.5 725C480.5 727.761 478.261 730 475.5 730C472.739 730 470.5 727.761 470.5 725C470.5 722.239 472.739 720 475.5 720C478.261 720 480.5 722.239 480.5 725Z" fill="#A59ED8"/>
<circle cx="455" cy="1008" r="5" fill="#E464D8"/>
<circle cx="79" cy="89" r="5" fill="#E464D8"/>
<circle cx="48" cy="5" r="5" fill="#E464D8"/>
<circle cx="206" cy="145" r="5" fill="#E464D8"/>
<circle cx="177" cy="341" r="5" fill="#E464D8"/>
<circle cx="10" cy="200" r="5" fill="#E464D8"/>
<circle cx="43" cy="135" r="5" fill="#A59ED8"/>
<circle cx="10" cy="282" r="5" fill="#A59ED8"/>
<circle cx="182" cy="275" r="5" fill="#E7C06C"/>
<circle cx="58" cy="249" r="5" fill="#E7C06C"/>
<circle cx="160" cy="195" r="5" fill="#E7C06C"/>
<circle cx="20" cy="374" r="5" fill="#E7C06C"/>
<circle cx="5" cy="62" r="5" fill="#E7C06C"/>
<path d="M103 188.5C103 191.261 100.761 193.5 98 193.5C95.2386 193.5 93 191.261 93 188.5C93 185.739 95.2386 183.5 98 183.5C100.761 183.5 103 185.739 103 188.5Z" fill="#A59ED8"/>
<path d="M88 319C88 321.761 85.7614 324 83 324C80.2386 324 78 321.761 78 319C78 316.239 80.2386 314 83 314C85.7614 314 88 316.239 88 319Z" fill="#A59ED8"/>
<path d="M233 198.5C233 201.261 230.761 203.5 228 203.5C225.239 203.5 223 201.261 223 198.5C223 195.739 225.239 193.5 228 193.5C230.761 193.5 233 195.739 233 198.5Z" fill="#A59ED8"/>
<path d="M149.5 112C149.5 114.761 147.261 117 144.5 117C141.739 117 139.5 114.761 139.5 112C139.5 109.239 141.739 107 144.5 107C147.261 107 149.5 109.239 149.5 112Z" fill="#A59ED8"/>
<circle cx="124" cy="395" r="5" fill="#E464D8"/>
</svg>
