<svg width="588" height="990" viewBox="0 0 588 990" fill="none" xmlns="http://www.w3.org/2000/svg">
<circle cx="79" cy="553" r="5" fill="#E464D8"/>
<circle cx="48" cy="469" r="5" fill="#E464D8"/>
<circle cx="206" cy="609" r="5" fill="#E464D8"/>
<circle cx="177" cy="805" r="5" fill="#E464D8"/>
<circle cx="10" cy="664" r="5" fill="#E464D8"/>
<circle cx="43" cy="599" r="5" fill="#A59ED8"/>
<circle cx="10" cy="746" r="5" fill="#A59ED8"/>
<circle cx="182" cy="739" r="5" fill="#E7C06C"/>
<circle cx="58" cy="713" r="5" fill="#E7C06C"/>
<circle cx="160" cy="659" r="5" fill="#E7C06C"/>
<circle cx="20" cy="838" r="5" fill="#E7C06C"/>
<circle cx="5" cy="526" r="5" fill="#E7C06C"/>
<path d="M103 652.5C103 655.261 100.761 657.5 98 657.5C95.2386 657.5 93 655.261 93 652.5C93 649.739 95.2386 647.5 98 647.5C100.761 647.5 103 649.739 103 652.5Z" fill="#A59ED8"/>
<path d="M88 783C88 785.761 85.7614 788 83 788C80.2386 788 78 785.761 78 783C78 780.239 80.2386 778 83 778C85.7614 778 88 780.239 88 783Z" fill="#A59ED8"/>
<path d="M233 662.5C233 665.261 230.761 667.5 228 667.5C225.239 667.5 223 665.261 223 662.5C223 659.739 225.239 657.5 228 657.5C230.761 657.5 233 659.739 233 662.5Z" fill="#A59ED8"/>
<path d="M149.5 576C149.5 578.761 147.261 581 144.5 581C141.739 581 139.5 578.761 139.5 576C139.5 573.239 141.739 571 144.5 571C147.261 571 149.5 573.239 149.5 576Z" fill="#A59ED8"/>
<circle cx="124" cy="859" r="5" fill="#E464D8"/>
<circle cx="357" cy="679" r="5" fill="#E464D8"/>
<circle cx="326" cy="595" r="5" fill="#E464D8"/>
<circle cx="484" cy="735" r="5" fill="#E464D8"/>
<circle cx="455" cy="931" r="5" fill="#E464D8"/>
<circle cx="288" cy="790" r="5" fill="#E464D8"/>
<circle cx="321" cy="725" r="5" fill="#A59ED8"/>
<circle cx="288" cy="872" r="5" fill="#A59ED8"/>
<circle cx="460" cy="865" r="5" fill="#E7C06C"/>
<circle cx="336" cy="839" r="5" fill="#E7C06C"/>
<circle cx="438" cy="785" r="5" fill="#E7C06C"/>
<circle cx="298" cy="964" r="5" fill="#E7C06C"/>
<circle cx="283" cy="652" r="5" fill="#E7C06C"/>
<path d="M381 778.5C381 781.261 378.761 783.5 376 783.5C373.239 783.5 371 781.261 371 778.5C371 775.739 373.239 773.5 376 773.5C378.761 773.5 381 775.739 381 778.5Z" fill="#A59ED8"/>
<path d="M366 909C366 911.761 363.761 914 361 914C358.239 914 356 911.761 356 909C356 906.239 358.239 904 361 904C363.761 904 366 906.239 366 909Z" fill="#A59ED8"/>
<path d="M511 788.5C511 791.261 508.761 793.5 506 793.5C503.239 793.5 501 791.261 501 788.5C501 785.739 503.239 783.5 506 783.5C508.761 783.5 511 785.739 511 788.5Z" fill="#A59ED8"/>
<path d="M427.5 702C427.5 704.761 425.261 707 422.5 707C419.739 707 417.5 704.761 417.5 702C417.5 699.239 419.739 697 422.5 697C425.261 697 427.5 699.239 427.5 702Z" fill="#A59ED8"/>
<circle cx="402" cy="985" r="5" fill="#E464D8"/>
<circle cx="161" cy="89" r="5" fill="#E464D8"/>
<circle cx="130" cy="5" r="5" fill="#E464D8"/>
<circle cx="288" cy="145" r="5" fill="#E464D8"/>
<circle cx="259" cy="341" r="5" fill="#E464D8"/>
<circle cx="92" cy="200" r="5" fill="#E464D8"/>
<circle cx="125" cy="135" r="5" fill="#A59ED8"/>
<circle cx="92" cy="282" r="5" fill="#A59ED8"/>
<circle cx="264" cy="275" r="5" fill="#E7C06C"/>
<circle cx="140" cy="249" r="5" fill="#E7C06C"/>
<circle cx="242" cy="195" r="5" fill="#E7C06C"/>
<circle cx="102" cy="374" r="5" fill="#E7C06C"/>
<circle cx="87" cy="62" r="5" fill="#E7C06C"/>
<path d="M185 188.5C185 191.261 182.761 193.5 180 193.5C177.239 193.5 175 191.261 175 188.5C175 185.739 177.239 183.5 180 183.5C182.761 183.5 185 185.739 185 188.5Z" fill="#A59ED8"/>
<path d="M170 319C170 321.761 167.761 324 165 324C162.239 324 160 321.761 160 319C160 316.239 162.239 314 165 314C167.761 314 170 316.239 170 319Z" fill="#A59ED8"/>
<path d="M315 198.5C315 201.261 312.761 203.5 310 203.5C307.239 203.5 305 201.261 305 198.5C305 195.739 307.239 193.5 310 193.5C312.761 193.5 315 195.739 315 198.5Z" fill="#A59ED8"/>
<path d="M231.5 112C231.5 114.761 229.261 117 226.5 117C223.739 117 221.5 114.761 221.5 112C221.5 109.239 223.739 107 226.5 107C229.261 107 231.5 109.239 231.5 112Z" fill="#A59ED8"/>
<circle cx="206" cy="395" r="5" fill="#E464D8"/>
</svg>
