<svg width="333" height="937" viewBox="0 0 333 937" fill="none" xmlns="http://www.w3.org/2000/svg">
<circle cx="260" cy="150" r="5" fill="#7B487B"/>
<circle cx="250" cy="238" r="5" fill="#E464D8"/>
<circle cx="250" cy="238" r="5" fill="#E7C06C"/>
<circle cx="212" cy="101" r="5" fill="#E7C06C"/>
<circle cx="291" cy="332" r="5" fill="#E7C06C"/>
<circle cx="170" cy="292" r="5" fill="#E7C06C"/>
<circle cx="117" cy="211" r="5" fill="#E7C06C"/>
<circle cx="102" cy="626" r="5" fill="#E464D8"/>
<circle cx="71" cy="542" r="5" fill="#E464D8"/>
<circle cx="229" cy="682" r="5" fill="#E464D8"/>
<circle cx="200" cy="878" r="5" fill="#E464D8"/>
<circle cx="142" cy="814" r="5" fill="#E464D8"/>
<circle cx="33" cy="737" r="5" fill="#E464D8"/>
<circle cx="192" cy="358" r="5" fill="#E464D8"/>
<circle cx="33" cy="177" r="5" fill="#E464D8"/>
<circle cx="18" cy="461" r="5" fill="#A59ED8"/>
<circle cx="38" cy="276" r="5" fill="#A59ED8"/>
<circle cx="66" cy="672" r="5" fill="#A59ED8"/>
<circle cx="76" cy="483" r="5" fill="#A59ED8"/>
<circle cx="33" cy="819" r="5" fill="#A59ED8"/>
<circle cx="224" cy="393" r="5" fill="#A59ED8"/>
<circle cx="224" cy="287" r="5" fill="#A59ED8"/>
<circle cx="137" cy="327" r="5" fill="#A59ED8"/>
<circle cx="106" cy="281" r="5" fill="#A59ED8"/>
<circle cx="112" cy="96" r="5" fill="#E464D8"/>
<circle cx="317" cy="281" r="5" fill="#E464D8"/>
<circle cx="71" cy="238" r="5" fill="#E464D8"/>
<circle cx="175" cy="599" r="5" fill="#E7C06C"/>
<circle cx="147" cy="520" r="5" fill="#E7C06C"/>
<circle cx="147" cy="520" r="5" fill="#E7C06C"/>
<circle cx="73" cy="155" r="5" fill="#A59ED8"/>
<circle cx="23" cy="65" r="5" fill="#E464D8"/>
<circle cx="51" cy="5" r="5" fill="#E7C06C"/>
<circle cx="68" cy="96" r="5" fill="#A59ED8"/>
<circle cx="5" cy="32" r="5" fill="#E464D8"/>
<circle cx="160" cy="248" r="5" fill="#E464D8"/>
<circle cx="160" cy="248" r="5" fill="#E464D8"/>
<circle cx="164" cy="452" r="5" fill="#E7C06C"/>
<circle cx="100" cy="441" r="5" fill="#A59ED8"/>
<circle cx="154" cy="408" r="5" fill="#E464D8"/>
<circle cx="250" cy="505" r="5" fill="#E7C06C"/>
<circle cx="186" cy="494" r="5" fill="#A59ED8"/>
<circle cx="240" cy="461" r="5" fill="#E464D8"/>
<circle cx="283" cy="602" r="5" fill="#E7C06C"/>
<circle cx="219" cy="591" r="5" fill="#A59ED8"/>
<circle cx="273" cy="558" r="5" fill="#E464D8"/>
<circle cx="234" cy="334" r="5" fill="#E7C06C"/>
<circle cx="214" cy="192" r="5" fill="#A59ED8"/>
<circle cx="170" cy="115" r="5" fill="#A59ED8"/>
<circle cx="150" cy="153" r="5" fill="#E464D8"/>
<circle cx="61" cy="348" r="5" fill="#E464D8"/>
<circle cx="205" cy="812" r="5" fill="#E7C06C"/>
<circle cx="205" cy="812" r="5" fill="#E7C06C"/>
<circle cx="81" cy="786" r="5" fill="#E7C06C"/>
<circle cx="183" cy="732" r="5" fill="#E7C06C"/>
<circle cx="43" cy="911" r="5" fill="#E7C06C"/>
<circle cx="28" cy="599" r="5" fill="#E7C06C"/>
<path d="M126 725.5C126 728.261 123.761 730.5 121 730.5C118.239 730.5 116 728.261 116 725.5C116 722.739 118.239 720.5 121 720.5C123.761 720.5 126 722.739 126 725.5Z" fill="#A59ED8"/>
<path d="M111 856C111 858.761 108.761 861 106 861C103.239 861 101 858.761 101 856C101 853.239 103.239 851 106 851C108.761 851 111 853.239 111 856Z" fill="#A59ED8"/>
<path d="M256 735.5C256 738.261 253.761 740.5 251 740.5C248.239 740.5 246 738.261 246 735.5C246 732.739 248.239 730.5 251 730.5C253.761 730.5 256 732.739 256 735.5Z" fill="#A59ED8"/>
<path d="M172.5 649C172.5 651.761 170.261 654 167.5 654C164.739 654 162.5 651.761 162.5 649C162.5 646.239 164.739 644 167.5 644C170.261 644 172.5 646.239 172.5 649Z" fill="#A59ED8"/>
<path d="M126 725.5C126 728.261 123.761 730.5 121 730.5C118.239 730.5 116 728.261 116 725.5C116 722.739 118.239 720.5 121 720.5C123.761 720.5 126 722.739 126 725.5Z" fill="#A59ED8"/>
<path d="M111 856C111 858.761 108.761 861 106 861C103.239 861 101 858.761 101 856C101 853.239 103.239 851 106 851C108.761 851 111 853.239 111 856Z" fill="#A59ED8"/>
<path d="M256 735.5C256 738.261 253.761 740.5 251 740.5C248.239 740.5 246 738.261 246 735.5C246 732.739 248.239 730.5 251 730.5C253.761 730.5 256 732.739 256 735.5Z" fill="#A59ED8"/>
<path d="M172.5 649C172.5 651.761 170.261 654 167.5 654C164.739 654 162.5 651.761 162.5 649C162.5 646.239 164.739 644 167.5 644C170.261 644 172.5 646.239 172.5 649Z" fill="#A59ED8"/>
<path d="M126 725.5C126 728.261 123.761 730.5 121 730.5C118.239 730.5 116 728.261 116 725.5C116 722.739 118.239 720.5 121 720.5C123.761 720.5 126 722.739 126 725.5Z" fill="#A59ED8"/>
<path d="M111 856C111 858.761 108.761 861 106 861C103.239 861 101 858.761 101 856C101 853.239 103.239 851 106 851C108.761 851 111 853.239 111 856Z" fill="#A59ED8"/>
<path d="M256 735.5C256 738.261 253.761 740.5 251 740.5C248.239 740.5 246 738.261 246 735.5C246 732.739 248.239 730.5 251 730.5C253.761 730.5 256 732.739 256 735.5Z" fill="#A59ED8"/>
<path d="M172.5 649C172.5 651.761 170.261 654 167.5 654C164.739 654 162.5 651.761 162.5 649C162.5 646.239 164.739 644 167.5 644C170.261 644 172.5 646.239 172.5 649Z" fill="#A59ED8"/>
<circle cx="147" cy="932" r="5" fill="#E464D8"/>
</svg>
