<svg width="333" height="844" viewBox="0 0 333 844" fill="none" xmlns="http://www.w3.org/2000/svg">
<circle cx="260" cy="104" r="5" fill="#7B487B"/>
<circle cx="250" cy="192" r="5" fill="#E464D8"/>
<circle cx="250" cy="192" r="5" fill="#E7C06C"/>
<circle cx="212" cy="55" r="5" fill="#E7C06C"/>
<circle cx="291" cy="286" r="5" fill="#E7C06C"/>
<circle cx="170" cy="246" r="5" fill="#E7C06C"/>
<circle cx="117" cy="165" r="5" fill="#E7C06C"/>
<circle cx="102" cy="580" r="5" fill="#E464D8"/>
<circle cx="71" cy="496" r="5" fill="#E464D8"/>
<circle cx="229" cy="636" r="5" fill="#E464D8"/>
<circle cx="200" cy="832" r="5" fill="#E464D8"/>
<circle cx="142" cy="768" r="5" fill="#E464D8"/>
<circle cx="33" cy="691" r="5" fill="#E464D8"/>
<circle cx="192" cy="312" r="5" fill="#E464D8"/>
<circle cx="33" cy="131" r="5" fill="#E464D8"/>
<circle cx="18" cy="415" r="5" fill="#A59ED8"/>
<circle cx="38" cy="230" r="5" fill="#A59ED8"/>
<circle cx="66" cy="626" r="5" fill="#A59ED8"/>
<circle cx="76" cy="437" r="5" fill="#A59ED8"/>
<circle cx="33" cy="773" r="5" fill="#A59ED8"/>
<circle cx="224" cy="347" r="5" fill="#A59ED8"/>
<circle cx="224" cy="241" r="5" fill="#A59ED8"/>
<circle cx="137" cy="281" r="5" fill="#A59ED8"/>
<circle cx="106" cy="235" r="5" fill="#A59ED8"/>
<circle cx="112" cy="50" r="5" fill="#E464D8"/>
<circle cx="317" cy="235" r="5" fill="#E464D8"/>
<circle cx="71" cy="192" r="5" fill="#E464D8"/>
<circle cx="175" cy="553" r="5" fill="#E7C06C"/>
<circle cx="147" cy="474" r="5" fill="#E7C06C"/>
<circle cx="147" cy="474" r="5" fill="#E7C06C"/>
<circle cx="73" cy="109" r="5" fill="#A59ED8"/>
<circle cx="23" cy="19" r="5" fill="#E464D8"/>
<circle cx="68" cy="50" r="5" fill="#A59ED8"/>
<circle cx="160" cy="202" r="5" fill="#E464D8"/>
<circle cx="160" cy="202" r="5" fill="#E464D8"/>
<circle cx="164" cy="406" r="5" fill="#E7C06C"/>
<circle cx="100" cy="395" r="5" fill="#A59ED8"/>
<circle cx="154" cy="362" r="5" fill="#E464D8"/>
<circle cx="250" cy="459" r="5" fill="#E7C06C"/>
<circle cx="186" cy="448" r="5" fill="#A59ED8"/>
<circle cx="240" cy="415" r="5" fill="#E464D8"/>
<circle cx="283" cy="556" r="5" fill="#E7C06C"/>
<circle cx="219" cy="545" r="5" fill="#A59ED8"/>
<circle cx="273" cy="512" r="5" fill="#E464D8"/>
<circle cx="234" cy="288" r="5" fill="#E7C06C"/>
<circle cx="214" cy="146" r="5" fill="#A59ED8"/>
<circle cx="170" cy="69" r="5" fill="#A59ED8"/>
<circle cx="150" cy="107" r="5" fill="#E464D8"/>
<circle cx="61" cy="302" r="5" fill="#E464D8"/>
<circle cx="205" cy="766" r="5" fill="#E7C06C"/>
<circle cx="205" cy="766" r="5" fill="#E7C06C"/>
<circle cx="81" cy="740" r="5" fill="#E7C06C"/>
<circle cx="183" cy="686" r="5" fill="#E7C06C"/>
<circle cx="28" cy="553" r="5" fill="#E7C06C"/>
<path d="M126 679.5C126 682.261 123.761 684.5 121 684.5C118.239 684.5 116 682.261 116 679.5C116 676.739 118.239 674.5 121 674.5C123.761 674.5 126 676.739 126 679.5Z" fill="#A59ED8"/>
<path d="M111 810C111 812.761 108.761 815 106 815C103.239 815 101 812.761 101 810C101 807.239 103.239 805 106 805C108.761 805 111 807.239 111 810Z" fill="#A59ED8"/>
<path d="M256 689.5C256 692.261 253.761 694.5 251 694.5C248.239 694.5 246 692.261 246 689.5C246 686.739 248.239 684.5 251 684.5C253.761 684.5 256 686.739 256 689.5Z" fill="#A59ED8"/>
<path d="M172.5 603C172.5 605.761 170.261 608 167.5 608C164.739 608 162.5 605.761 162.5 603C162.5 600.239 164.739 598 167.5 598C170.261 598 172.5 600.239 172.5 603Z" fill="#A59ED8"/>
<path d="M126 679.5C126 682.261 123.761 684.5 121 684.5C118.239 684.5 116 682.261 116 679.5C116 676.739 118.239 674.5 121 674.5C123.761 674.5 126 676.739 126 679.5Z" fill="#A59ED8"/>
<path d="M111 810C111 812.761 108.761 815 106 815C103.239 815 101 812.761 101 810C101 807.239 103.239 805 106 805C108.761 805 111 807.239 111 810Z" fill="#A59ED8"/>
<path d="M256 689.5C256 692.261 253.761 694.5 251 694.5C248.239 694.5 246 692.261 246 689.5C246 686.739 248.239 684.5 251 684.5C253.761 684.5 256 686.739 256 689.5Z" fill="#A59ED8"/>
<path d="M172.5 603C172.5 605.761 170.261 608 167.5 608C164.739 608 162.5 605.761 162.5 603C162.5 600.239 164.739 598 167.5 598C170.261 598 172.5 600.239 172.5 603Z" fill="#A59ED8"/>
<path d="M126 679.5C126 682.261 123.761 684.5 121 684.5C118.239 684.5 116 682.261 116 679.5C116 676.739 118.239 674.5 121 674.5C123.761 674.5 126 676.739 126 679.5Z" fill="#A59ED8"/>
<path d="M111 810C111 812.761 108.761 815 106 815C103.239 815 101 812.761 101 810C101 807.239 103.239 805 106 805C108.761 805 111 807.239 111 810Z" fill="#A59ED8"/>
<path d="M256 689.5C256 692.261 253.761 694.5 251 694.5C248.239 694.5 246 692.261 246 689.5C246 686.739 248.239 684.5 251 684.5C253.761 684.5 256 686.739 256 689.5Z" fill="#A59ED8"/>
<path d="M172.5 603C172.5 605.761 170.261 608 167.5 608C164.739 608 162.5 605.761 162.5 603C162.5 600.239 164.739 598 167.5 598C170.261 598 172.5 600.239 172.5 603Z" fill="#A59ED8"/>
</svg>
