<svg width="1664" height="2181" viewBox="0 0 1664 2181" fill="none" xmlns="http://www.w3.org/2000/svg">
<g clip-path="url(#clip0_252_1151)">
<rect width="1444.94" height="2181" fill="#FFE7E7"/>
<g opacity="0.8" filter="url(#filter0_f_252_1151)">
<path fill-rule="evenodd" clip-rule="evenodd" d="M355.43 -179.386C399.853 -161.493 395.576 -98.0335 430.489 -65.2345C483.018 -15.8865 619.048 -19.0125 600.227 50.5866C581.141 121.162 458.874 41.1309 393.112 72.9789C326.993 105 316.864 241.377 245.966 222.152C178.937 203.975 238.465 92.5564 219.138 25.8018C196.508 -52.3592 82.4001 -119.54 127.414 -187.309C171.709 -253.995 281.203 -209.284 355.43 -179.386Z" fill="#F2C94C"/>
</g>
<g opacity="0.8" filter="url(#filter1_f_252_1151)">
<path fill-rule="evenodd" clip-rule="evenodd" d="M1385.43 865.614C1429.85 883.507 1425.58 946.967 1460.49 979.765C1513.02 1029.11 1649.05 1025.99 1630.23 1095.59C1611.14 1166.16 1488.87 1086.13 1423.11 1117.98C1356.99 1150 1346.86 1286.38 1275.97 1267.15C1208.94 1248.98 1268.47 1137.56 1249.14 1070.8C1226.51 992.641 1112.4 925.46 1157.41 857.691C1201.71 791.005 1311.2 835.716 1385.43 865.614Z" fill="#F2C94C"/>
</g>
<g opacity="0.8" filter="url(#filter2_f_252_1151)">
<path fill-rule="evenodd" clip-rule="evenodd" d="M1294.43 1843.61C1338.85 1861.51 1334.58 1924.97 1369.49 1957.77C1422.02 2007.11 1558.05 2003.99 1539.23 2073.59C1520.14 2144.16 1397.87 2064.13 1332.11 2095.98C1265.99 2128 1255.86 2264.38 1184.97 2245.15C1117.94 2226.98 1177.47 2115.56 1158.14 2048.8C1135.51 1970.64 1021.4 1903.46 1066.41 1835.69C1110.71 1769 1220.2 1813.72 1294.43 1843.61Z" fill="#F2C94C"/>
</g>
<g opacity="0.7" filter="url(#filter3_f_252_1151)">
<path fill-rule="evenodd" clip-rule="evenodd" d="M822.039 932.983C784.124 925.182 746.56 917.439 711.294 901.48C676.92 885.926 648.912 860.76 617.212 840.298C581.074 816.971 533.755 806.765 509.513 771.234C485.495 736.031 485.991 689.435 485.212 646.826C484.456 605.475 491.107 564.362 505.018 525.414C518.576 487.455 536.917 450.296 565.541 421.917C593.287 394.409 633.358 385.096 666.848 364.973C699.968 345.072 728.057 318.106 763.585 302.917C802.818 286.144 843.775 270.877 886.442 271.09C931.03 271.312 978.285 278.691 1014.88 304.17C1051.42 329.613 1067.34 374.883 1090.3 413.034C1111.76 448.697 1142.63 481.82 1146.7 523.242C1150.77 564.74 1124.81 602.617 1112.85 642.562C1102.55 676.949 1096.94 712.403 1080.49 744.31C1064.15 776.031 1035.54 798.839 1016.7 829.144C992.2 868.537 992.897 929.166 951.968 951C913.058 971.756 865.233 941.87 822.039 932.983Z" fill="#F56EE8"/>
<path fill-rule="evenodd" clip-rule="evenodd" d="M240.883 1905.98C202.969 1898.18 165.405 1890.44 130.138 1874.48C95.7642 1858.93 67.7566 1833.76 36.0571 1813.3C-0.0816145 1789.97 -47.4006 1779.77 -71.6427 1744.23C-95.6606 1709.03 -95.1645 1662.43 -95.9436 1619.83C-96.6997 1578.48 -90.0481 1537.36 -76.1373 1498.41C-62.5795 1460.45 -44.2387 1423.3 -15.614 1394.92C12.1318 1367.41 52.2027 1358.1 85.6924 1337.97C118.812 1318.07 146.902 1291.11 182.43 1275.92C221.662 1259.14 262.62 1243.88 305.286 1244.09C349.874 1244.31 397.13 1251.69 433.722 1277.17C470.262 1302.61 486.187 1347.88 509.143 1386.03C530.602 1421.7 561.472 1454.82 565.542 1496.24C569.619 1537.74 543.658 1575.62 531.696 1615.56C521.398 1649.95 515.782 1685.4 499.339 1717.31C482.991 1749.03 454.385 1771.84 435.541 1802.14C411.045 1841.54 411.742 1902.17 370.812 1924C331.903 1944.76 284.078 1914.87 240.883 1905.98Z" fill="#F56EE8"/>
</g>
</g>
<path d="M582.131 1252.85V1242.85H587.609V1252.85H582.131ZM577.577 1259.71V1255.55H579.854V1259.71H577.577ZM577.577 1240.11V1235.95H579.854V1240.11H577.577ZM577.577 1240.11V1235.95H579.854V1240.11H577.577ZM587.609 1242.88H582.131C582.131 1242 581.922 1241.32 581.504 1240.84C581.108 1240.35 580.558 1240.11 579.854 1240.11V1235.95C581.328 1235.95 582.648 1236.26 583.814 1236.88C584.98 1237.47 585.904 1238.3 586.586 1239.35C587.268 1240.39 587.609 1241.56 587.609 1242.88ZM587.609 1252.78C587.609 1254.1 587.268 1255.29 586.586 1256.35C585.904 1257.38 584.98 1258.21 583.814 1258.82C582.648 1259.42 581.328 1259.71 579.854 1259.71V1255.55C580.558 1255.55 581.108 1255.31 581.504 1254.83C581.922 1254.34 582.131 1253.66 582.131 1252.78H587.609ZM572.759 1259.71V1235.95H578.237V1259.71H572.759ZM595.576 1259.71V1255.55H603.958V1259.71H595.576ZM595.576 1249.91V1245.75H601.978V1249.91H595.576ZM591.418 1235.95H596.896V1259.71H591.418V1235.95ZM595.906 1235.95H603.628V1240.11H595.906V1235.95ZM616.612 1253.97C616.612 1253.24 616.37 1252.63 615.886 1252.12C615.402 1251.62 614.775 1251.14 614.005 1250.7C613.257 1250.24 612.454 1249.77 611.596 1249.28C610.738 1248.78 609.924 1248.2 609.154 1247.54C608.406 1246.88 607.79 1246.07 607.306 1245.13C606.822 1244.18 606.58 1243.03 606.58 1241.66H612.058C612.058 1242.37 612.3 1242.98 612.784 1243.51C613.268 1244.02 613.884 1244.5 614.632 1244.96C615.402 1245.4 616.216 1245.87 617.074 1246.38C617.932 1246.86 618.735 1247.44 619.483 1248.1C620.253 1248.76 620.88 1249.56 621.364 1250.51C621.848 1251.45 622.09 1252.61 622.09 1253.97H616.612ZM606.58 1241.69C606.58 1240.48 606.921 1239.42 607.603 1238.49C608.285 1237.55 609.209 1236.8 610.375 1236.25C611.541 1235.7 612.861 1235.42 614.335 1235.42V1239.58C613.631 1239.58 613.07 1239.77 612.652 1240.14C612.256 1240.52 612.058 1241.03 612.058 1241.69H606.58ZM622.09 1253.97C622.09 1255.18 621.749 1256.26 621.067 1257.2C620.385 1258.13 619.461 1258.87 618.295 1259.42C617.129 1259.97 615.809 1260.24 614.335 1260.24V1256.08C615.039 1256.08 615.589 1255.9 615.985 1255.52C616.403 1255.15 616.612 1254.63 616.612 1253.97H622.09ZM616.447 1242.19C616.337 1241.35 616.095 1240.72 615.721 1240.28C615.369 1239.81 614.907 1239.58 614.335 1239.58V1235.42C615.589 1235.42 616.689 1235.66 617.635 1236.12C618.603 1236.58 619.395 1237.25 620.011 1238.13C620.627 1239.01 621.034 1240.08 621.232 1241.33L616.447 1242.19ZM611.365 1252.16C611.431 1253.39 611.728 1254.36 612.256 1255.06C612.784 1255.74 613.477 1256.08 614.335 1256.08V1260.24C612.069 1260.24 610.243 1259.6 608.857 1258.33C607.471 1257.05 606.668 1255.28 606.448 1253.01L611.365 1252.16ZM625.554 1259.71V1235.95H631.032V1259.71H625.554ZM642.241 1250.51V1246.35H650.458V1250.51H642.241ZM644.98 1253.34V1246.45H650.458V1253.34H644.98ZM634.981 1253.34V1242.32H640.459V1253.34H634.981ZM634.981 1242.35C634.981 1241.03 635.322 1239.86 636.004 1238.82C636.686 1237.77 637.61 1236.94 638.776 1236.35C639.942 1235.73 641.262 1235.42 642.736 1235.42V1239.58C642.032 1239.58 641.471 1239.82 641.053 1240.31C640.657 1240.79 640.459 1241.47 640.459 1242.35H634.981ZM634.981 1253.31H640.459C640.459 1254.19 640.657 1254.87 641.053 1255.36C641.471 1255.84 642.032 1256.08 642.736 1256.08V1260.24C641.262 1260.24 639.942 1259.94 638.776 1259.35C637.61 1258.73 636.686 1257.91 636.004 1256.87C635.322 1255.82 634.981 1254.63 634.981 1253.31ZM645.673 1243.51C645.607 1242.28 645.31 1241.32 644.782 1240.64C644.254 1239.93 643.561 1239.58 642.703 1239.58V1235.42C644.969 1235.42 646.795 1236.06 648.181 1237.34C649.567 1238.59 650.37 1240.36 650.59 1242.65L645.673 1243.51ZM650.458 1253.31C650.458 1254.63 650.117 1255.82 649.435 1256.87C648.753 1257.91 647.829 1258.73 646.663 1259.35C645.497 1259.94 644.177 1260.24 642.703 1260.24V1256.08C643.407 1256.08 643.957 1255.84 644.353 1255.36C644.771 1254.87 644.98 1254.19 644.98 1253.31H650.458ZM664.685 1259.71L655.28 1235.95H659.9L669.305 1259.71H664.685ZM654.389 1259.71V1235.95H659.867V1259.71H654.389ZM665.972 1259.71V1235.95H671.45V1259.71H665.972ZM675.73 1259.71V1235.95H681.208V1259.71H675.73ZM695.783 1259.71L686.378 1235.95H690.998L700.403 1259.71H695.783ZM685.487 1259.71V1235.95H690.965V1259.71H685.487ZM697.07 1259.71V1235.95H702.548V1259.71H697.07ZM713.429 1250.51V1246.35H721.646V1250.51H713.429ZM716.168 1253.34V1246.45H721.646V1253.34H716.168ZM706.169 1253.34V1242.32H711.647V1253.34H706.169ZM706.169 1242.35C706.169 1241.03 706.51 1239.86 707.192 1238.82C707.874 1237.77 708.798 1236.94 709.964 1236.35C711.13 1235.73 712.45 1235.42 713.924 1235.42V1239.58C713.22 1239.58 712.659 1239.82 712.241 1240.31C711.845 1240.79 711.647 1241.47 711.647 1242.35H706.169ZM706.169 1253.31H711.647C711.647 1254.19 711.845 1254.87 712.241 1255.36C712.659 1255.84 713.22 1256.08 713.924 1256.08V1260.24C712.45 1260.24 711.13 1259.94 709.964 1259.35C708.798 1258.73 707.874 1257.91 707.192 1256.87C706.51 1255.82 706.169 1254.63 706.169 1253.31ZM716.861 1243.51C716.795 1242.28 716.498 1241.32 715.97 1240.64C715.442 1239.93 714.749 1239.58 713.891 1239.58V1235.42C716.157 1235.42 717.983 1236.06 719.369 1237.34C720.755 1238.59 721.558 1240.36 721.778 1242.65L716.861 1243.51ZM721.646 1253.31C721.646 1254.63 721.305 1255.82 720.623 1256.87C719.941 1257.91 719.017 1258.73 717.851 1259.35C716.685 1259.94 715.365 1260.24 713.891 1260.24V1256.08C714.595 1256.08 715.145 1255.84 715.541 1255.36C715.959 1254.87 716.168 1254.19 716.168 1253.31H721.646Z" fill="#FFE7E7"/>
<path d="M582.131 1252.85H581.131V1253.85H582.131V1252.85ZM582.131 1242.85V1241.85H581.131V1242.85H582.131ZM587.609 1242.85H588.609V1241.85H587.609V1242.85ZM587.609 1252.85V1253.85H588.609V1252.85H587.609ZM577.577 1259.71H576.577V1260.71H577.577V1259.71ZM577.577 1255.55V1254.55H576.577V1255.55H577.577ZM579.854 1255.55H580.854V1254.55H579.854V1255.55ZM579.854 1259.71V1260.71H580.854V1259.71H579.854ZM577.577 1240.11H576.577V1241.11H577.577V1240.11ZM577.577 1235.95V1234.95H576.577V1235.95H577.577ZM579.854 1235.95H580.854V1234.95H579.854V1235.95ZM579.854 1240.11V1241.11H580.854V1240.11H579.854ZM577.577 1240.11H576.577V1241.11H577.577V1240.11ZM577.577 1235.95V1234.95H576.577V1235.95H577.577ZM579.854 1235.95H580.854V1234.95H579.854V1235.95ZM579.854 1240.11V1241.11H580.854V1240.11H579.854ZM587.609 1242.88V1243.88H588.609V1242.88H587.609ZM582.131 1242.88H581.131V1243.88H582.131V1242.88ZM581.504 1240.84L580.73 1241.47L580.738 1241.48L580.747 1241.49L581.504 1240.84ZM579.854 1240.11H578.854V1241.11H579.854V1240.11ZM579.854 1235.95V1234.95H578.854V1235.95H579.854ZM583.814 1236.88L583.347 1237.76L583.353 1237.76L583.36 1237.77L583.814 1236.88ZM586.586 1239.35L585.746 1239.89L585.751 1239.9L586.586 1239.35ZM587.609 1252.78H588.609V1251.78H587.609V1252.78ZM586.586 1256.35L587.421 1256.9L587.426 1256.89L586.586 1256.35ZM583.814 1258.82L584.268 1259.71L584.274 1259.71L584.281 1259.71L583.814 1258.82ZM579.854 1259.71H578.854V1260.71H579.854V1259.71ZM579.854 1255.55V1254.55H578.854V1255.55H579.854ZM581.504 1254.83L580.747 1254.18L580.738 1254.19L580.73 1254.2L581.504 1254.83ZM582.131 1252.78V1251.78H581.131V1252.78H582.131ZM572.759 1259.71H571.759V1260.71H572.759V1259.71ZM572.759 1235.95V1234.95H571.759V1235.95H572.759ZM578.237 1235.95H579.237V1234.95H578.237V1235.95ZM578.237 1259.71V1260.71H579.237V1259.71H578.237ZM583.131 1252.85V1242.85H581.131V1252.85H583.131ZM582.131 1243.85H587.609V1241.85H582.131V1243.85ZM586.609 1242.85V1252.85H588.609V1242.85H586.609ZM587.609 1251.85H582.131V1253.85H587.609V1251.85ZM578.577 1259.71V1255.55H576.577V1259.71H578.577ZM577.577 1256.55H579.854V1254.55H577.577V1256.55ZM578.854 1255.55V1259.71H580.854V1255.55H578.854ZM579.854 1258.71H577.577V1260.71H579.854V1258.71ZM578.577 1240.11V1235.95H576.577V1240.11H578.577ZM577.577 1236.95H579.854V1234.95H577.577V1236.95ZM578.854 1235.95V1240.11H580.854V1235.95H578.854ZM579.854 1239.11H577.577V1241.11H579.854V1239.11ZM578.577 1240.11V1235.95H576.577V1240.11H578.577ZM577.577 1236.95H579.854V1234.95H577.577V1236.95ZM578.854 1235.95V1240.11H580.854V1235.95H578.854ZM579.854 1239.11H577.577V1241.11H579.854V1239.11ZM587.609 1241.88H582.131V1243.88H587.609V1241.88ZM583.131 1242.88C583.131 1241.85 582.886 1240.91 582.261 1240.18L580.747 1241.49C580.958 1241.73 581.131 1242.15 581.131 1242.88H583.131ZM582.278 1240.2C581.666 1239.46 580.815 1239.11 579.854 1239.11V1241.11C580.3 1241.11 580.549 1241.25 580.73 1241.47L582.278 1240.2ZM580.854 1240.11V1235.95H578.854V1240.11H580.854ZM579.854 1236.95C581.184 1236.95 582.341 1237.23 583.347 1237.76L584.281 1235.99C582.955 1235.29 581.471 1234.95 579.854 1234.95V1236.95ZM583.36 1237.77C584.375 1238.29 585.163 1238.99 585.746 1239.89L587.426 1238.81C586.644 1237.6 585.584 1236.66 584.268 1235.99L583.36 1237.77ZM585.751 1239.9C586.318 1240.76 586.609 1241.75 586.609 1242.88H588.609C588.609 1241.38 588.217 1240.01 587.421 1238.8L585.751 1239.9ZM586.609 1252.78C586.609 1253.92 586.318 1254.92 585.746 1255.8L587.426 1256.89C588.218 1255.66 588.609 1254.29 588.609 1252.78H586.609ZM585.751 1255.8C585.168 1256.68 584.374 1257.39 583.347 1257.94L584.281 1259.71C585.586 1259.02 586.64 1258.08 587.421 1256.9L585.751 1255.8ZM583.36 1257.93C582.351 1258.44 581.19 1258.71 579.854 1258.71V1260.71C581.465 1260.71 582.944 1260.39 584.268 1259.71L583.36 1257.93ZM580.854 1259.71V1255.55H578.854V1259.71H580.854ZM579.854 1256.55C580.815 1256.55 581.666 1256.21 582.278 1255.46L580.73 1254.2C580.549 1254.42 580.3 1254.55 579.854 1254.55V1256.55ZM582.261 1255.48C582.886 1254.76 583.131 1253.81 583.131 1252.78H581.131C581.131 1253.51 580.958 1253.93 580.747 1254.18L582.261 1255.48ZM582.131 1253.78H587.609V1251.78H582.131V1253.78ZM573.759 1259.71V1235.95H571.759V1259.71H573.759ZM572.759 1236.95H578.237V1234.95H572.759V1236.95ZM577.237 1235.95V1259.71H579.237V1235.95H577.237ZM578.237 1258.71H572.759V1260.71H578.237V1258.71ZM595.576 1259.71H594.576V1260.71H595.576V1259.71ZM595.576 1255.55V1254.55H594.576V1255.55H595.576ZM603.958 1255.55H604.958V1254.55H603.958V1255.55ZM603.958 1259.71V1260.71H604.958V1259.71H603.958ZM595.576 1249.91H594.576V1250.91H595.576V1249.91ZM595.576 1245.75V1244.75H594.576V1245.75H595.576ZM601.978 1245.75H602.978V1244.75H601.978V1245.75ZM601.978 1249.91V1250.91H602.978V1249.91H601.978ZM591.418 1235.95V1234.95H590.418V1235.95H591.418ZM596.896 1235.95H597.896V1234.95H596.896V1235.95ZM596.896 1259.71V1260.71H597.896V1259.71H596.896ZM591.418 1259.71H590.418V1260.71H591.418V1259.71ZM595.906 1235.95V1234.95H594.906V1235.95H595.906ZM603.628 1235.95H604.628V1234.95H603.628V1235.95ZM603.628 1240.11V1241.11H604.628V1240.11H603.628ZM595.906 1240.11H594.906V1241.11H595.906V1240.11ZM596.576 1259.71V1255.55H594.576V1259.71H596.576ZM595.576 1256.55H603.958V1254.55H595.576V1256.55ZM602.958 1255.55V1259.71H604.958V1255.55H602.958ZM603.958 1258.71H595.576V1260.71H603.958V1258.71ZM596.576 1249.91V1245.75H594.576V1249.91H596.576ZM595.576 1246.75H601.978V1244.75H595.576V1246.75ZM600.978 1245.75V1249.91H602.978V1245.75H600.978ZM601.978 1248.91H595.576V1250.91H601.978V1248.91ZM591.418 1236.95H596.896V1234.95H591.418V1236.95ZM595.896 1235.95V1259.71H597.896V1235.95H595.896ZM596.896 1258.71H591.418V1260.71H596.896V1258.71ZM592.418 1259.71V1235.95H590.418V1259.71H592.418ZM595.906 1236.95H603.628V1234.95H595.906V1236.95ZM602.628 1235.95V1240.11H604.628V1235.95H602.628ZM603.628 1239.11H595.906V1241.11H603.628V1239.11ZM596.906 1240.11V1235.95H594.906V1240.11H596.906ZM616.612 1253.97H615.612V1254.97H616.612V1253.97ZM615.886 1252.12L615.164 1252.81L615.164 1252.81L615.886 1252.12ZM614.005 1250.7L613.48 1251.55L613.494 1251.56L613.509 1251.57L614.005 1250.7ZM611.596 1249.28L611.088 1250.15L611.097 1250.15L611.105 1250.16L611.596 1249.28ZM609.154 1247.54L608.493 1248.29L608.498 1248.29L608.504 1248.3L609.154 1247.54ZM607.306 1245.13L608.197 1244.67L608.197 1244.67L607.306 1245.13ZM606.58 1241.66V1240.66H605.58V1241.66H606.58ZM612.058 1241.66H613.058V1240.66H612.058V1241.66ZM612.784 1243.51L612.047 1244.19L612.054 1244.19L612.062 1244.2L612.784 1243.51ZM614.632 1244.96L614.107 1245.81L614.121 1245.82L614.136 1245.83L614.632 1244.96ZM617.074 1246.38L616.566 1247.24L616.575 1247.25L616.583 1247.25L617.074 1246.38ZM619.483 1248.1L618.822 1248.85L618.827 1248.85L618.833 1248.86L619.483 1248.1ZM621.364 1250.51L620.474 1250.96L620.474 1250.96L621.364 1250.51ZM622.09 1253.97V1254.97H623.09V1253.97H622.09ZM606.58 1241.69H605.58V1242.69H606.58V1241.69ZM607.603 1238.49L608.408 1239.09L608.415 1239.08L607.603 1238.49ZM610.375 1236.25L610.802 1237.15L610.802 1237.15L610.375 1236.25ZM614.335 1235.42H615.335V1234.42H614.335V1235.42ZM614.335 1239.58V1240.58H615.335V1239.58H614.335ZM612.652 1240.14L611.986 1239.4L611.976 1239.41L611.966 1239.42L612.652 1240.14ZM612.058 1241.69V1242.69H613.058V1241.69H612.058ZM622.09 1253.97H623.09V1252.97H622.09V1253.97ZM621.067 1257.2L621.872 1257.8L621.879 1257.79L621.067 1257.2ZM614.335 1260.24H613.335V1261.24H614.335V1260.24ZM614.335 1256.08V1255.08H613.335V1256.08H614.335ZM615.985 1255.52L615.319 1254.78L615.309 1254.79L615.299 1254.79L615.985 1255.52ZM616.612 1253.97V1252.97H615.612V1253.97H616.612ZM616.447 1242.19L615.456 1242.32L615.593 1243.36L616.624 1243.17L616.447 1242.19ZM615.721 1240.28L614.926 1240.88L614.942 1240.9L614.959 1240.92L615.721 1240.28ZM614.335 1239.58H613.335V1240.58H614.335V1239.58ZM614.335 1235.42V1234.42H613.335V1235.42H614.335ZM617.635 1236.12L617.197 1237.02L617.205 1237.02L617.635 1236.12ZM620.011 1238.13L620.831 1237.56L620.831 1237.56L620.011 1238.13ZM621.232 1241.33L621.409 1242.32L622.373 1242.14L622.22 1241.18L621.232 1241.33ZM611.365 1252.16L612.364 1252.1L612.304 1250.98L611.193 1251.17L611.365 1252.16ZM612.256 1255.06L611.456 1255.66L611.461 1255.67L611.466 1255.67L612.256 1255.06ZM614.335 1256.08H615.335V1255.08H614.335V1256.08ZM614.335 1260.24V1261.24H615.335V1260.24H614.335ZM608.857 1258.33L609.535 1257.59L609.535 1257.59L608.857 1258.33ZM606.448 1253.01L606.276 1252.03L605.364 1252.19L605.453 1253.11L606.448 1253.01ZM617.612 1253.97C617.612 1253 617.278 1252.13 616.609 1251.43L615.164 1252.81C615.463 1253.13 615.612 1253.49 615.612 1253.97H617.612ZM616.609 1251.43C616.043 1250.84 615.334 1250.31 614.502 1249.84L613.509 1251.57C614.217 1251.98 614.761 1252.39 615.164 1252.81L616.609 1251.43ZM614.531 1249.85C613.77 1249.38 612.956 1248.9 612.088 1248.41L611.105 1250.16C611.953 1250.63 612.744 1251.1 613.48 1251.55L614.531 1249.85ZM612.104 1248.42C611.298 1247.95 610.531 1247.4 609.805 1246.78L608.504 1248.3C609.317 1248.99 610.179 1249.61 611.088 1250.15L612.104 1248.42ZM609.816 1246.79C609.168 1246.21 608.627 1245.51 608.197 1244.67L606.416 1245.58C606.953 1246.63 607.645 1247.54 608.493 1248.29L609.816 1246.79ZM608.197 1244.67C607.802 1243.9 607.58 1242.91 607.58 1241.66H605.58C605.58 1243.14 605.842 1244.46 606.416 1245.58L608.197 1244.67ZM606.58 1242.66H612.058V1240.66H606.58V1242.66ZM611.058 1241.66C611.058 1242.62 611.397 1243.48 612.047 1244.19L613.522 1242.83C613.203 1242.49 613.058 1242.11 613.058 1241.66H611.058ZM612.062 1244.2C612.617 1244.78 613.304 1245.32 614.107 1245.81L615.158 1244.11C614.465 1243.68 613.92 1243.25 613.507 1242.82L612.062 1244.2ZM614.136 1245.83C614.902 1246.27 615.712 1246.74 616.566 1247.24L617.582 1245.52C616.721 1245.01 615.903 1244.54 615.129 1244.09L614.136 1245.83ZM616.583 1247.25C617.379 1247.7 618.125 1248.23 618.822 1248.85L620.145 1247.35C619.345 1246.64 618.485 1246.03 617.566 1245.51L616.583 1247.25ZM618.833 1248.86C619.499 1249.43 620.047 1250.13 620.474 1250.96L622.255 1250.05C621.714 1248.99 621.008 1248.09 620.134 1247.34L618.833 1248.86ZM620.474 1250.96C620.868 1251.73 621.09 1252.72 621.09 1253.97H623.09C623.09 1252.49 622.828 1251.17 622.255 1250.05L620.474 1250.96ZM622.09 1252.97H616.612V1254.97H622.09V1252.97ZM607.58 1241.69C607.58 1240.69 607.86 1239.83 608.408 1239.09L606.799 1237.9C605.983 1239.01 605.58 1240.28 605.58 1241.69H607.58ZM608.415 1239.08C608.987 1238.28 609.773 1237.64 610.802 1237.15L609.949 1235.35C608.646 1235.96 607.583 1236.81 606.792 1237.91L608.415 1239.08ZM610.802 1237.15C611.817 1236.68 612.988 1236.42 614.335 1236.42V1234.42C612.735 1234.42 611.266 1234.72 609.949 1235.35L610.802 1237.15ZM613.335 1235.42V1239.58H615.335V1235.42H613.335ZM614.335 1238.58C613.45 1238.58 612.63 1238.82 611.986 1239.4L613.319 1240.89C613.51 1240.72 613.812 1240.58 614.335 1240.58V1238.58ZM611.966 1239.42C611.328 1240.02 611.058 1240.82 611.058 1241.69H613.058C613.058 1241.25 613.184 1241.02 613.339 1240.87L611.966 1239.42ZM612.058 1240.69H606.58V1242.69H612.058V1240.69ZM621.09 1253.97C621.09 1254.98 620.811 1255.85 620.256 1256.62L621.879 1257.79C622.688 1256.67 623.09 1255.38 623.09 1253.97H621.09ZM620.263 1256.61C619.691 1257.39 618.904 1258.02 617.869 1258.51L618.722 1260.32C620.019 1259.71 621.08 1258.87 621.872 1257.8L620.263 1256.61ZM617.869 1258.51C616.854 1258.99 615.683 1259.24 614.335 1259.24V1261.24C615.936 1261.24 617.405 1260.94 618.722 1260.32L617.869 1258.51ZM615.335 1260.24V1256.08H613.335V1260.24H615.335ZM614.335 1257.08C615.217 1257.08 616.041 1256.84 616.672 1256.25L615.299 1254.79C615.138 1254.95 614.861 1255.08 614.335 1255.08V1257.08ZM616.652 1256.27C617.32 1255.67 617.612 1254.86 617.612 1253.97H615.612C615.612 1254.4 615.487 1254.63 615.319 1254.78L616.652 1256.27ZM616.612 1254.97H622.09V1252.97H616.612V1254.97ZM617.439 1242.06C617.315 1241.12 617.027 1240.27 616.483 1239.63L614.959 1240.92C615.164 1241.16 615.36 1241.59 615.456 1242.32L617.439 1242.06ZM616.517 1239.67C615.979 1238.96 615.225 1238.58 614.335 1238.58V1240.58C614.59 1240.58 614.76 1240.66 614.926 1240.88L616.517 1239.67ZM615.335 1239.58V1235.42H613.335V1239.58H615.335ZM614.335 1236.42C615.466 1236.42 616.411 1236.63 617.197 1237.02L618.074 1235.22C616.968 1234.68 615.713 1234.42 614.335 1234.42V1236.42ZM617.205 1237.02C618.017 1237.41 618.675 1237.97 619.192 1238.7L620.831 1237.56C620.116 1236.54 619.19 1235.75 618.066 1235.22L617.205 1237.02ZM619.192 1238.7C619.707 1239.44 620.066 1240.36 620.245 1241.49L622.22 1241.18C622.003 1239.8 621.548 1238.58 620.831 1237.56L619.192 1238.7ZM621.056 1240.35L616.271 1241.21L616.624 1243.17L621.409 1242.32L621.056 1240.35ZM610.367 1252.21C610.439 1253.56 610.771 1254.75 611.456 1255.66L613.056 1254.46C612.686 1253.97 612.423 1253.21 612.364 1252.1L610.367 1252.21ZM611.466 1255.67C612.182 1256.6 613.166 1257.08 614.335 1257.08V1255.08C613.789 1255.08 613.387 1254.89 613.047 1254.45L611.466 1255.67ZM613.335 1256.08V1260.24H615.335V1256.08H613.335ZM614.335 1259.24C612.267 1259.24 610.7 1258.66 609.535 1257.59L608.18 1259.06C609.787 1260.54 611.872 1261.24 614.335 1261.24V1259.24ZM609.535 1257.59C608.366 1256.51 607.645 1254.99 607.444 1252.92L605.453 1253.11C605.692 1255.57 606.577 1257.59 608.18 1259.06L609.535 1257.59ZM606.62 1254L611.537 1253.14L611.193 1251.17L606.276 1252.03L606.62 1254ZM625.554 1259.71H624.554V1260.71H625.554V1259.71ZM625.554 1235.95V1234.95H624.554V1235.95H625.554ZM631.032 1235.95H632.032V1234.95H631.032V1235.95ZM631.032 1259.71V1260.71H632.032V1259.71H631.032ZM626.554 1259.71V1235.95H624.554V1259.71H626.554ZM625.554 1236.95H631.032V1234.95H625.554V1236.95ZM630.032 1235.95V1259.71H632.032V1235.95H630.032ZM631.032 1258.71H625.554V1260.71H631.032V1258.71ZM642.241 1250.51H641.241V1251.51H642.241V1250.51ZM642.241 1246.35V1245.35H641.241V1246.35H642.241ZM650.458 1246.35H651.458V1245.35H650.458V1246.35ZM650.458 1250.51V1251.51H651.458V1250.51H650.458ZM644.98 1253.34H643.98V1254.34H644.98V1253.34ZM644.98 1246.45V1245.45H643.98V1246.45H644.98ZM650.458 1246.45H651.458V1245.45H650.458V1246.45ZM650.458 1253.34V1254.34H651.458V1253.34H650.458ZM634.981 1253.34H633.981V1254.34H634.981V1253.34ZM634.981 1242.32V1241.32H633.981V1242.32H634.981ZM640.459 1242.32H641.459V1241.32H640.459V1242.32ZM640.459 1253.34V1254.34H641.459V1253.34H640.459ZM634.981 1242.35H633.981V1243.35H634.981V1242.35ZM636.004 1238.82L636.838 1239.37L636.844 1239.37L636.004 1238.82ZM638.776 1236.35L639.229 1237.24L639.236 1237.24L639.243 1237.23L638.776 1236.35ZM642.736 1235.42H643.736V1234.42H642.736V1235.42ZM642.736 1239.58V1240.58H643.736V1239.58H642.736ZM641.053 1240.31L640.296 1239.66L640.287 1239.67L640.279 1239.68L641.053 1240.31ZM640.459 1242.35V1243.35H641.459V1242.35H640.459ZM634.981 1253.31V1252.31H633.981V1253.31H634.981ZM640.459 1253.31H641.459V1252.31H640.459V1253.31ZM641.053 1255.36L640.279 1255.99L640.287 1256L640.296 1256.01L641.053 1255.36ZM642.736 1256.08H643.736V1255.08H642.736V1256.08ZM642.736 1260.24V1261.24H643.736V1260.24H642.736ZM638.776 1259.35L638.308 1260.23L638.315 1260.24L638.322 1260.24L638.776 1259.35ZM636.004 1256.87L635.163 1257.42L635.169 1257.43L636.004 1256.87ZM645.673 1243.51L644.674 1243.56L644.734 1244.69L645.844 1244.49L645.673 1243.51ZM644.782 1240.64L643.982 1241.24L643.986 1241.24L643.991 1241.25L644.782 1240.64ZM642.703 1239.58H641.703V1240.58H642.703V1239.58ZM642.703 1235.42V1234.42H641.703V1235.42H642.703ZM648.181 1237.34L647.503 1238.07L647.51 1238.08L648.181 1237.34ZM650.59 1242.65L650.761 1243.64L651.674 1243.48L651.585 1242.56L650.59 1242.65ZM650.458 1253.31H651.458V1252.31H650.458V1253.31ZM649.435 1256.87L650.269 1257.43L650.275 1257.42L649.435 1256.87ZM646.663 1259.35L647.116 1260.24L647.123 1260.24L647.13 1260.23L646.663 1259.35ZM642.703 1260.24H641.703V1261.24H642.703V1260.24ZM642.703 1256.08V1255.08H641.703V1256.08H642.703ZM644.353 1255.36L643.596 1254.7L643.587 1254.71L643.579 1254.72L644.353 1255.36ZM644.98 1253.31V1252.31H643.98V1253.31H644.98ZM643.241 1250.51V1246.35H641.241V1250.51H643.241ZM642.241 1247.35H650.458V1245.35H642.241V1247.35ZM649.458 1246.35V1250.51H651.458V1246.35H649.458ZM650.458 1249.51H642.241V1251.51H650.458V1249.51ZM645.98 1253.34V1246.45H643.98V1253.34H645.98ZM644.98 1247.45H650.458V1245.45H644.98V1247.45ZM649.458 1246.45V1253.34H651.458V1246.45H649.458ZM650.458 1252.34H644.98V1254.34H650.458V1252.34ZM635.981 1253.34V1242.32H633.981V1253.34H635.981ZM634.981 1243.32H640.459V1241.32H634.981V1243.32ZM639.459 1242.32V1253.34H641.459V1242.32H639.459ZM640.459 1252.34H634.981V1254.34H640.459V1252.34ZM635.981 1242.35C635.981 1241.22 636.271 1240.23 636.838 1239.37L635.169 1238.27C634.372 1239.48 633.981 1240.85 633.981 1242.35H635.981ZM636.844 1239.37C637.426 1238.46 638.214 1237.76 639.229 1237.24L638.322 1235.46C637.005 1236.13 635.945 1237.07 635.163 1238.28L636.844 1239.37ZM639.243 1237.23C640.248 1236.7 641.405 1236.42 642.736 1236.42V1234.42C641.118 1234.42 639.635 1234.76 638.308 1235.46L639.243 1237.23ZM641.736 1235.42V1239.58H643.736V1235.42H641.736ZM642.736 1238.58C641.774 1238.58 640.924 1238.93 640.296 1239.66L641.809 1240.96C642.017 1240.72 642.289 1240.58 642.736 1240.58V1238.58ZM640.279 1239.68C639.687 1240.4 639.459 1241.34 639.459 1242.35H641.459C641.459 1241.61 641.626 1241.19 641.826 1240.94L640.279 1239.68ZM640.459 1241.35H634.981V1243.35H640.459V1241.35ZM634.981 1254.31H640.459V1252.31H634.981V1254.31ZM639.459 1253.31C639.459 1254.33 639.687 1255.27 640.279 1255.99L641.826 1254.72C641.626 1254.48 641.459 1254.05 641.459 1253.31H639.459ZM640.296 1256.01C640.924 1256.74 641.774 1257.08 642.736 1257.08V1255.08C642.289 1255.08 642.017 1254.94 641.809 1254.7L640.296 1256.01ZM641.736 1256.08V1260.24H643.736V1256.08H641.736ZM642.736 1259.24C641.399 1259.24 640.238 1258.97 639.229 1258.46L638.322 1260.24C639.645 1260.92 641.124 1261.24 642.736 1261.24V1259.24ZM639.243 1258.47C638.215 1257.92 637.422 1257.21 636.838 1256.32L635.169 1257.43C635.949 1258.61 637.004 1259.54 638.308 1260.23L639.243 1258.47ZM636.844 1256.33C636.271 1255.45 635.981 1254.45 635.981 1253.31H633.981C633.981 1254.81 634.372 1256.19 635.163 1257.42L636.844 1256.33ZM646.671 1243.46C646.599 1242.11 646.268 1240.92 645.572 1240.03L643.991 1241.25C644.351 1241.72 644.614 1242.45 644.674 1243.56L646.671 1243.46ZM645.582 1240.04C644.87 1239.09 643.885 1238.58 642.703 1238.58V1240.58C643.236 1240.58 643.637 1240.78 643.982 1241.24L645.582 1240.04ZM643.703 1239.58V1235.42H641.703V1239.58H643.703ZM642.703 1236.42C644.771 1236.42 646.338 1237 647.503 1238.07L648.858 1236.6C647.251 1235.12 645.166 1234.42 642.703 1234.42V1236.42ZM647.51 1238.08C648.671 1239.13 649.392 1240.65 649.594 1242.75L651.585 1242.56C651.347 1240.08 650.462 1238.05 648.851 1236.6L647.51 1238.08ZM650.418 1241.67L645.501 1242.52L645.844 1244.49L650.761 1243.64L650.418 1241.67ZM649.458 1253.31C649.458 1254.45 649.167 1255.45 648.594 1256.33L650.275 1257.42C651.066 1256.19 651.458 1254.81 651.458 1253.31H649.458ZM648.6 1256.32C648.016 1257.21 647.223 1257.92 646.195 1258.47L647.13 1260.23C648.434 1259.54 649.489 1258.61 650.269 1257.43L648.6 1256.32ZM646.209 1258.46C645.2 1258.97 644.039 1259.24 642.703 1259.24V1261.24C644.314 1261.24 645.793 1260.92 647.116 1260.24L646.209 1258.46ZM643.703 1260.24V1256.08H641.703V1260.24H643.703ZM642.703 1257.08C643.664 1257.08 644.515 1256.74 645.126 1255.99L643.579 1254.72C643.398 1254.94 643.149 1255.08 642.703 1255.08V1257.08ZM645.109 1256.01C645.735 1255.29 645.98 1254.34 645.98 1253.31H643.98C643.98 1254.04 643.806 1254.46 643.596 1254.7L645.109 1256.01ZM644.98 1254.31H650.458V1252.31H644.98V1254.31ZM664.685 1259.71L663.755 1260.08L664.005 1260.71H664.685V1259.71ZM655.28 1235.95V1234.95H653.808L654.35 1236.32L655.28 1235.95ZM659.9 1235.95L660.829 1235.58L660.579 1234.95H659.9V1235.95ZM669.305 1259.71V1260.71H670.776L670.234 1259.34L669.305 1259.71ZM654.389 1259.71H653.389V1260.71H654.389V1259.71ZM654.389 1235.95V1234.95H653.389V1235.95H654.389ZM659.867 1235.95H660.867V1234.95H659.867V1235.95ZM659.867 1259.71V1260.71H660.867V1259.71H659.867ZM665.972 1259.71H664.972V1260.71H665.972V1259.71ZM665.972 1235.95V1234.95H664.972V1235.95H665.972ZM671.45 1235.95H672.45V1234.95H671.45V1235.95ZM671.45 1259.71V1260.71H672.45V1259.71H671.45ZM665.614 1259.34L656.209 1235.58L654.35 1236.32L663.755 1260.08L665.614 1259.34ZM655.28 1236.95H659.9V1234.95H655.28V1236.95ZM658.97 1236.32L668.375 1260.08L670.234 1259.34L660.829 1235.58L658.97 1236.32ZM669.305 1258.71H664.685V1260.71H669.305V1258.71ZM655.389 1259.71V1235.95H653.389V1259.71H655.389ZM654.389 1236.95H659.867V1234.95H654.389V1236.95ZM658.867 1235.95V1259.71H660.867V1235.95H658.867ZM659.867 1258.71H654.389V1260.71H659.867V1258.71ZM666.972 1259.71V1235.95H664.972V1259.71H666.972ZM665.972 1236.95H671.45V1234.95H665.972V1236.95ZM670.45 1235.95V1259.71H672.45V1235.95H670.45ZM671.45 1258.71H665.972V1260.71H671.45V1258.71ZM675.73 1259.71H674.73V1260.71H675.73V1259.71ZM675.73 1235.95V1234.95H674.73V1235.95H675.73ZM681.208 1235.95H682.208V1234.95H681.208V1235.95ZM681.208 1259.71V1260.71H682.208V1259.71H681.208ZM676.73 1259.71V1235.95H674.73V1259.71H676.73ZM675.73 1236.95H681.208V1234.95H675.73V1236.95ZM680.208 1235.95V1259.71H682.208V1235.95H680.208ZM681.208 1258.71H675.73V1260.71H681.208V1258.71ZM695.783 1259.71L694.853 1260.08L695.104 1260.71H695.783V1259.71ZM686.378 1235.95V1234.95H684.907L685.448 1236.32L686.378 1235.95ZM690.998 1235.95L691.928 1235.58L691.678 1234.95H690.998V1235.95ZM700.403 1259.71V1260.71H701.875L701.333 1259.34L700.403 1259.71ZM685.487 1259.71H684.487V1260.71H685.487V1259.71ZM685.487 1235.95V1234.95H684.487V1235.95H685.487ZM690.965 1235.95H691.965V1234.95H690.965V1235.95ZM690.965 1259.71V1260.71H691.965V1259.71H690.965ZM697.07 1259.71H696.07V1260.71H697.07V1259.71ZM697.07 1235.95V1234.95H696.07V1235.95H697.07ZM702.548 1235.95H703.548V1234.95H702.548V1235.95ZM702.548 1259.71V1260.71H703.548V1259.71H702.548ZM696.713 1259.34L687.308 1235.58L685.448 1236.32L694.853 1260.08L696.713 1259.34ZM686.378 1236.95H690.998V1234.95H686.378V1236.95ZM690.068 1236.32L699.473 1260.08L701.333 1259.34L691.928 1235.58L690.068 1236.32ZM700.403 1258.71H695.783V1260.71H700.403V1258.71ZM686.487 1259.71V1235.95H684.487V1259.71H686.487ZM685.487 1236.95H690.965V1234.95H685.487V1236.95ZM689.965 1235.95V1259.71H691.965V1235.95H689.965ZM690.965 1258.71H685.487V1260.71H690.965V1258.71ZM698.07 1259.71V1235.95H696.07V1259.71H698.07ZM697.07 1236.95H702.548V1234.95H697.07V1236.95ZM701.548 1235.95V1259.71H703.548V1235.95H701.548ZM702.548 1258.71H697.07V1260.71H702.548V1258.71ZM713.429 1250.51H712.429V1251.51H713.429V1250.51ZM713.429 1246.35V1245.35H712.429V1246.35H713.429ZM721.646 1246.35H722.646V1245.35H721.646V1246.35ZM721.646 1250.51V1251.51H722.646V1250.51H721.646ZM716.168 1253.34H715.168V1254.34H716.168V1253.34ZM716.168 1246.45V1245.45H715.168V1246.45H716.168ZM721.646 1246.45H722.646V1245.45H721.646V1246.45ZM721.646 1253.34V1254.34H722.646V1253.34H721.646ZM706.169 1253.34H705.169V1254.34H706.169V1253.34ZM706.169 1242.32V1241.32H705.169V1242.32H706.169ZM711.647 1242.32H712.647V1241.32H711.647V1242.32ZM711.647 1253.34V1254.34H712.647V1253.34H711.647ZM706.169 1242.35H705.169V1243.35H706.169V1242.35ZM707.192 1238.82L708.027 1239.37L708.032 1239.37L707.192 1238.82ZM709.964 1236.35L710.418 1237.24L710.425 1237.24L710.431 1237.23L709.964 1236.35ZM713.924 1235.42H714.924V1234.42H713.924V1235.42ZM713.924 1239.58V1240.58H714.924V1239.58H713.924ZM712.241 1240.31L711.484 1239.66L711.475 1239.67L711.467 1239.68L712.241 1240.31ZM711.647 1242.35V1243.35H712.647V1242.35H711.647ZM706.169 1253.31V1252.31H705.169V1253.31H706.169ZM711.647 1253.31H712.647V1252.31H711.647V1253.31ZM712.241 1255.36L711.467 1255.99L711.475 1256L711.484 1256.01L712.241 1255.36ZM713.924 1256.08H714.924V1255.08H713.924V1256.08ZM713.924 1260.24V1261.24H714.924V1260.24H713.924ZM709.964 1259.35L709.497 1260.23L709.503 1260.24L709.51 1260.24L709.964 1259.35ZM707.192 1256.87L706.352 1257.42L706.357 1257.43L707.192 1256.87ZM716.861 1243.51L715.862 1243.56L715.923 1244.69L717.033 1244.49L716.861 1243.51ZM715.97 1240.64L715.17 1241.24L715.175 1241.24L715.179 1241.25L715.97 1240.64ZM713.891 1239.58H712.891V1240.58H713.891V1239.58ZM713.891 1235.42V1234.42H712.891V1235.42H713.891ZM719.369 1237.34L718.692 1238.07L718.698 1238.08L719.369 1237.34ZM721.778 1242.65L721.95 1243.64L722.862 1243.48L722.773 1242.56L721.778 1242.65ZM721.646 1253.31H722.646V1252.31H721.646V1253.31ZM720.623 1256.87L721.458 1257.43L721.463 1257.42L720.623 1256.87ZM717.851 1259.35L718.305 1260.24L718.312 1260.24L718.318 1260.23L717.851 1259.35ZM713.891 1260.24H712.891V1261.24H713.891V1260.24ZM713.891 1256.08V1255.08H712.891V1256.08H713.891ZM715.541 1255.36L714.784 1254.7L714.775 1254.71L714.767 1254.72L715.541 1255.36ZM716.168 1253.31V1252.31H715.168V1253.31H716.168ZM714.429 1250.51V1246.35H712.429V1250.51H714.429ZM713.429 1247.35H721.646V1245.35H713.429V1247.35ZM720.646 1246.35V1250.51H722.646V1246.35H720.646ZM721.646 1249.51H713.429V1251.51H721.646V1249.51ZM717.168 1253.34V1246.45H715.168V1253.34H717.168ZM716.168 1247.45H721.646V1245.45H716.168V1247.45ZM720.646 1246.45V1253.34H722.646V1246.45H720.646ZM721.646 1252.34H716.168V1254.34H721.646V1252.34ZM707.169 1253.34V1242.32H705.169V1253.34H707.169ZM706.169 1243.32H711.647V1241.32H706.169V1243.32ZM710.647 1242.32V1253.34H712.647V1242.32H710.647ZM711.647 1252.34H706.169V1254.34H711.647V1252.34ZM707.169 1242.35C707.169 1241.22 707.46 1240.23 708.027 1239.37L706.357 1238.27C705.56 1239.48 705.169 1240.85 705.169 1242.35H707.169ZM708.032 1239.37C708.614 1238.46 709.402 1237.76 710.418 1237.24L709.51 1235.46C708.194 1236.13 707.134 1237.07 706.352 1238.28L708.032 1239.37ZM710.431 1237.23C711.437 1236.7 712.593 1236.42 713.924 1236.42V1234.42C712.307 1234.42 710.823 1234.76 709.497 1235.46L710.431 1237.23ZM712.924 1235.42V1239.58H714.924V1235.42H712.924ZM713.924 1238.58C712.962 1238.58 712.113 1238.93 711.484 1239.66L712.998 1240.96C713.205 1240.72 713.478 1240.58 713.924 1240.58V1238.58ZM711.467 1239.68C710.875 1240.4 710.647 1241.34 710.647 1242.35H712.647C712.647 1241.61 712.815 1241.19 713.015 1240.94L711.467 1239.68ZM711.647 1241.35H706.169V1243.35H711.647V1241.35ZM706.169 1254.31H711.647V1252.31H706.169V1254.31ZM710.647 1253.31C710.647 1254.33 710.875 1255.27 711.467 1255.99L713.015 1254.72C712.815 1254.48 712.647 1254.05 712.647 1253.31H710.647ZM711.484 1256.01C712.113 1256.74 712.962 1257.08 713.924 1257.08V1255.08C713.478 1255.08 713.205 1254.94 712.998 1254.7L711.484 1256.01ZM712.924 1256.08V1260.24H714.924V1256.08H712.924ZM713.924 1259.24C712.588 1259.24 711.426 1258.97 710.418 1258.46L709.51 1260.24C710.834 1260.92 712.312 1261.24 713.924 1261.24V1259.24ZM710.431 1258.47C709.404 1257.92 708.61 1257.21 708.027 1256.32L706.357 1257.43C707.138 1258.61 708.192 1259.54 709.497 1260.23L710.431 1258.47ZM708.032 1256.33C707.46 1255.45 707.169 1254.45 707.169 1253.31H705.169C705.169 1254.81 705.56 1256.19 706.352 1257.42L708.032 1256.33ZM717.86 1243.46C717.787 1242.11 717.456 1240.92 716.761 1240.03L715.179 1241.25C715.54 1241.72 715.803 1242.45 715.862 1243.56L717.86 1243.46ZM716.77 1240.04C716.059 1239.09 715.073 1238.58 713.891 1238.58V1240.58C714.425 1240.58 714.825 1240.78 715.17 1241.24L716.77 1240.04ZM714.891 1239.58V1235.42H712.891V1239.58H714.891ZM713.891 1236.42C715.96 1236.42 717.526 1237 718.692 1238.07L720.046 1236.6C718.44 1235.12 716.354 1234.42 713.891 1234.42V1236.42ZM718.698 1238.08C719.859 1239.13 720.581 1240.65 720.783 1242.75L722.773 1242.56C722.535 1240.08 721.651 1238.05 720.04 1236.6L718.698 1238.08ZM721.606 1241.67L716.689 1242.52L717.033 1244.49L721.95 1243.64L721.606 1241.67ZM720.646 1253.31C720.646 1254.45 720.355 1255.45 719.783 1256.33L721.463 1257.42C722.255 1256.19 722.646 1254.81 722.646 1253.31H720.646ZM719.788 1256.32C719.205 1257.21 718.411 1257.92 717.384 1258.47L718.318 1260.23C719.623 1259.54 720.677 1258.61 721.458 1257.43L719.788 1256.32ZM717.397 1258.46C716.389 1258.97 715.227 1259.24 713.891 1259.24V1261.24C715.503 1261.24 716.981 1260.92 718.305 1260.24L717.397 1258.46ZM714.891 1260.24V1256.08H712.891V1260.24H714.891ZM713.891 1257.08C714.852 1257.08 715.704 1256.74 716.315 1255.99L714.767 1254.72C714.586 1254.94 714.338 1255.08 713.891 1255.08V1257.08ZM716.298 1256.01C716.923 1255.29 717.168 1254.34 717.168 1253.31H715.168C715.168 1254.04 714.995 1254.46 714.784 1254.7L716.298 1256.01ZM716.168 1254.31H721.646V1252.31H716.168V1254.31Z" fill="#FFD5D5"/>
<defs>
<filter id="filter0_f_252_1151" x="-83" y="-422" width="885" height="846" filterUnits="userSpaceOnUse" color-interpolation-filters="sRGB">
<feFlood flood-opacity="0" result="BackgroundImageFix"/>
<feBlend mode="normal" in="SourceGraphic" in2="BackgroundImageFix" result="shape"/>
<feGaussianBlur stdDeviation="100" result="effect1_foregroundBlur_252_1151"/>
</filter>
<filter id="filter1_f_252_1151" x="947" y="623" width="885" height="846" filterUnits="userSpaceOnUse" color-interpolation-filters="sRGB">
<feFlood flood-opacity="0" result="BackgroundImageFix"/>
<feBlend mode="normal" in="SourceGraphic" in2="BackgroundImageFix" result="shape"/>
<feGaussianBlur stdDeviation="100" result="effect1_foregroundBlur_252_1151"/>
</filter>
<filter id="filter2_f_252_1151" x="856" y="1601" width="885" height="846" filterUnits="userSpaceOnUse" color-interpolation-filters="sRGB">
<feFlood flood-opacity="0" result="BackgroundImageFix"/>
<feBlend mode="normal" in="SourceGraphic" in2="BackgroundImageFix" result="shape"/>
<feGaussianBlur stdDeviation="100" result="effect1_foregroundBlur_252_1151"/>
</filter>
<filter id="filter3_f_252_1151" x="-296.001" y="71.0876" width="1643.13" height="2060.1" filterUnits="userSpaceOnUse" color-interpolation-filters="sRGB">
<feFlood flood-opacity="0" result="BackgroundImageFix"/>
<feBlend mode="normal" in="SourceGraphic" in2="BackgroundImageFix" result="shape"/>
<feGaussianBlur stdDeviation="100" result="effect1_foregroundBlur_252_1151"/>
</filter>
<clipPath id="clip0_252_1151">
<rect width="1444.94" height="2181" fill="white"/>
</clipPath>
</defs>
</svg>
