<svg width="175" height="82" viewBox="0 0 175 82" fill="none" xmlns="http://www.w3.org/2000/svg">
<path d="M34.8101 45.6757L57.9019 45.0991V40.4865H65.4843V36.4505H73.4113V31.8378H92.712V27.2252H100.294V22.6126H104.775V18.5766L143.031 18V23.1892H147.167V23.7658V27.8018H150.959V31.8378H154.75V36.4505H158.541V41.0631H166.468V45.0991H174.395V54.3243H170.604V54.9009V58.9369H166.468V63.5495L158.886 62.973V67.009H150.959V72.1982H147.512V76.8108L116.148 77.3874V81.4234L85.1296 82V76.8108H73.4113V72.1982H42.3925V68.1622H30.6742V62.973H11.3736V58.9369H0V49.1351H15.1648V54.3243H23.0918V53.7477V50.2883H34.8101V45.6757Z" fill="#A5409D"/>
<path d="M13.7402 48.802H20.8888H21.6413V45.1287H26.1561V41.2407H38.9483V36.7327H43.087V33.0594H55.5029V24.6634H59.6416V20.4653H64.1565V19.9406V16.2673H72.81V12.0693H76.9487V8.39604H81.0873V4.19802H81.4635H89.7408V0H106.295V3.67327H106.92H114.573V8.39604H119.088V12.5941H123.226V16.2673H144.296V20.4653H148.811V24.1386H152.949V27.8119H157.464V32.5347H162.355V40.4059H170.633V45.1287H174.395V49.3267H169.88V45.1287H161.603V40.9307H157.088V36.7327H156.335H152.949V32.5347H148.434V28.8614H143.92V24.6634H102.157V28.8614H98.0181V32.5347H89.3646L89.7408 36.7327H68.6714V40.9307H60.0178V44.604H51.3643V48.802H50.2356H25.7799V53H13.7402V48.802Z" fill="#E7C06C"/>
<path d="M85.6121 62.3846H97.2384V59H109.217V62.3846H113.093V59H117.32V62.3846H121.548V70H85.6121V62.3846Z" fill="#E7C06C"/>
</svg>
