<svg width="1505" height="1149" viewBox="0 0 1505 1149" fill="none" xmlns="http://www.w3.org/2000/svg">
<circle cx="1" cy="83" r="1" fill="#D9D9D9"/>
<circle cx="280" cy="250" r="5" fill="#7B487B"/>
<circle cx="270" cy="338" r="5" fill="#E464D8"/>
<circle cx="270" cy="338" r="5" fill="#E7C06C"/>
<circle opacity="0.2" cx="232" cy="201" r="5" fill="#E7C06C"/>
<circle cx="311" cy="432" r="5" fill="#E7C06C"/>
<circle cx="190" cy="392" r="5" fill="#E7C06C"/>
<circle cx="137" cy="311" r="5" fill="#E7C06C"/>
<circle cx="122" cy="726" r="5" fill="#E464D8"/>
<circle cx="91" cy="642" r="5" fill="#E464D8"/>
<circle cx="249" cy="782" r="5" fill="#E464D8"/>
<circle cx="220" cy="978" r="5" fill="#E464D8"/>
<circle cx="162" cy="914" r="5" fill="#E464D8"/>
<circle cx="53" cy="837" r="5" fill="#E464D8"/>
<circle cx="212" cy="458" r="5" fill="#E464D8"/>
<circle cx="53" cy="277" r="5" fill="#E464D8"/>
<circle cx="38" cy="561" r="5" fill="#A59ED8"/>
<circle cx="58" cy="376" r="5" fill="#A59ED8"/>
<circle cx="86" cy="772" r="5" fill="#A59ED8"/>
<circle cx="96" cy="583" r="5" fill="#A59ED8"/>
<circle cx="53" cy="919" r="5" fill="#A59ED8"/>
<circle cx="244" cy="493" r="5" fill="#A59ED8"/>
<circle cx="244" cy="387" r="5" fill="#A59ED8"/>
<circle cx="157" cy="427" r="5" fill="#A59ED8"/>
<circle cx="126" cy="381" r="5" fill="#A59ED8"/>
<circle cx="132" cy="196" r="5" fill="#E464D8"/>
<circle cx="337" cy="381" r="5" fill="#E464D8"/>
<circle cx="91" cy="338" r="5" fill="#E464D8"/>
<circle cx="195" cy="699" r="5" fill="#E7C06C"/>
<circle cx="167" cy="620" r="5" fill="#E7C06C"/>
<circle cx="167" cy="620" r="5" fill="#E7C06C"/>
<circle cx="93" cy="255" r="5" fill="#A59ED8"/>
<circle cx="43" cy="165" r="5" fill="#E464D8"/>
<circle cx="71" cy="105" r="5" fill="#E7C06C"/>
<circle cx="88" cy="196" r="5" fill="#A59ED8"/>
<circle cx="25" cy="132" r="5" fill="#E464D8"/>
<circle cx="180" cy="348" r="5" fill="#E464D8"/>
<circle cx="180" cy="348" r="5" fill="#E464D8"/>
<circle cx="184" cy="552" r="5" fill="#E7C06C"/>
<circle cx="120" cy="541" r="5" fill="#A59ED8"/>
<circle cx="174" cy="508" r="5" fill="#E464D8"/>
<circle cx="270" cy="605" r="5" fill="#E7C06C"/>
<circle cx="206" cy="594" r="5" fill="#A59ED8"/>
<circle cx="260" cy="561" r="5" fill="#E464D8"/>
<circle cx="303" cy="702" r="5" fill="#E7C06C"/>
<circle cx="239" cy="691" r="5" fill="#A59ED8"/>
<circle cx="293" cy="658" r="5" fill="#E464D8"/>
<circle cx="254" cy="434" r="5" fill="#E7C06C"/>
<circle cx="234" cy="292" r="5" fill="#A59ED8"/>
<circle cx="190" cy="215" r="5" fill="#A59ED8"/>
<circle cx="170" cy="253" r="5" fill="#E464D8"/>
<circle cx="81" cy="448" r="5" fill="#E464D8"/>
<circle cx="225" cy="912" r="5" fill="#E7C06C"/>
<circle cx="225" cy="912" r="5" fill="#E7C06C"/>
<circle cx="101" cy="886" r="5" fill="#E7C06C"/>
<circle cx="203" cy="832" r="5" fill="#E7C06C"/>
<circle cx="63" cy="1011" r="5" fill="#E7C06C"/>
<circle cx="48" cy="699" r="5" fill="#E7C06C"/>
<path d="M146 825.5C146 828.261 143.761 830.5 141 830.5C138.239 830.5 136 828.261 136 825.5C136 822.739 138.239 820.5 141 820.5C143.761 820.5 146 822.739 146 825.5Z" fill="#A59ED8"/>
<path d="M131 956C131 958.761 128.761 961 126 961C123.239 961 121 958.761 121 956C121 953.239 123.239 951 126 951C128.761 951 131 953.239 131 956Z" fill="#A59ED8"/>
<path d="M276 835.5C276 838.261 273.761 840.5 271 840.5C268.239 840.5 266 838.261 266 835.5C266 832.739 268.239 830.5 271 830.5C273.761 830.5 276 832.739 276 835.5Z" fill="#A59ED8"/>
<path d="M192.5 749C192.5 751.761 190.261 754 187.5 754C184.739 754 182.5 751.761 182.5 749C182.5 746.239 184.739 744 187.5 744C190.261 744 192.5 746.239 192.5 749Z" fill="#A59ED8"/>
<path d="M146 825.5C146 828.261 143.761 830.5 141 830.5C138.239 830.5 136 828.261 136 825.5C136 822.739 138.239 820.5 141 820.5C143.761 820.5 146 822.739 146 825.5Z" fill="#A59ED8"/>
<path d="M131 956C131 958.761 128.761 961 126 961C123.239 961 121 958.761 121 956C121 953.239 123.239 951 126 951C128.761 951 131 953.239 131 956Z" fill="#A59ED8"/>
<path d="M276 835.5C276 838.261 273.761 840.5 271 840.5C268.239 840.5 266 838.261 266 835.5C266 832.739 268.239 830.5 271 830.5C273.761 830.5 276 832.739 276 835.5Z" fill="#A59ED8"/>
<path d="M192.5 749C192.5 751.761 190.261 754 187.5 754C184.739 754 182.5 751.761 182.5 749C182.5 746.239 184.739 744 187.5 744C190.261 744 192.5 746.239 192.5 749Z" fill="#A59ED8"/>
<path d="M146 825.5C146 828.261 143.761 830.5 141 830.5C138.239 830.5 136 828.261 136 825.5C136 822.739 138.239 820.5 141 820.5C143.761 820.5 146 822.739 146 825.5Z" fill="#A59ED8"/>
<path d="M131 956C131 958.761 128.761 961 126 961C123.239 961 121 958.761 121 956C121 953.239 123.239 951 126 951C128.761 951 131 953.239 131 956Z" fill="#A59ED8"/>
<path d="M276 835.5C276 838.261 273.761 840.5 271 840.5C268.239 840.5 266 838.261 266 835.5C266 832.739 268.239 830.5 271 830.5C273.761 830.5 276 832.739 276 835.5Z" fill="#A59ED8"/>
<path d="M192.5 749C192.5 751.761 190.261 754 187.5 754C184.739 754 182.5 751.761 182.5 749C182.5 746.239 184.739 744 187.5 744C190.261 744 192.5 746.239 192.5 749Z" fill="#A59ED8"/>
<circle cx="167" cy="1032" r="5" fill="#E464D8"/>
<circle cx="1274" cy="194" r="5" fill="#E464D8"/>
<circle cx="1243" cy="110" r="5" fill="#E464D8"/>
<circle cx="1401" cy="250" r="5" fill="#E464D8"/>
<circle cx="1372" cy="446" r="5" fill="#E464D8"/>
<circle cx="1205" cy="305" r="5" fill="#E464D8"/>
<circle cx="1238" cy="240" r="5" fill="#A59ED8"/>
<circle cx="1205" cy="387" r="5" fill="#A59ED8"/>
<circle cx="1377" cy="380" r="5" fill="#E7C06C"/>
<circle cx="1253" cy="354" r="5" fill="#E7C06C"/>
<circle cx="1355" cy="300" r="5" fill="#E7C06C"/>
<circle cx="1215" cy="479" r="5" fill="#E7C06C"/>
<circle cx="1200" cy="167" r="5" fill="#E7C06C"/>
<path d="M1298 293.5C1298 296.261 1295.76 298.5 1293 298.5C1290.24 298.5 1288 296.261 1288 293.5C1288 290.739 1290.24 288.5 1293 288.5C1295.76 288.5 1298 290.739 1298 293.5Z" fill="#A59ED8"/>
<path d="M1283 424C1283 426.761 1280.76 429 1278 429C1275.24 429 1273 426.761 1273 424C1273 421.239 1275.24 419 1278 419C1280.76 419 1283 421.239 1283 424Z" fill="#A59ED8"/>
<path d="M1428 303.5C1428 306.261 1425.76 308.5 1423 308.5C1420.24 308.5 1418 306.261 1418 303.5C1418 300.739 1420.24 298.5 1423 298.5C1425.76 298.5 1428 300.739 1428 303.5Z" fill="#A59ED8"/>
<path d="M1344.5 217C1344.5 219.761 1342.26 222 1339.5 222C1336.74 222 1334.5 219.761 1334.5 217C1334.5 214.239 1336.74 212 1339.5 212C1342.26 212 1344.5 214.239 1344.5 217Z" fill="#A59ED8"/>
<circle cx="1319" cy="500" r="5" fill="#E464D8"/>
<circle cx="1274" cy="194" r="5" fill="#E464D8"/>
<circle cx="1243" cy="110" r="5" fill="#E464D8"/>
<circle cx="1401" cy="250" r="5" fill="#E464D8"/>
<circle cx="1372" cy="446" r="5" fill="#E464D8"/>
<circle cx="1205" cy="305" r="5" fill="#E464D8"/>
<circle cx="1238" cy="240" r="5" fill="#A59ED8"/>
<circle cx="1205" cy="387" r="5" fill="#A59ED8"/>
<circle cx="1377" cy="380" r="5" fill="#E7C06C"/>
<circle cx="1253" cy="354" r="5" fill="#E7C06C"/>
<circle cx="1355" cy="300" r="5" fill="#E7C06C"/>
<circle cx="1215" cy="479" r="5" fill="#E7C06C"/>
<circle cx="1200" cy="167" r="5" fill="#E7C06C"/>
<path d="M1298 293.5C1298 296.261 1295.76 298.5 1293 298.5C1290.24 298.5 1288 296.261 1288 293.5C1288 290.739 1290.24 288.5 1293 288.5C1295.76 288.5 1298 290.739 1298 293.5Z" fill="#A59ED8"/>
<path d="M1283 424C1283 426.761 1280.76 429 1278 429C1275.24 429 1273 426.761 1273 424C1273 421.239 1275.24 419 1278 419C1280.76 419 1283 421.239 1283 424Z" fill="#A59ED8"/>
<path d="M1428 303.5C1428 306.261 1425.76 308.5 1423 308.5C1420.24 308.5 1418 306.261 1418 303.5C1418 300.739 1420.24 298.5 1423 298.5C1425.76 298.5 1428 300.739 1428 303.5Z" fill="#A59ED8"/>
<path d="M1344.5 217C1344.5 219.761 1342.26 222 1339.5 222C1336.74 222 1334.5 219.761 1334.5 217C1334.5 214.239 1336.74 212 1339.5 212C1342.26 212 1344.5 214.239 1344.5 217Z" fill="#A59ED8"/>
<circle cx="1319" cy="500" r="5" fill="#E464D8"/>
<circle cx="1274" cy="194" r="5" fill="#E464D8"/>
<circle cx="1243" cy="110" r="5" fill="#E464D8"/>
<circle cx="1401" cy="250" r="5" fill="#E464D8"/>
<circle cx="1372" cy="446" r="5" fill="#E464D8"/>
<circle cx="1205" cy="305" r="5" fill="#E464D8"/>
<circle cx="1238" cy="240" r="5" fill="#A59ED8"/>
<circle cx="1205" cy="387" r="5" fill="#A59ED8"/>
<circle cx="1377" cy="380" r="5" fill="#E7C06C"/>
<circle cx="1253" cy="354" r="5" fill="#E7C06C"/>
<circle cx="1355" cy="300" r="5" fill="#E7C06C"/>
<circle cx="1215" cy="479" r="5" fill="#E7C06C"/>
<circle cx="1200" cy="167" r="5" fill="#E7C06C"/>
<path d="M1298 293.5C1298 296.261 1295.76 298.5 1293 298.5C1290.24 298.5 1288 296.261 1288 293.5C1288 290.739 1290.24 288.5 1293 288.5C1295.76 288.5 1298 290.739 1298 293.5Z" fill="#A59ED8"/>
<path d="M1283 424C1283 426.761 1280.76 429 1278 429C1275.24 429 1273 426.761 1273 424C1273 421.239 1275.24 419 1278 419C1280.76 419 1283 421.239 1283 424Z" fill="#A59ED8"/>
<path d="M1428 303.5C1428 306.261 1425.76 308.5 1423 308.5C1420.24 308.5 1418 306.261 1418 303.5C1418 300.739 1420.24 298.5 1423 298.5C1425.76 298.5 1428 300.739 1428 303.5Z" fill="#A59ED8"/>
<path d="M1344.5 217C1344.5 219.761 1342.26 222 1339.5 222C1336.74 222 1334.5 219.761 1334.5 217C1334.5 214.239 1336.74 212 1339.5 212C1342.26 212 1344.5 214.239 1344.5 217Z" fill="#A59ED8"/>
<circle cx="1319" cy="500" r="5" fill="#E464D8"/>
<circle cx="381" cy="645" r="5" fill="#E464D8"/>
<circle cx="350" cy="561" r="5" fill="#E464D8"/>
<circle cx="508" cy="701" r="5" fill="#E464D8"/>
<circle cx="479" cy="897" r="5" fill="#E464D8"/>
<circle cx="312" cy="756" r="5" fill="#E464D8"/>
<circle cx="345" cy="691" r="5" fill="#A59ED8"/>
<circle cx="312" cy="838" r="5" fill="#A59ED8"/>
<circle cx="484" cy="831" r="5" fill="#E7C06C"/>
<circle cx="360" cy="805" r="5" fill="#E7C06C"/>
<circle cx="462" cy="751" r="5" fill="#E7C06C"/>
<circle cx="322" cy="930" r="5" fill="#E7C06C"/>
<circle cx="307" cy="618" r="5" fill="#E7C06C"/>
<path d="M405 744.5C405 747.261 402.761 749.5 400 749.5C397.239 749.5 395 747.261 395 744.5C395 741.739 397.239 739.5 400 739.5C402.761 739.5 405 741.739 405 744.5Z" fill="#A59ED8"/>
<path d="M390 875C390 877.761 387.761 880 385 880C382.239 880 380 877.761 380 875C380 872.239 382.239 870 385 870C387.761 870 390 872.239 390 875Z" fill="#A59ED8"/>
<path d="M535 754.5C535 757.261 532.761 759.5 530 759.5C527.239 759.5 525 757.261 525 754.5C525 751.739 527.239 749.5 530 749.5C532.761 749.5 535 751.739 535 754.5Z" fill="#A59ED8"/>
<path d="M451.5 668C451.5 670.761 449.261 673 446.5 673C443.739 673 441.5 670.761 441.5 668C441.5 665.239 443.739 663 446.5 663C449.261 663 451.5 665.239 451.5 668Z" fill="#A59ED8"/>
<circle cx="426" cy="951" r="5" fill="#E464D8"/>
<circle cx="722" cy="371" r="5" fill="#E464D8"/>
<circle cx="691" cy="287" r="5" fill="#E464D8"/>
<circle cx="849" cy="427" r="5" fill="#E464D8"/>
<circle cx="820" cy="623" r="5" fill="#E464D8"/>
<circle cx="653" cy="482" r="5" fill="#E464D8"/>
<circle cx="686" cy="417" r="5" fill="#A59ED8"/>
<circle cx="653" cy="564" r="5" fill="#A59ED8"/>
<circle cx="825" cy="557" r="5" fill="#E7C06C"/>
<circle cx="701" cy="531" r="5" fill="#E7C06C"/>
<circle cx="803" cy="477" r="5" fill="#E7C06C"/>
<circle cx="663" cy="656" r="5" fill="#E7C06C"/>
<circle cx="648" cy="344" r="5" fill="#E7C06C"/>
<path d="M746 470.5C746 473.261 743.761 475.5 741 475.5C738.239 475.5 736 473.261 736 470.5C736 467.739 738.239 465.5 741 465.5C743.761 465.5 746 467.739 746 470.5Z" fill="#A59ED8"/>
<path d="M731 601C731 603.761 728.761 606 726 606C723.239 606 721 603.761 721 601C721 598.239 723.239 596 726 596C728.761 596 731 598.239 731 601Z" fill="#A59ED8"/>
<path d="M876 480.5C876 483.261 873.761 485.5 871 485.5C868.239 485.5 866 483.261 866 480.5C866 477.739 868.239 475.5 871 475.5C873.761 475.5 876 477.739 876 480.5Z" fill="#A59ED8"/>
<path d="M792.5 394C792.5 396.761 790.261 399 787.5 399C784.739 399 782.5 396.761 782.5 394C782.5 391.239 784.739 389 787.5 389C790.261 389 792.5 391.239 792.5 394Z" fill="#A59ED8"/>
<circle cx="767" cy="677" r="5" fill="#E464D8"/>
<circle cx="964" cy="677" r="5" fill="#E464D8"/>
<circle cx="933" cy="593" r="5" fill="#E464D8"/>
<circle cx="1091" cy="733" r="5" fill="#E464D8"/>
<circle cx="1062" cy="929" r="5" fill="#E464D8"/>
<circle cx="895" cy="788" r="5" fill="#E464D8"/>
<circle cx="928" cy="723" r="5" fill="#A59ED8"/>
<circle cx="895" cy="870" r="5" fill="#A59ED8"/>
<circle cx="1067" cy="863" r="5" fill="#E7C06C"/>
<circle cx="943" cy="837" r="5" fill="#E7C06C"/>
<circle cx="1045" cy="783" r="5" fill="#E7C06C"/>
<circle cx="905" cy="962" r="5" fill="#E7C06C"/>
<circle cx="890" cy="650" r="5" fill="#E7C06C"/>
<path d="M988 776.5C988 779.261 985.761 781.5 983 781.5C980.239 781.5 978 779.261 978 776.5C978 773.739 980.239 771.5 983 771.5C985.761 771.5 988 773.739 988 776.5Z" fill="#A59ED8"/>
<path d="M973 907C973 909.761 970.761 912 968 912C965.239 912 963 909.761 963 907C963 904.239 965.239 902 968 902C970.761 902 973 904.239 973 907Z" fill="#A59ED8"/>
<path d="M1118 786.5C1118 789.261 1115.76 791.5 1113 791.5C1110.24 791.5 1108 789.261 1108 786.5C1108 783.739 1110.24 781.5 1113 781.5C1115.76 781.5 1118 783.739 1118 786.5Z" fill="#A59ED8"/>
<path d="M1034.5 700C1034.5 702.761 1032.26 705 1029.5 705C1026.74 705 1024.5 702.761 1024.5 700C1024.5 697.239 1026.74 695 1029.5 695C1032.26 695 1034.5 697.239 1034.5 700Z" fill="#A59ED8"/>
<circle cx="1009" cy="983" r="5" fill="#E464D8"/>
<circle cx="659" cy="771" r="5" fill="#E464D8"/>
<circle cx="628" cy="687" r="5" fill="#E464D8"/>
<circle cx="786" cy="827" r="5" fill="#E464D8"/>
<circle cx="757" cy="1023" r="5" fill="#E464D8"/>
<circle cx="590" cy="882" r="5" fill="#E464D8"/>
<circle cx="623" cy="817" r="5" fill="#A59ED8"/>
<circle cx="590" cy="964" r="5" fill="#A59ED8"/>
<circle cx="762" cy="957" r="5" fill="#E7C06C"/>
<circle cx="638" cy="931" r="5" fill="#E7C06C"/>
<circle cx="740" cy="877" r="5" fill="#E7C06C"/>
<circle cx="600" cy="1056" r="5" fill="#E7C06C"/>
<circle cx="585" cy="744" r="5" fill="#E7C06C"/>
<path d="M683 870.5C683 873.261 680.761 875.5 678 875.5C675.239 875.5 673 873.261 673 870.5C673 867.739 675.239 865.5 678 865.5C680.761 865.5 683 867.739 683 870.5Z" fill="#A59ED8"/>
<path d="M668 1001C668 1003.76 665.761 1006 663 1006C660.239 1006 658 1003.76 658 1001C658 998.239 660.239 996 663 996C665.761 996 668 998.239 668 1001Z" fill="#A59ED8"/>
<path d="M813 880.5C813 883.261 810.761 885.5 808 885.5C805.239 885.5 803 883.261 803 880.5C803 877.739 805.239 875.5 808 875.5C810.761 875.5 813 877.739 813 880.5Z" fill="#A59ED8"/>
<path d="M729.5 794C729.5 796.761 727.261 799 724.5 799C721.739 799 719.5 796.761 719.5 794C719.5 791.239 721.739 789 724.5 789C727.261 789 729.5 791.239 729.5 794Z" fill="#A59ED8"/>
<circle cx="704" cy="1077" r="5" fill="#E464D8"/>
<circle cx="1274" cy="757" r="5" fill="#E464D8"/>
<circle cx="1243" cy="673" r="5" fill="#E464D8"/>
<circle cx="1401" cy="813" r="5" fill="#E464D8"/>
<circle cx="1372" cy="1009" r="5" fill="#E464D8"/>
<circle cx="1205" cy="868" r="5" fill="#E464D8"/>
<circle cx="1238" cy="803" r="5" fill="#A59ED8"/>
<circle cx="1205" cy="950" r="5" fill="#A59ED8"/>
<circle cx="1377" cy="943" r="5" fill="#E7C06C"/>
<circle cx="1253" cy="917" r="5" fill="#E7C06C"/>
<circle cx="1355" cy="863" r="5" fill="#E7C06C"/>
<circle cx="1215" cy="1042" r="5" fill="#E7C06C"/>
<circle cx="1200" cy="730" r="5" fill="#E7C06C"/>
<circle cx="1419" cy="506" r="5" fill="#E464D8"/>
<circle cx="1350" cy="617" r="5" fill="#E464D8"/>
<circle cx="1383" cy="552" r="5" fill="#A59ED8"/>
<circle cx="1398" cy="666" r="5" fill="#E7C06C"/>
<circle cx="1345" cy="479" r="5" fill="#E7C06C"/>
<circle cx="1151" cy="385" r="5" fill="#E464D8"/>
<circle cx="1082" cy="496" r="5" fill="#E464D8"/>
<circle cx="1115" cy="431" r="5" fill="#A59ED8"/>
<circle cx="1130" cy="545" r="5" fill="#E7C06C"/>
<circle cx="1077" cy="358" r="5" fill="#E7C06C"/>
<circle cx="1183" cy="147" r="5" fill="#E464D8"/>
<circle cx="1114" cy="258" r="5" fill="#E464D8"/>
<circle cx="1147" cy="193" r="5" fill="#A59ED8"/>
<circle cx="1162" cy="307" r="5" fill="#E7C06C"/>
<circle cx="1109" cy="120" r="5" fill="#E7C06C"/>
<path d="M1298 856.5C1298 859.261 1295.76 861.5 1293 861.5C1290.24 861.5 1288 859.261 1288 856.5C1288 853.739 1290.24 851.5 1293 851.5C1295.76 851.5 1298 853.739 1298 856.5Z" fill="#A59ED8"/>
<path d="M1283 987C1283 989.761 1280.76 992 1278 992C1275.24 992 1273 989.761 1273 987C1273 984.239 1275.24 982 1278 982C1280.76 982 1283 984.239 1283 987Z" fill="#A59ED8"/>
<path d="M1428 866.5C1428 869.261 1425.76 871.5 1423 871.5C1420.24 871.5 1418 869.261 1418 866.5C1418 863.739 1420.24 861.5 1423 861.5C1425.76 861.5 1428 863.739 1428 866.5Z" fill="#A59ED8"/>
<path d="M1344.5 780C1344.5 782.761 1342.26 785 1339.5 785C1336.74 785 1334.5 782.761 1334.5 780C1334.5 777.239 1336.74 775 1339.5 775C1342.26 775 1344.5 777.239 1344.5 780Z" fill="#A59ED8"/>
<circle cx="1319" cy="1063" r="5" fill="#E464D8"/>
<circle cx="463" cy="181" r="5" fill="#E464D8"/>
<circle cx="432" cy="97" r="5" fill="#E464D8"/>
<circle cx="590" cy="237" r="5" fill="#E464D8"/>
<circle cx="561" cy="433" r="5" fill="#E464D8"/>
<circle cx="394" cy="292" r="5" fill="#E464D8"/>
<circle cx="427" cy="227" r="5" fill="#A59ED8"/>
<circle cx="394" cy="374" r="5" fill="#A59ED8"/>
<circle cx="566" cy="367" r="5" fill="#E7C06C"/>
<circle cx="442" cy="341" r="5" fill="#E7C06C"/>
<circle cx="544" cy="287" r="5" fill="#E7C06C"/>
<circle cx="404" cy="466" r="5" fill="#E7C06C"/>
<circle cx="389" cy="154" r="5" fill="#E7C06C"/>
<path d="M487 280.5C487 283.261 484.761 285.5 482 285.5C479.239 285.5 477 283.261 477 280.5C477 277.739 479.239 275.5 482 275.5C484.761 275.5 487 277.739 487 280.5Z" fill="#A59ED8"/>
<path d="M472 411C472 413.761 469.761 416 467 416C464.239 416 462 413.761 462 411C462 408.239 464.239 406 467 406C469.761 406 472 408.239 472 411Z" fill="#A59ED8"/>
<path d="M617 290.5C617 293.261 614.761 295.5 612 295.5C609.239 295.5 607 293.261 607 290.5C607 287.739 609.239 285.5 612 285.5C614.761 285.5 617 287.739 617 290.5Z" fill="#A59ED8"/>
<path d="M533.5 204C533.5 206.761 531.261 209 528.5 209C525.739 209 523.5 206.761 523.5 204C523.5 201.239 525.739 199 528.5 199C531.261 199 533.5 201.239 533.5 204Z" fill="#A59ED8"/>
<circle cx="508" cy="487" r="5" fill="#E464D8"/>
<circle cx="492" cy="448" r="5" fill="#E464D8"/>
<circle cx="461" cy="364" r="5" fill="#E464D8"/>
<circle cx="619" cy="504" r="5" fill="#E464D8"/>
<circle cx="590" cy="700" r="5" fill="#E464D8"/>
<circle cx="423" cy="559" r="5" fill="#E464D8"/>
<circle cx="456" cy="494" r="5" fill="#A59ED8"/>
<circle cx="423" cy="641" r="5" fill="#A59ED8"/>
<circle cx="595" cy="634" r="5" fill="#E7C06C"/>
<circle cx="471" cy="608" r="5" fill="#E7C06C"/>
<circle cx="573" cy="554" r="5" fill="#E7C06C"/>
<circle cx="433" cy="733" r="5" fill="#E7C06C"/>
<circle cx="418" cy="421" r="5" fill="#E7C06C"/>
<path d="M516 547.5C516 550.261 513.761 552.5 511 552.5C508.239 552.5 506 550.261 506 547.5C506 544.739 508.239 542.5 511 542.5C513.761 542.5 516 544.739 516 547.5Z" fill="#A59ED8"/>
<path d="M501 678C501 680.761 498.761 683 496 683C493.239 683 491 680.761 491 678C491 675.239 493.239 673 496 673C498.761 673 501 675.239 501 678Z" fill="#A59ED8"/>
<path d="M646 557.5C646 560.261 643.761 562.5 641 562.5C638.239 562.5 636 560.261 636 557.5C636 554.739 638.239 552.5 641 552.5C643.761 552.5 646 554.739 646 557.5Z" fill="#A59ED8"/>
<path d="M562.5 471C562.5 473.761 560.261 476 557.5 476C554.739 476 552.5 473.761 552.5 471C552.5 468.239 554.739 466 557.5 466C560.261 466 562.5 468.239 562.5 471Z" fill="#A59ED8"/>
<circle cx="537" cy="754" r="5" fill="#E464D8"/>
<circle cx="304" cy="716" r="5" fill="#E464D8"/>
<circle cx="273" cy="632" r="5" fill="#E464D8"/>
<circle cx="431" cy="772" r="5" fill="#E464D8"/>
<circle cx="402" cy="968" r="5" fill="#E464D8"/>
<circle cx="235" cy="827" r="5" fill="#E464D8"/>
<circle cx="268" cy="762" r="5" fill="#A59ED8"/>
<circle cx="235" cy="909" r="5" fill="#A59ED8"/>
<circle cx="407" cy="902" r="5" fill="#E7C06C"/>
<circle cx="283" cy="876" r="5" fill="#E7C06C"/>
<circle cx="385" cy="822" r="5" fill="#E7C06C"/>
<circle cx="245" cy="1001" r="5" fill="#E7C06C"/>
<circle cx="230" cy="689" r="5" fill="#E7C06C"/>
<path d="M328 815.5C328 818.261 325.761 820.5 323 820.5C320.239 820.5 318 818.261 318 815.5C318 812.739 320.239 810.5 323 810.5C325.761 810.5 328 812.739 328 815.5Z" fill="#A59ED8"/>
<path d="M313 946C313 948.761 310.761 951 308 951C305.239 951 303 948.761 303 946C303 943.239 305.239 941 308 941C310.761 941 313 943.239 313 946Z" fill="#A59ED8"/>
<path d="M458 825.5C458 828.261 455.761 830.5 453 830.5C450.239 830.5 448 828.261 448 825.5C448 822.739 450.239 820.5 453 820.5C455.761 820.5 458 822.739 458 825.5Z" fill="#A59ED8"/>
<path d="M374.5 739C374.5 741.761 372.261 744 369.5 744C366.739 744 364.5 741.761 364.5 739C364.5 736.239 366.739 734 369.5 734C372.261 734 374.5 736.239 374.5 739Z" fill="#A59ED8"/>
<circle cx="349" cy="1022" r="5" fill="#E464D8"/>
<circle cx="1015" cy="436" r="5" fill="#E464D8"/>
<circle cx="984" cy="352" r="5" fill="#E464D8"/>
<circle cx="1142" cy="492" r="5" fill="#E464D8"/>
<circle cx="1113" cy="688" r="5" fill="#E464D8"/>
<circle cx="946" cy="547" r="5" fill="#E464D8"/>
<circle cx="979" cy="482" r="5" fill="#A59ED8"/>
<circle cx="946" cy="629" r="5" fill="#A59ED8"/>
<circle cx="1118" cy="622" r="5" fill="#E7C06C"/>
<circle cx="994" cy="596" r="5" fill="#E7C06C"/>
<circle cx="1096" cy="542" r="5" fill="#E7C06C"/>
<circle cx="956" cy="721" r="5" fill="#E7C06C"/>
<circle cx="941" cy="409" r="5" fill="#E7C06C"/>
<path d="M1039 535.5C1039 538.261 1036.76 540.5 1034 540.5C1031.24 540.5 1029 538.261 1029 535.5C1029 532.739 1031.24 530.5 1034 530.5C1036.76 530.5 1039 532.739 1039 535.5Z" fill="#A59ED8"/>
<path d="M1024 666C1024 668.761 1021.76 671 1019 671C1016.24 671 1014 668.761 1014 666C1014 663.239 1016.24 661 1019 661C1021.76 661 1024 663.239 1024 666Z" fill="#A59ED8"/>
<path d="M1169 545.5C1169 548.261 1166.76 550.5 1164 550.5C1161.24 550.5 1159 548.261 1159 545.5C1159 542.739 1161.24 540.5 1164 540.5C1166.76 540.5 1169 542.739 1169 545.5Z" fill="#A59ED8"/>
<path d="M1085.5 459C1085.5 461.761 1083.26 464 1080.5 464C1077.74 464 1075.5 461.761 1075.5 459C1075.5 456.239 1077.74 454 1080.5 454C1083.26 454 1085.5 456.239 1085.5 459Z" fill="#A59ED8"/>
<circle cx="1060" cy="742" r="5" fill="#E464D8"/>
<circle cx="1015" cy="436" r="5" fill="#E464D8"/>
<circle cx="984" cy="352" r="5" fill="#E464D8"/>
<circle cx="1142" cy="492" r="5" fill="#E464D8"/>
<circle cx="1113" cy="688" r="5" fill="#E464D8"/>
<circle cx="946" cy="547" r="5" fill="#E464D8"/>
<circle cx="979" cy="482" r="5" fill="#A59ED8"/>
<circle cx="946" cy="629" r="5" fill="#A59ED8"/>
<circle cx="1118" cy="622" r="5" fill="#E7C06C"/>
<circle cx="994" cy="596" r="5" fill="#E7C06C"/>
<circle cx="1096" cy="542" r="5" fill="#E7C06C"/>
<circle cx="956" cy="721" r="5" fill="#E7C06C"/>
<circle cx="941" cy="409" r="5" fill="#E7C06C"/>
<path d="M1039 535.5C1039 538.261 1036.76 540.5 1034 540.5C1031.24 540.5 1029 538.261 1029 535.5C1029 532.739 1031.24 530.5 1034 530.5C1036.76 530.5 1039 532.739 1039 535.5Z" fill="#A59ED8"/>
<path d="M1024 666C1024 668.761 1021.76 671 1019 671C1016.24 671 1014 668.761 1014 666C1014 663.239 1016.24 661 1019 661C1021.76 661 1024 663.239 1024 666Z" fill="#A59ED8"/>
<path d="M1169 545.5C1169 548.261 1166.76 550.5 1164 550.5C1161.24 550.5 1159 548.261 1159 545.5C1159 542.739 1161.24 540.5 1164 540.5C1166.76 540.5 1169 542.739 1169 545.5Z" fill="#A59ED8"/>
<path d="M1085.5 459C1085.5 461.761 1083.26 464 1080.5 464C1077.74 464 1075.5 461.761 1075.5 459C1075.5 456.239 1077.74 454 1080.5 454C1083.26 454 1085.5 456.239 1085.5 459Z" fill="#A59ED8"/>
<circle cx="1060" cy="742" r="5" fill="#E464D8"/>
<circle cx="1241" cy="478" r="5" fill="#E464D8"/>
<circle cx="1210" cy="394" r="5" fill="#E464D8"/>
<circle cx="1368" cy="534" r="5" fill="#E464D8"/>
<circle cx="1339" cy="730" r="5" fill="#E464D8"/>
<circle cx="1172" cy="589" r="5" fill="#E464D8"/>
<circle cx="1205" cy="524" r="5" fill="#A59ED8"/>
<circle cx="1172" cy="671" r="5" fill="#A59ED8"/>
<circle cx="1344" cy="664" r="5" fill="#E7C06C"/>
<circle cx="1220" cy="638" r="5" fill="#E7C06C"/>
<circle cx="1322" cy="584" r="5" fill="#E7C06C"/>
<circle cx="1182" cy="763" r="5" fill="#E7C06C"/>
<circle cx="1167" cy="451" r="5" fill="#E7C06C"/>
<path d="M1265 577.5C1265 580.261 1262.76 582.5 1260 582.5C1257.24 582.5 1255 580.261 1255 577.5C1255 574.739 1257.24 572.5 1260 572.5C1262.76 572.5 1265 574.739 1265 577.5Z" fill="#A59ED8"/>
<path d="M1250 708C1250 710.761 1247.76 713 1245 713C1242.24 713 1240 710.761 1240 708C1240 705.239 1242.24 703 1245 703C1247.76 703 1250 705.239 1250 708Z" fill="#A59ED8"/>
<path d="M1395 587.5C1395 590.261 1392.76 592.5 1390 592.5C1387.24 592.5 1385 590.261 1385 587.5C1385 584.739 1387.24 582.5 1390 582.5C1392.76 582.5 1395 584.739 1395 587.5Z" fill="#A59ED8"/>
<path d="M1311.5 501C1311.5 503.761 1309.26 506 1306.5 506C1303.74 506 1301.5 503.761 1301.5 501C1301.5 498.239 1303.74 496 1306.5 496C1309.26 496 1311.5 498.239 1311.5 501Z" fill="#A59ED8"/>
<circle cx="1286" cy="784" r="5" fill="#E464D8"/>
<circle cx="752" cy="608" r="5" fill="#E464D8"/>
<circle cx="721" cy="524" r="5" fill="#E464D8"/>
<circle cx="879" cy="664" r="5" fill="#E464D8"/>
<circle cx="850" cy="860" r="5" fill="#E464D8"/>
<circle cx="683" cy="719" r="5" fill="#E464D8"/>
<circle cx="716" cy="654" r="5" fill="#A59ED8"/>
<circle cx="683" cy="801" r="5" fill="#A59ED8"/>
<circle cx="855" cy="794" r="5" fill="#E7C06C"/>
<circle cx="731" cy="768" r="5" fill="#E7C06C"/>
<circle cx="833" cy="714" r="5" fill="#E7C06C"/>
<circle cx="693" cy="893" r="5" fill="#E7C06C"/>
<circle cx="678" cy="581" r="5" fill="#E7C06C"/>
<path d="M776 707.5C776 710.261 773.761 712.5 771 712.5C768.239 712.5 766 710.261 766 707.5C766 704.739 768.239 702.5 771 702.5C773.761 702.5 776 704.739 776 707.5Z" fill="#A59ED8"/>
<path d="M761 838C761 840.761 758.761 843 756 843C753.239 843 751 840.761 751 838C751 835.239 753.239 833 756 833C758.761 833 761 835.239 761 838Z" fill="#A59ED8"/>
<path d="M906 717.5C906 720.261 903.761 722.5 901 722.5C898.239 722.5 896 720.261 896 717.5C896 714.739 898.239 712.5 901 712.5C903.761 712.5 906 714.739 906 717.5Z" fill="#A59ED8"/>
<path d="M822.5 631C822.5 633.761 820.261 636 817.5 636C814.739 636 812.5 633.761 812.5 631C812.5 628.239 814.739 626 817.5 626C820.261 626 822.5 628.239 822.5 631Z" fill="#A59ED8"/>
<circle cx="797" cy="914" r="5" fill="#E464D8"/>
<circle cx="752" cy="608" r="5" fill="#E464D8"/>
<circle cx="721" cy="524" r="5" fill="#E464D8"/>
<circle cx="879" cy="664" r="5" fill="#E464D8"/>
<circle cx="850" cy="860" r="5" fill="#E464D8"/>
<circle cx="683" cy="719" r="5" fill="#E464D8"/>
<circle cx="716" cy="654" r="5" fill="#A59ED8"/>
<circle cx="683" cy="801" r="5" fill="#A59ED8"/>
<circle cx="855" cy="794" r="5" fill="#E7C06C"/>
<circle cx="731" cy="768" r="5" fill="#E7C06C"/>
<circle cx="833" cy="714" r="5" fill="#E7C06C"/>
<circle cx="693" cy="893" r="5" fill="#E7C06C"/>
<circle cx="678" cy="581" r="5" fill="#E7C06C"/>
<path d="M776 707.5C776 710.261 773.761 712.5 771 712.5C768.239 712.5 766 710.261 766 707.5C766 704.739 768.239 702.5 771 702.5C773.761 702.5 776 704.739 776 707.5Z" fill="#A59ED8"/>
<path d="M761 838C761 840.761 758.761 843 756 843C753.239 843 751 840.761 751 838C751 835.239 753.239 833 756 833C758.761 833 761 835.239 761 838Z" fill="#A59ED8"/>
<path d="M906 717.5C906 720.261 903.761 722.5 901 722.5C898.239 722.5 896 720.261 896 717.5C896 714.739 898.239 712.5 901 712.5C903.761 712.5 906 714.739 906 717.5Z" fill="#A59ED8"/>
<path d="M822.5 631C822.5 633.761 820.261 636 817.5 636C814.739 636 812.5 633.761 812.5 631C812.5 628.239 814.739 626 817.5 626C820.261 626 822.5 628.239 822.5 631Z" fill="#A59ED8"/>
<circle cx="797" cy="914" r="5" fill="#E464D8"/>
<circle cx="1057" cy="771" r="5" fill="#E464D8"/>
<circle cx="1026" cy="687" r="5" fill="#E464D8"/>
<circle cx="1184" cy="827" r="5" fill="#E464D8"/>
<circle cx="1155" cy="1023" r="5" fill="#E464D8"/>
<circle cx="988" cy="882" r="5" fill="#E464D8"/>
<circle cx="1021" cy="817" r="5" fill="#A59ED8"/>
<circle cx="988" cy="964" r="5" fill="#A59ED8"/>
<circle cx="1160" cy="957" r="5" fill="#E7C06C"/>
<circle cx="1036" cy="931" r="5" fill="#E7C06C"/>
<circle cx="1138" cy="877" r="5" fill="#E7C06C"/>
<circle cx="998" cy="1056" r="5" fill="#E7C06C"/>
<circle cx="983" cy="744" r="5" fill="#E7C06C"/>
<path d="M1081 870.5C1081 873.261 1078.76 875.5 1076 875.5C1073.24 875.5 1071 873.261 1071 870.5C1071 867.739 1073.24 865.5 1076 865.5C1078.76 865.5 1081 867.739 1081 870.5Z" fill="#A59ED8"/>
<path d="M1066 1001C1066 1003.76 1063.76 1006 1061 1006C1058.24 1006 1056 1003.76 1056 1001C1056 998.239 1058.24 996 1061 996C1063.76 996 1066 998.239 1066 1001Z" fill="#A59ED8"/>
<path d="M1211 880.5C1211 883.261 1208.76 885.5 1206 885.5C1203.24 885.5 1201 883.261 1201 880.5C1201 877.739 1203.24 875.5 1206 875.5C1208.76 875.5 1211 877.739 1211 880.5Z" fill="#A59ED8"/>
<path d="M1127.5 794C1127.5 796.761 1125.26 799 1122.5 799C1119.74 799 1117.5 796.761 1117.5 794C1117.5 791.239 1119.74 789 1122.5 789C1125.26 789 1127.5 791.239 1127.5 794Z" fill="#A59ED8"/>
<circle cx="1102" cy="1077" r="5" fill="#E464D8"/>
<circle cx="421" cy="796" r="5" fill="#E464D8"/>
<circle cx="390" cy="712" r="5" fill="#E464D8"/>
<circle cx="548" cy="852" r="5" fill="#E464D8"/>
<circle cx="519" cy="1048" r="5" fill="#E464D8"/>
<circle cx="352" cy="907" r="5" fill="#E464D8"/>
<circle cx="385" cy="842" r="5" fill="#A59ED8"/>
<circle cx="352" cy="989" r="5" fill="#A59ED8"/>
<circle cx="524" cy="982" r="5" fill="#E7C06C"/>
<circle cx="400" cy="956" r="5" fill="#E7C06C"/>
<circle cx="502" cy="902" r="5" fill="#E7C06C"/>
<circle cx="362" cy="1081" r="5" fill="#E7C06C"/>
<circle cx="347" cy="769" r="5" fill="#E7C06C"/>
<path d="M445 895.5C445 898.261 442.761 900.5 440 900.5C437.239 900.5 435 898.261 435 895.5C435 892.739 437.239 890.5 440 890.5C442.761 890.5 445 892.739 445 895.5Z" fill="#A59ED8"/>
<path d="M430 1026C430 1028.76 427.761 1031 425 1031C422.239 1031 420 1028.76 420 1026C420 1023.24 422.239 1021 425 1021C427.761 1021 430 1023.24 430 1026Z" fill="#A59ED8"/>
<path d="M575 905.5C575 908.261 572.761 910.5 570 910.5C567.239 910.5 565 908.261 565 905.5C565 902.739 567.239 900.5 570 900.5C572.761 900.5 575 902.739 575 905.5Z" fill="#A59ED8"/>
<path d="M491.5 819C491.5 821.761 489.261 824 486.5 824C483.739 824 481.5 821.761 481.5 819C481.5 816.239 483.739 814 486.5 814C489.261 814 491.5 816.239 491.5 819Z" fill="#A59ED8"/>
<circle cx="466" cy="1102" r="5" fill="#E464D8"/>
<circle cx="793" cy="838" r="5" fill="#E464D8"/>
<circle cx="762" cy="754" r="5" fill="#E464D8"/>
<circle cx="920" cy="894" r="5" fill="#E464D8"/>
<circle cx="891" cy="1090" r="5" fill="#E464D8"/>
<circle cx="724" cy="949" r="5" fill="#E464D8"/>
<circle cx="757" cy="884" r="5" fill="#A59ED8"/>
<circle cx="724" cy="1031" r="5" fill="#A59ED8"/>
<circle cx="896" cy="1024" r="5" fill="#E7C06C"/>
<circle cx="772" cy="998" r="5" fill="#E7C06C"/>
<circle cx="874" cy="944" r="5" fill="#E7C06C"/>
<circle cx="734" cy="1123" r="5" fill="#E7C06C"/>
<circle cx="719" cy="811" r="5" fill="#E7C06C"/>
<path d="M817 937.5C817 940.261 814.761 942.5 812 942.5C809.239 942.5 807 940.261 807 937.5C807 934.739 809.239 932.5 812 932.5C814.761 932.5 817 934.739 817 937.5Z" fill="#A59ED8"/>
<path d="M802 1068C802 1070.76 799.761 1073 797 1073C794.239 1073 792 1070.76 792 1068C792 1065.24 794.239 1063 797 1063C799.761 1063 802 1065.24 802 1068Z" fill="#A59ED8"/>
<path d="M947 947.5C947 950.261 944.761 952.5 942 952.5C939.239 952.5 937 950.261 937 947.5C937 944.739 939.239 942.5 942 942.5C944.761 942.5 947 944.739 947 947.5Z" fill="#A59ED8"/>
<path d="M863.5 861C863.5 863.761 861.261 866 858.5 866C855.739 866 853.5 863.761 853.5 861C853.5 858.239 855.739 856 858.5 856C861.261 856 863.5 858.239 863.5 861Z" fill="#A59ED8"/>
<circle cx="838" cy="1144" r="5" fill="#E464D8"/>
<circle cx="689" cy="89" r="5" fill="#E464D8"/>
<circle cx="658" cy="5" r="5" fill="#E464D8"/>
<circle cx="816" cy="145" r="5" fill="#E464D8"/>
<circle cx="787" cy="341" r="5" fill="#E464D8"/>
<circle cx="620" cy="200" r="5" fill="#E464D8"/>
<circle cx="653" cy="135" r="5" fill="#A59ED8"/>
<circle cx="620" cy="282" r="5" fill="#A59ED8"/>
<circle cx="792" cy="275" r="5" fill="#E7C06C"/>
<circle cx="668" cy="249" r="5" fill="#E7C06C"/>
<circle cx="770" cy="195" r="5" fill="#E7C06C"/>
<circle cx="630" cy="374" r="5" fill="#E7C06C"/>
<circle cx="615" cy="62" r="5" fill="#E7C06C"/>
<path d="M713 188.5C713 191.261 710.761 193.5 708 193.5C705.239 193.5 703 191.261 703 188.5C703 185.739 705.239 183.5 708 183.5C710.761 183.5 713 185.739 713 188.5Z" fill="#A59ED8"/>
<path d="M698 319C698 321.761 695.761 324 693 324C690.239 324 688 321.761 688 319C688 316.239 690.239 314 693 314C695.761 314 698 316.239 698 319Z" fill="#A59ED8"/>
<path d="M843 198.5C843 201.261 840.761 203.5 838 203.5C835.239 203.5 833 201.261 833 198.5C833 195.739 835.239 193.5 838 193.5C840.761 193.5 843 195.739 843 198.5Z" fill="#A59ED8"/>
<path d="M759.5 112C759.5 114.761 757.261 117 754.5 117C751.739 117 749.5 114.761 749.5 112C749.5 109.239 751.739 107 754.5 107C757.261 107 759.5 109.239 759.5 112Z" fill="#A59ED8"/>
<circle cx="734" cy="395" r="5" fill="#E464D8"/>
<circle cx="943" cy="144" r="5" fill="#E464D8"/>
<circle cx="912" cy="60" r="5" fill="#E464D8"/>
<circle cx="1070" cy="200" r="5" fill="#E464D8"/>
<circle cx="1041" cy="396" r="5" fill="#E464D8"/>
<circle cx="874" cy="255" r="5" fill="#E464D8"/>
<circle cx="907" cy="190" r="5" fill="#A59ED8"/>
<circle cx="874" cy="337" r="5" fill="#A59ED8"/>
<circle cx="1046" cy="330" r="5" fill="#E7C06C"/>
<circle cx="922" cy="304" r="5" fill="#E7C06C"/>
<circle cx="1024" cy="250" r="5" fill="#E7C06C"/>
<circle cx="884" cy="429" r="5" fill="#E7C06C"/>
<circle cx="869" cy="117" r="5" fill="#E7C06C"/>
<path d="M967 243.5C967 246.261 964.761 248.5 962 248.5C959.239 248.5 957 246.261 957 243.5C957 240.739 959.239 238.5 962 238.5C964.761 238.5 967 240.739 967 243.5Z" fill="#A59ED8"/>
<path d="M952 374C952 376.761 949.761 379 947 379C944.239 379 942 376.761 942 374C942 371.239 944.239 369 947 369C949.761 369 952 371.239 952 374Z" fill="#A59ED8"/>
<path d="M1097 253.5C1097 256.261 1094.76 258.5 1092 258.5C1089.24 258.5 1087 256.261 1087 253.5C1087 250.739 1089.24 248.5 1092 248.5C1094.76 248.5 1097 250.739 1097 253.5Z" fill="#A59ED8"/>
<path d="M1013.5 167C1013.5 169.761 1011.26 172 1008.5 172C1005.74 172 1003.5 169.761 1003.5 167C1003.5 164.239 1005.74 162 1008.5 162C1011.26 162 1013.5 164.239 1013.5 167Z" fill="#A59ED8"/>
<circle cx="988" cy="450" r="5" fill="#E464D8"/>
</svg>
