<svg width="524" height="470" viewBox="0 0 524 470" fill="none" xmlns="http://www.w3.org/2000/svg">
<path d="M283.023 46.9892C281.989 54.8458 280.248 62.615 277.837 70.1275C277.512 71.0617 277.25 72.0089 276.873 72.8735C276.716 73.3123 276.56 73.7512 276.403 74.19C276.2 74.8548 276.815 73.156 276.415 74.1335C276.293 74.4029 276.223 74.7418 276.101 75.0112C275.388 76.8664 274.612 78.7086 273.835 80.5507C272.219 84.222 270.35 87.841 268.316 91.3078C267.322 92.9282 266.328 94.5485 265.27 96.1559C264.716 96.9248 264.225 97.7067 263.607 98.4625C263.509 98.6189 263.198 98.8491 263.151 99.075C263.268 98.5101 263.682 98.4191 263.348 98.7623C263.002 99.1619 262.719 99.5745 262.373 99.9741C260.237 102.654 257.81 105.156 255.228 107.449C254.657 107.979 254.024 108.496 253.39 109.013C253.067 109.299 252.681 109.573 252.358 109.859C252.209 109.946 252.047 110.09 251.961 110.189C252.803 109.303 252.272 109.959 252.036 110.146C250.63 111.21 249.099 112.248 247.579 113.229C246.07 114.154 244.573 115.022 242.95 115.864C242.214 116.242 241.414 116.607 240.614 116.971C240.252 117.132 239.889 117.292 239.527 117.453C238.952 117.687 240.614 116.971 239.74 117.379C239.452 117.496 239.239 117.57 238.951 117.687C237.088 118.421 235.172 119.084 233.217 119.622C231.262 120.16 229.291 120.459 227.285 120.927C227.359 120.883 228.44 120.754 227.698 120.836C227.422 120.897 227.158 120.901 226.882 120.961C226.342 121.026 225.802 121.091 225.199 121.143C224.193 121.229 223.187 121.316 222.13 121.332C220.068 121.436 217.977 121.356 215.91 121.164C214.813 121.054 213.34 121.81 212.671 122.496C211.99 123.239 211.614 124.103 211.541 125.09C211.436 127.189 213.054 129.232 215.453 129.729C220.074 130.627 224.683 131.581 229.234 132.818C230.296 133.097 231.282 133.419 232.332 133.754C232.395 133.767 233.497 134.172 232.763 133.902C231.965 133.619 233.067 134.024 233.193 134.05C233.749 134.224 234.294 134.455 234.839 134.686C237.03 135.552 239.135 136.518 241.153 137.583C241.508 137.775 241.915 138.036 242.271 138.227C242.448 138.323 242.678 138.488 242.855 138.584C243.211 138.775 243.519 139.193 242.626 138.419C243.29 139.027 244.191 139.45 244.929 140.015C246.356 141.076 247.708 142.181 248.909 143.372C249.241 143.676 249.573 143.981 249.894 144.342C249.997 144.481 250.163 144.633 250.277 144.716C250.827 145.242 250.06 144.494 250.008 144.424C250.523 145.12 251.238 145.798 251.828 146.451C252.983 147.868 254.075 149.272 255.08 150.776C255.531 151.459 255.983 152.142 256.371 152.811C256.565 153.146 256.759 153.48 257.005 153.885C257.29 154.415 256.485 152.894 256.913 153.689C257.056 153.954 257.147 154.15 257.29 154.415C258.094 155.937 258.761 157.488 259.427 159.04C260.082 160.649 260.662 162.3 261.178 163.939C261.405 164.752 261.632 165.564 261.858 166.377C261.887 166.56 261.915 166.742 262.017 166.881C261.735 165.704 261.921 166.39 261.989 166.699C262.085 167.19 262.193 167.625 262.289 168.116C263.039 171.806 263.399 175.474 263.495 179.146C263.537 180.215 263.527 181.215 263.506 182.271C263.487 182.679 263.457 183.144 263.501 183.566C263.494 183.918 263.499 184.213 263.429 184.552C263.464 184.383 263.436 184.2 263.471 184.031C263.424 184.257 263.452 184.439 263.405 184.665C263.237 186.751 263.08 188.78 262.785 190.84C261.55 200.305 258.977 209.551 256.364 218.671C255.805 220.735 257.451 222.961 259.603 223.701C261.88 224.467 264.296 223.612 265.412 221.723C273.335 208.577 277.066 193.738 283.774 180.105C285.262 177.055 286.875 174.031 288.793 171.129C289.186 170.504 289.642 169.891 290.023 169.322C290.22 169.01 290.542 168.723 290.751 168.354C290.739 168.41 290.11 169.222 290.554 168.666C290.652 168.51 290.826 168.31 290.924 168.154C291.899 166.942 292.862 165.787 293.889 164.644C295.942 162.359 298.225 160.24 300.662 158.329C300.811 158.242 300.973 158.099 301.059 157.999C300.252 158.716 300.512 158.416 300.748 158.229C301.059 157.999 301.371 157.769 301.682 157.539C302.304 157.079 302.989 156.631 303.674 156.184C304.969 155.333 306.317 154.552 307.64 153.883C308.452 153.462 309.188 153.084 310.051 152.733C310.201 152.646 310.339 152.616 310.552 152.542C309.252 153.098 310.189 152.703 310.414 152.572C310.839 152.425 311.202 152.264 311.628 152.117C313.192 151.557 314.808 151.067 316.464 150.703C316.877 150.612 317.354 150.534 317.768 150.443C317.97 150.425 318.108 150.395 318.309 150.378C319.263 150.222 317.291 150.521 318.171 150.408C319.05 150.296 319.929 150.183 320.86 150.14C321.791 150.097 322.658 150.041 323.577 150.055C323.968 150.077 324.433 150.055 324.824 150.077C325.214 150.099 327.029 150.239 325.352 150.069C326.65 150.161 327.885 150.24 328.956 149.519C329.791 148.985 330.397 148.286 330.785 147.365C331.498 145.509 330.589 142.906 328.334 142.027C326.573 141.309 324.824 140.534 323.099 139.647C322.325 139.251 321.625 138.811 320.851 138.415C320.444 138.154 320.038 137.893 319.619 137.689C320.966 138.498 319.453 137.537 319.098 137.345C316.044 135.24 313.175 132.879 310.616 130.287C310.514 130.148 310.347 129.996 310.233 129.913C309.695 129.331 310.45 130.135 310.502 130.205C310.245 129.857 309.849 129.539 309.529 129.179C308.888 128.457 308.299 127.805 307.721 127.096C306.566 125.679 305.423 124.205 304.429 122.644C303.424 121.14 302.481 119.649 301.551 118.101C301.46 117.905 301.368 117.71 301.214 117.501C301.265 117.571 301.745 118.436 301.357 117.766C301.111 117.362 300.929 116.971 300.683 116.566C300.255 115.771 299.839 114.919 299.475 114.136C297.964 110.937 296.741 107.621 295.719 104.287C295.493 103.474 295.254 102.718 295.028 101.905C294.936 101.709 294.92 101.47 294.892 101.288C294.705 100.601 294.971 101.54 294.96 101.596C294.875 101.049 294.716 100.544 294.621 100.053C294.242 98.3844 293.938 96.6719 293.634 94.9595C292.421 87.4624 291.949 79.8831 291.868 72.3258C291.814 68.1321 291.836 63.895 291.983 59.684C292.065 57.6981 292.136 55.7686 292.218 53.7826C292.29 52.7962 292.288 51.8531 292.36 50.8667C292.367 50.5147 292.442 48.8807 292.402 50.3452C292.444 49.8237 292.475 49.3588 292.517 48.8373C292.573 47.6118 292.52 46.5992 291.748 45.5557C291.079 44.6514 289.87 43.8121 288.659 43.6202C287.448 43.4283 286.051 43.4926 285.055 44.17C284.047 44.9038 283.056 45.8767 283.023 46.9892C282.157 62.3033 281.571 77.8521 283.726 93.2026C285.832 107.836 291.161 122.489 301.842 134.185C307.912 140.803 315.302 146.456 324.015 149.851C325.03 147.175 325.982 144.485 326.997 141.809C322.989 141.45 319.203 141.609 315.248 142.263C311.771 142.839 308.452 143.919 305.265 145.321C299.051 147.981 293.551 151.967 288.927 156.489C284.068 161.197 280.101 166.679 276.983 172.513C273.253 179.399 270.423 186.707 267.605 193.959C264.461 202.144 261.254 210.317 256.654 217.906C259.666 218.942 262.69 219.922 265.702 220.958C270.363 204.486 275.063 187.197 272.082 169.79C269.625 155.261 261.942 140.533 248.148 131.786C238.892 125.922 227.93 123.535 217.173 121.425C217.042 124.285 216.847 127.131 216.716 129.99C233.036 131.308 248.518 124.911 260.138 115.535C273.027 105.126 280.773 90.2936 286.078 75.4863C289.177 66.879 291.277 58.0061 292.419 48.9936C292.686 46.7514 291.236 44.2126 288.561 43.7765C286.15 43.3362 283.325 44.5775 283.023 46.9892Z" fill="#231F20"/>
<path d="M83.9073 125.526C84.1034 129.984 84.1616 134.474 84.0935 138.937C84.1027 141.118 84.049 143.287 83.9319 145.442C83.8991 146.555 83.8778 147.611 83.7819 148.71C83.7515 149.175 83.7092 149.697 83.6788 150.162C83.6413 150.979 83.6671 150.218 83.6905 150.105C83.6834 150.457 83.6765 150.809 83.5946 151.205C83.0913 159.996 82.0827 168.682 80.6837 177.347C80.1128 181.058 79.3645 184.673 78.3517 188.293C78.1131 189.127 77.8743 189.961 77.5726 190.782C77.4158 191.221 77.2593 191.66 77.1026 192.099C76.9459 192.538 77.0651 192.916 77.1259 191.986C77.1306 192.281 76.8709 192.581 76.8124 192.864C76.1341 194.549 75.4044 196.166 74.4853 197.743C74.0573 198.538 73.5779 199.263 73.0868 200.045C72.8903 200.358 72.5561 200.701 72.4227 201.027C72.8507 200.232 72.7687 200.627 72.5956 200.827C72.4109 201.083 72.2377 201.283 72.053 201.539C70.8298 202.995 69.5039 204.311 68.0001 205.531C67.6143 205.804 67.2799 206.148 66.894 206.421C66.9806 206.321 67.6776 205.818 67.0555 206.278C66.8941 206.421 66.7327 206.564 66.5199 206.638C65.7364 207.242 64.8897 207.832 64.0431 208.423C62.4365 209.504 60.7038 210.559 58.9826 211.558C57.1117 212.643 55.2009 213.602 53.2272 214.549C52.2029 215.043 51.1787 215.538 50.1029 215.964C49.8784 216.094 49.5908 216.211 49.378 216.285C49.24 216.315 48.3654 216.723 49.0155 216.445C49.7288 216.181 48.7279 216.563 48.653 216.606C48.3654 216.723 48.0147 216.827 47.7154 217.001C43.4124 218.702 39.0183 220.207 34.5844 221.587C32.6808 222.194 31.123 223.992 31.4432 225.944C31.7237 227.769 33.2391 229.674 35.3461 229.992C39.3706 230.59 43.3834 231.244 47.3892 232.25C50.0176 232.912 52.6227 233.687 55.1529 234.506C56.5817 234.919 57.9472 235.32 59.376 235.733C59.818 235.825 60.2483 235.973 60.6786 236.121C60.8049 236.147 60.868 236.16 60.9826 236.243C61.476 236.404 61.3497 236.378 60.6154 236.108C60.73 236.19 61.0459 236.256 61.1722 236.282C62.1473 236.661 63.1223 237.039 64.074 237.531C64.9112 237.94 65.7367 238.405 66.499 238.858C66.7399 238.967 66.906 239.119 67.1469 239.227C67.7315 239.584 66.1037 238.54 66.969 239.132C67.4273 239.462 67.8343 239.723 68.2927 240.054C69.8968 241.211 71.3512 242.454 72.7191 243.798C72.8852 243.95 73.0394 244.159 73.2055 244.311C73.8064 244.907 73.0395 244.159 72.988 244.089C73.119 244.411 73.7432 244.894 73.949 245.172C74.6411 245.963 75.2703 246.742 75.8993 247.52C77.0941 249.063 78.2657 250.72 79.2477 252.337C79.7388 253.145 80.2297 253.954 80.6576 254.75C81.1884 255.684 80.19 253.828 80.6576 254.75C80.7488 254.945 80.8518 255.084 80.9429 255.28C81.2282 255.81 81.5133 256.341 81.7354 256.858C82.6192 258.631 83.4399 260.392 84.1857 262.196C85.8084 266.125 87.2067 270.185 88.4154 274.206C89.0794 276.405 89.7317 278.661 90.3325 280.847C90.4915 281.351 90.5874 281.842 90.7464 282.347C90.8259 282.599 90.8938 282.907 90.9733 283.159C91.1369 283.959 90.9615 283.216 90.9335 283.033C91.2678 284.281 91.4758 285.502 91.7469 286.736C93.9328 296.85 95.113 307.051 95.2994 317.281C95.3086 319.462 97.6518 321.184 99.8453 321.403C102.429 321.643 104.118 320.167 104.815 318.073C110.545 301.527 109.244 283.644 113.913 266.819C114.256 265.477 114.727 264.16 115.122 262.887C115.255 262.561 115.389 262.235 115.459 261.896C115.639 261.345 115.024 263.044 115.325 262.222C115.361 262.053 115.447 261.953 115.482 261.784C115.761 261.075 116.039 260.367 116.317 259.659C117.482 256.896 118.836 254.172 120.293 251.587C121.102 250.223 121.911 248.858 122.784 247.507C123.177 246.882 123.558 246.313 124.002 245.757C124.199 245.444 124.458 245.144 124.655 244.832C125.099 244.275 124.47 245.088 124.395 245.131C124.568 244.931 124.678 244.719 124.851 244.519C126.727 242.138 128.78 239.854 131.114 237.804C131.685 237.274 132.319 236.757 132.953 236.24C133.039 236.14 133.736 235.637 133.039 236.14C132.405 236.657 133.114 236.097 133.263 236.01C133.575 235.78 133.885 235.55 134.26 235.333C135.567 234.425 136.989 233.6 138.45 232.902C138.825 232.684 139.25 232.537 139.613 232.376C140.125 232.129 138.612 232.758 139.175 232.58C139.388 232.507 139.601 232.433 139.825 232.303C140.602 232.051 141.315 231.786 142.155 231.548C142.92 231.353 143.684 231.158 144.437 231.019C144.575 230.989 145.391 230.863 144.512 230.975C143.696 231.101 144.374 231.006 144.575 230.989C145.052 230.911 145.517 230.889 145.983 230.868C147.994 230.695 150.038 229.41 150.298 227.52C150.569 225.573 149.622 223.786 147.667 222.733C140.088 218.631 131.838 215.862 124.173 211.86C123.284 211.381 122.396 210.903 121.519 210.368C121.341 210.272 121.163 210.176 120.986 210.081C120.871 209.998 120.132 209.433 120.756 209.915C121.381 210.398 120.642 209.833 120.527 209.75C120.298 209.585 120.006 209.407 119.777 209.241C118.098 208.128 116.58 206.871 115.149 205.514C114.932 205.292 114.714 205.071 114.485 204.905C113.987 204.449 114.576 205.101 114.703 205.127C114.501 205.145 113.844 204.184 113.69 203.975C113.009 203.127 112.329 202.279 111.723 201.388C111.221 200.636 110.73 199.827 110.239 199.019C109.993 198.615 109.748 198.21 109.502 197.806C110.147 198.823 109.748 198.21 109.605 197.945C109.463 197.68 109.332 197.358 109.126 197.08C107.426 193.841 106.14 190.512 105.067 187.109C104.788 186.226 104.562 185.413 104.347 184.544C104.227 184.166 104.108 183.788 104.064 183.366C103.973 183.171 103.956 182.932 103.865 182.736C103.65 181.867 104.08 183.605 103.853 182.792C103.435 180.997 103.091 179.159 102.736 177.377C101.345 169.784 100.632 162.096 99.6435 154.469C98.2224 144.16 96.198 133.903 92.8686 123.905C92.1415 121.693 89.0105 120.279 86.6813 121.034C84.1393 121.862 83.0165 124.104 83.7717 126.499C84.59 128.907 85.3336 131.358 86.0139 133.797C86.3085 134.918 86.6662 136.053 86.8976 137.161C86.8579 137.035 86.6942 136.235 86.8578 137.035C86.9373 137.287 87.0052 137.596 87.0846 137.848C87.2202 138.465 87.3556 139.082 87.5029 139.643C88.4521 143.963 89.2002 148.3 89.8102 152.668C90.9532 160.504 91.6941 168.375 92.9751 176.181C94.2 183.621 96.0049 191.123 99.3625 198.122C101.158 201.852 103.258 205.703 106.153 208.894C109.242 212.421 112.873 215.234 117.04 217.688C125.363 222.651 134.899 225.568 143.429 230.162C143.991 227.451 144.552 224.739 145.125 221.971C130.542 223.076 120.112 233.699 113.369 244.321C109.868 249.782 107.193 255.708 105.211 261.778C102.667 269.616 101.614 277.881 100.71 286.059C99.5475 296.128 98.5741 306.236 95.2644 315.86C98.4401 316.105 101.604 316.406 104.78 316.652C104.596 307.365 103.567 298.02 101.786 288.815C99.9532 279.54 97.4656 270.247 93.9889 261.28C91.0125 253.712 87.1172 246.131 81.442 239.831C78.3297 236.418 74.9857 233.487 70.8817 231.046C67.2596 228.824 63.2375 227.579 59.1406 226.377C56.1567 225.523 53.2595 224.57 50.2639 223.773C45.8278 222.619 41.3729 221.873 36.8433 221.171C37.1144 223.996 37.3339 226.751 37.605 229.576C45.9092 226.995 54.1059 223.979 61.7203 219.96C69.2716 215.927 76.5448 211.011 81.2971 204.278C85.8647 197.801 88.0189 189.941 89.4085 182.276C91.0086 173.594 92.0403 164.794 92.6699 156.029C93.4259 145.7 93.6137 135.253 93.1982 124.857C93.0744 122.593 90.4743 120.523 87.9978 120.717C85.5891 121.22 83.7555 123.079 83.9073 125.526Z" fill="#231F20"/>
<path d="M308.739 290.723C308.98 294.013 309.031 297.264 308.87 300.588C308.888 300.18 308.895 299.828 308.914 299.419C308.563 305.886 307.356 312.352 305.11 318.426C305.255 318.043 305.388 317.717 305.534 317.335C303.723 322.262 301.242 326.932 298.061 331.163C298.321 330.864 298.517 330.551 298.777 330.251C297.236 332.289 295.58 334.243 293.695 336.033C292.778 336.962 291.735 337.865 290.704 338.712C290.231 339.086 289.759 339.459 289.287 339.833C290.543 338.856 289.523 339.646 289.212 339.876C288.901 340.106 288.59 340.336 288.29 340.51C286.125 342.065 283.742 343.397 281.319 344.604C280.732 344.895 280.082 345.173 279.495 345.464C279.132 345.624 277.907 346.136 279.42 345.507C279.069 345.611 278.77 345.785 278.407 345.945C277.044 346.488 275.629 346.961 274.215 347.434C271.546 348.236 268.913 348.869 266.125 349.293C266.539 349.202 266.941 349.168 267.355 349.077C265.384 349.375 263.413 349.674 261.43 350.029C260.062 350.276 258.768 350.48 257.646 351.131C255.125 352.494 254.86 355.679 256.754 357.662C257.727 358.688 259.196 359.228 260.452 359.842C262.596 360.934 264.717 362.139 266.751 363.443C266.407 363.196 266.052 363.004 265.708 362.756C271.227 366.314 276.439 370.398 280.891 374.972C280.994 375.111 281.109 375.194 281.212 375.333C280.29 374.376 280.662 374.807 280.891 374.972C281.16 375.263 281.378 375.485 281.647 375.777C282.133 376.29 282.608 376.859 283.031 377.359C283.814 378.346 284.597 379.333 285.294 380.42C285.654 380.907 285.94 381.437 286.288 381.981C286.431 382.246 286.573 382.511 286.716 382.776C286.859 383.041 287.093 383.502 286.419 382.302C286.51 382.498 286.613 382.637 286.704 382.833C287.275 383.893 287.834 385.011 288.255 386.158C289.417 388.814 290.228 391.574 290.964 394.377C290.845 393.999 290.789 393.634 290.67 393.256C293.204 403.913 293.124 414.795 293.004 425.551C292.936 428.423 292.931 431.309 292.926 434.195C292.916 435.194 293.756 436.546 294.546 437.181C295.4 437.829 296.375 438.208 297.472 438.317C299.866 438.518 301.934 437.12 302.441 434.987C303.602 430.337 304.762 425.688 305.934 420.982C307.059 416.502 308.006 411.927 309.636 407.551C309.491 407.934 309.358 408.26 309.213 408.642C310.652 404.875 312.406 401.173 314.326 397.624C315.28 395.877 316.297 394.144 317.315 392.411C318.199 391.003 319.031 389.526 320.042 388.145C319.782 388.444 319.585 388.757 319.326 389.057C320.584 387.432 322.072 385.973 323.725 384.666C323.961 384.479 324.197 384.292 324.445 384.049C324.993 383.632 323.437 384.783 324.296 384.136C324.843 383.719 325.378 383.359 325.926 382.942C326.934 382.208 327.993 381.544 329.052 380.879C331.309 379.52 333.68 378.244 336.103 377.037C336.69 376.747 337.265 376.512 337.852 376.221C338.14 376.104 338.428 375.987 338.727 375.813C338.877 375.727 339.026 375.64 339.227 375.622C339.015 375.696 338.14 376.104 338.802 375.77C339.953 375.301 341.166 374.846 342.317 374.377C344.658 373.566 347.05 372.824 349.562 372.46C349.148 372.551 348.746 372.586 348.332 372.677C348.533 372.66 348.734 372.642 348.947 372.569C350.165 372.409 351.355 372.066 352.186 371.236C352.866 370.494 353.243 369.629 353.315 368.643C353.432 366.487 351.802 364.5 349.403 364.003C348.33 363.781 347.268 363.502 346.281 363.18C346.712 363.328 347.079 363.463 347.509 363.611C345.484 362.897 343.506 361.957 341.7 360.818C342.044 361.066 342.4 361.257 342.743 361.505C341.637 360.805 340.606 360.061 339.661 359.217C339.151 358.817 338.717 358.374 338.207 357.974C337.989 357.752 337.709 357.517 337.491 357.295C337.377 357.213 337.274 357.074 337.159 356.991C337.108 356.921 337.056 356.852 336.993 356.839C336.621 356.408 337.531 357.421 337.48 357.352C335.66 355.326 333.991 353.213 332.483 350.956C332.146 350.356 331.734 349.8 331.398 349.2C331.255 348.935 331.061 348.6 330.918 348.335C330.53 347.666 331.307 349.005 331.164 348.739C331.073 348.544 330.97 348.405 330.879 348.209C330.154 346.94 329.567 345.64 328.917 344.327C327.64 341.588 326.577 338.776 325.651 335.934C324.554 332.643 323.607 329.266 322.787 325.915C322.906 326.293 322.962 326.658 323.081 327.036C320.711 317.179 319.369 307.122 318.619 297.07C318.444 294.736 318.32 292.472 318.208 290.151C318.084 287.887 315.484 285.817 313.007 286.011C310.421 286.418 308.587 288.277 308.739 290.723C309.001 296.138 309.388 301.58 310.041 307.017C310.77 313.353 311.815 319.755 313.21 326.053C314.737 332.672 316.591 339.301 319.359 345.647C321.803 351.337 324.964 357.058 329.318 361.789C331.418 364.05 333.667 366.224 336.338 367.955C339.3 369.864 342.294 371.309 345.771 372.323C346.454 372.524 347.148 372.668 347.78 372.798C347.911 369.939 348.105 367.092 348.236 364.233C342.685 364.969 337.617 366.865 332.68 369.083C327.743 371.301 322.978 373.966 318.761 377.158C316.659 378.726 314.682 380.319 312.963 382.261C310.973 384.559 309.441 387.187 307.921 389.759C304.256 396.01 301.01 402.466 298.991 409.353C297.857 413.242 296.963 417.24 296.018 421.168C295.05 425.209 294.03 429.18 293.062 433.221C296.237 433.466 299.401 433.768 302.577 434.013C302.632 422.301 303.289 410.538 301.494 398.855C300.545 392.944 299.091 386.929 296.285 381.4C294.894 378.578 293.215 375.874 291.237 373.344C288.927 370.509 286.254 367.835 283.471 365.374C280.42 362.621 277.132 360.055 273.66 357.746C271.7 356.397 269.654 355.149 267.533 353.944C265.819 353 264.081 352.169 262.356 351.281C262.699 351.529 263.055 351.721 263.399 351.969C263.862 352.595 264.273 353.151 264.736 353.777C264.855 354.155 264.911 354.521 265.031 354.899C265.012 355.307 265.005 355.659 264.986 356.068C264.841 356.45 264.708 356.776 264.563 357.158C264.303 357.458 264.107 357.771 263.847 358.07C263.363 358.5 262.729 359.017 262.114 359.125C262.252 359.095 262.327 359.052 262.465 359.021C262.816 358.917 263.155 358.87 263.506 358.766C264.471 358.553 265.489 358.41 266.506 358.267C266.092 358.358 265.69 358.393 265.276 358.484C268.063 358.06 270.914 357.649 273.685 356.985C276.87 356.231 279.913 355.211 282.864 353.996C289.141 351.349 294.8 347.867 299.601 343.441C308.846 335.046 314.483 323.724 316.967 312.044C318.417 305.04 318.806 297.756 318.315 290.585C318.128 288.308 315.666 286.208 313.115 286.445C310.484 286.431 308.524 288.264 308.739 290.723Z" fill="#231F20"/>
<path d="M403.73 154.103C403.802 156.298 403.812 158.479 403.758 160.648C403.737 161.704 403.704 162.816 403.671 163.929C403.664 164.281 403.652 165.928 403.657 164.633C403.654 165.28 403.589 165.915 403.535 166.493C403.215 170.904 402.756 175.345 402.108 179.747C400.8 188.607 398.912 197.406 396.416 205.961C395.782 208.069 395.149 210.176 394.503 212.34C394.178 213.274 393.904 214.278 393.579 215.212C393.422 215.651 393.266 216.09 393.097 216.585C393.051 216.811 392.941 217.024 392.906 217.193C392.772 217.519 392.87 217.363 393.074 216.698C393.039 216.867 392.941 217.024 392.906 217.193C391.589 220.691 389.968 224.067 388.169 227.347C387.239 228.98 386.245 230.601 385.199 232.151C384.645 232.92 384.154 233.702 383.599 234.471C383.489 234.684 383.328 234.827 383.218 235.04C383.819 234.045 383.501 234.627 383.316 234.884C382.97 235.283 382.676 235.753 382.329 236.152C379.935 239.132 377.322 241.89 374.355 244.457C373.548 245.173 372.678 245.877 371.82 246.524C371.584 246.711 371.146 246.915 372.056 246.337C371.82 246.524 371.52 246.698 371.284 246.884C370.823 247.201 370.426 247.531 369.965 247.848C368.197 249.073 366.389 250.171 364.455 251.244C363.494 251.751 362.533 252.259 361.509 252.754C360.997 253.002 360.433 253.179 359.984 253.44C360.957 252.876 360.559 253.206 360.197 253.366C359.909 253.483 359.621 253.601 359.271 253.705C357.194 254.512 355.003 255.236 352.784 255.778C350.84 256.26 349.374 258.253 349.643 260.135C349.755 260.865 349.993 261.622 350.456 262.248C351.011 263.069 352.449 264.074 353.545 264.183C357.869 264.607 362.146 265.257 366.353 266.246C368.425 266.734 370.422 267.265 372.471 267.866C372.964 268.027 373.521 268.202 374.014 268.363C374.381 268.498 376.228 269.116 374.634 268.55C375.672 268.942 376.722 269.277 377.76 269.668C381.736 271.14 385.652 272.893 389.396 274.847C391.3 275.83 393.191 276.87 394.997 278.009C395.404 278.27 395.759 278.462 396.166 278.723C396.395 278.888 396.636 278.997 396.865 279.162C395.633 278.435 396.458 278.901 396.75 279.079C397.679 279.684 398.544 280.275 399.472 280.88C402.985 283.316 406.336 285.895 409.45 288.66C411.008 290.043 412.502 291.413 413.91 292.883C414.293 293.256 414.676 293.63 415.06 294.004C415.214 294.213 415.443 294.378 415.598 294.587C414.728 293.7 415.111 294.074 415.329 294.296C416.136 295.17 416.891 295.974 417.635 296.835C420.3 299.861 422.793 303.087 425.009 306.374C426.169 308.087 427.254 309.843 428.328 311.656C428.51 312.047 428.767 312.395 428.949 312.786C428.161 311.504 429.092 313.051 429.223 313.373C429.691 314.294 430.158 315.216 430.626 316.138C432.564 320.132 434.215 324.244 435.464 328.391C435.77 329.456 436.076 330.521 436.331 331.516C436.546 332.385 436.088 330.464 436.291 331.39C436.359 331.699 436.415 332.064 436.483 332.372C436.579 332.863 436.674 333.355 436.77 333.846C437.233 336.062 437.558 338.309 437.757 340.53C438.007 342.82 440.406 344.908 442.957 344.67C444.164 344.567 445.429 344.181 446.196 343.338C447.05 342.395 447.323 341.392 447.38 340.166C447.391 340.11 447.424 338.997 447.41 339.701C447.396 340.405 447.417 339.349 447.429 339.293C447.448 338.884 447.466 338.476 447.485 338.067C447.546 337.137 447.607 336.207 447.731 335.29C447.897 333.852 448.063 332.414 448.292 330.988C448.685 328.772 449.216 326.526 449.609 324.31C450.182 321.542 450.555 318.791 450.812 315.958C450.992 313.815 451.109 311.66 451.226 309.505C451.294 308.223 451.362 306.941 451.442 305.602C451.425 305.363 451.472 305.137 451.456 304.898C451.489 303.786 451.442 305.602 451.456 304.898C451.521 304.264 451.512 303.673 451.578 303.038C451.84 298.91 452.177 294.738 452.893 290.645C453.262 288.542 453.683 286.508 454.305 284.457C454.567 283.51 454.841 282.506 455.229 281.585C454.731 282.719 455.473 281.047 455.519 280.821C455.763 280.282 455.931 279.787 456.174 279.248C456.916 277.575 457.835 275.998 458.805 274.491C459.21 273.809 459.678 273.14 460.145 272.471C460.342 272.158 460.539 271.845 460.786 271.602C460.896 271.389 461.058 271.246 461.168 271.033C461.797 270.22 460.885 271.446 461.156 271.089C463.291 268.409 465.592 265.881 468.174 263.588C468.894 262.971 469.879 262.351 470.548 261.664C470.473 261.708 469.69 262.311 470.312 261.851C470.548 261.664 470.772 261.534 471.009 261.347C471.394 261.074 471.78 260.8 472.166 260.527C473.773 259.445 475.431 258.434 477.204 257.505C478.09 257.04 479.039 256.589 479.989 256.138C480.714 255.816 479.764 256.268 479.701 256.255C479.977 256.194 480.213 256.007 480.489 255.947C480.99 255.756 481.49 255.565 481.928 255.361C483.855 254.64 485.81 254.103 487.879 253.648C489.811 253.223 491.301 251.116 491.02 249.291C490.711 247.283 489.241 245.8 487.117 245.242C484.931 244.672 482.756 244.045 480.593 243.361C480.099 243.2 479.606 243.039 479.113 242.878C478.86 242.826 478.631 242.66 478.378 242.608C479.653 242.813 478.809 242.756 478.442 242.621C477.34 242.217 476.227 241.868 475.189 241.476C471.036 239.91 466.981 238.186 463.099 236.263C461.133 235.267 459.229 234.284 457.349 233.188C456.472 232.653 455.583 232.174 454.643 231.626C454.529 231.543 453.296 230.817 453.296 230.817C453.474 230.913 453.64 231.065 453.818 231.16C453.64 231.065 453.474 230.913 453.296 230.817C453.067 230.652 452.775 230.473 452.546 230.308C448.896 227.903 445.482 225.311 442.252 222.462C440.644 221.01 439.035 219.558 437.576 218.018C437.41 217.866 437.307 217.727 437.14 217.575C438.073 218.475 437.295 217.783 437.14 217.575C436.82 217.214 436.437 216.84 436.116 216.479C435.361 215.675 434.681 214.827 434 213.979C432.691 212.353 431.393 210.67 430.233 208.958C429.022 207.175 428.024 205.319 426.875 203.549C427.572 204.636 426.733 203.284 426.602 202.963C426.368 202.502 426.123 202.098 425.889 201.637C425.37 200.646 424.914 199.668 424.458 198.69C423.546 196.733 422.772 194.747 421.998 192.76C420.513 188.801 419.305 184.78 418.246 180.673C418.218 180.49 418.126 180.295 418.098 180.112C418.07 179.93 417.979 179.734 417.951 179.551C418.087 180.169 418.138 180.238 418.031 179.803C417.883 179.243 417.748 178.626 417.601 178.065C417.369 176.957 417.138 175.848 416.906 174.74C416.455 172.467 416.015 170.137 415.627 167.877C414.823 163.175 414.145 158.498 413.467 153.822C413.143 151.575 410.882 149.457 408.267 149.682C405.613 149.78 403.377 151.674 403.73 154.103C406.126 171.153 408.669 188.763 416.899 204.665C421.08 212.777 426.596 220.163 433.534 226.725C440.089 232.913 447.761 238.154 455.884 242.487C465.138 247.407 475.102 251.12 485.351 253.772C485.08 250.947 484.86 248.192 484.589 245.367C468.935 248.783 456.328 259.427 449.152 272.139C444.781 279.893 443.118 288.562 442.437 297.258C442.261 299.695 442.097 302.077 441.985 304.528C441.931 305.106 441.952 305.64 441.898 306.218C441.915 306.457 441.868 306.683 441.884 306.922C441.851 308.035 441.898 306.218 441.873 306.979C441.84 308.091 441.732 309.247 441.699 310.36C441.451 313.784 441.203 317.208 440.576 320.554C440.113 323.109 439.523 325.638 439.06 328.193C438.356 332.23 438.031 336.345 437.832 340.487C441.014 340.38 444.209 340.217 447.455 340.123C445.774 323.751 438.549 307.763 427.477 294.455C416.417 281.09 401.604 269.952 384.844 263.123C375.495 259.303 365.51 256.646 355.426 255.736C355.697 258.561 355.917 261.317 356.188 264.141C373.299 259.732 386.622 248.175 395.18 234.512C399.612 227.418 402.524 219.715 404.891 211.781C407.56 203.026 409.66 194.153 411.129 185.149C412.804 174.833 413.722 164.36 413.456 153.878C413.395 151.627 410.732 149.544 408.255 149.738C405.412 149.797 403.705 151.683 403.73 154.103Z" fill="#231F20"/>
</svg>
