<svg width="411" height="411" viewBox="0 0 411 411" fill="none" xmlns="http://www.w3.org/2000/svg">
<g clip-path="url(#clip0_253_1171)">
<path d="M182.179 145.084C174.213 143.233 165.836 141.644 157.585 139.172C154.438 138.242 150.057 135.676 149.198 133.137C148.335 130.527 150.177 126.118 152.377 124.22C160.059 117.52 168.197 111.345 176.604 105.505C179.884 103.207 180.624 100.655 180.576 96.7762C180.315 83.7475 180.126 70.7229 180.478 57.8365C180.543 54.6758 182.288 49.835 184.396 49.3888C187.171 48.8036 191.883 50.9624 194.337 53.4164C201.057 60.1365 207.244 67.4657 213.326 74.8242C216.119 78.2224 216.345 79.6578 221.686 76.7331C227.682 73.4554 233.556 69.9217 239.909 67.2691C242.13 66.3317 246.268 66.5726 248.135 68.1035C250.036 69.6008 251.565 73.8855 251.018 76.0937C248.733 85.0986 245.794 93.8522 242.598 102.484C241.366 105.755 241.243 107.916 243.777 111.122C254.547 124.513 264.974 138.098 275.505 151.654C276.428 152.845 283.319 161.282 279.316 165.209C277.603 166.923 275.99 168.536 270.06 167.444C254.07 163.953 238.122 159.967 222.233 155.771C218.044 154.674 215.757 155.074 213.731 158.761C209.205 167.137 204.31 175.279 199.193 183.266C197.92 185.218 196.65 189.056 193.074 187.496C190.535 186.638 189.803 183.217 189.313 180.913C186.748 169.208 184.568 157.419 182.179 145.084ZM215.484 93.5813C207.535 98.7365 200.124 103.354 192.943 108.27C191.881 108.954 191.095 110.722 191.102 112.074C191.244 120.615 191.675 129.245 192.009 138.047C197.784 139.521 202.707 141.016 207.701 141.911C209.212 142.213 211.614 141.321 212.29 140.116C217.362 130.74 222.179 121.243 226.81 111.628C227.415 110.418 227.236 107.955 226.423 106.805C223.181 102.421 219.494 98.3304 215.484 93.5813ZM265.689 155.882C255.027 142.533 245.553 130.639 235.692 118.225C230.909 127.689 226.476 136.426 221.66 145.924C236.433 149.273 250.232 152.387 265.689 155.882ZM189.853 62.5067C190.051 74.4651 190.221 84.7152 190.39 96.1741C196.865 91.9643 202.349 88.4434 208.241 84.5907C202.163 77.3035 196.547 70.612 189.853 62.5067ZM180.862 115.744C173.807 120.987 167.84 125.369 160.546 130.775C168.755 132.533 175.197 133.868 181.748 135.245C181.484 128.865 181.219 123.09 180.862 115.744ZM238.881 78.9429C234.216 81.8714 229.551 84.7999 224.613 87.9259C227.67 91.5884 230.154 94.5419 233.324 98.3176C235.872 91.3902 239.288 79.2155 238.881 78.9429ZM195.299 166.47C195.769 166.604 202.533 156.971 205.773 151.542C201.224 150.352 197.577 149.393 193.355 148.33C194.098 154.987 194.715 160.712 195.299 166.47Z" fill="black"/>
<path d="M231.543 291.889C224.927 293.673 218.461 295.608 211.828 297.106C203.55 299.042 198.776 294.604 201.001 286.414C203.311 277.837 206.376 269.411 210.26 261.601C212.197 257.625 213.371 252.751 213.371 252.751C213.371 252.751 210.924 246.742 209.959 244.837C206.019 236.998 202.909 228.781 199.77 220.67C196.3 211.756 200.194 207.183 209.385 209.922C216.838 212.134 224.106 215.437 232.033 218.459C236.646 211.58 241.528 204.433 246.297 197.173C248.587 193.751 251.326 189.501 255.883 192.042C258.933 193.748 261.852 198.683 262.416 202.271C263.83 210.674 264.181 219.157 264.205 227.514C264.219 232.635 265.691 235.316 270.772 237.709C280.94 242.568 290.901 248.161 300.627 253.99C303.279 255.566 306.416 259.376 306.49 261.869C306.531 264.396 303.595 267.709 300.991 268.802C290.751 273.077 280.201 276.908 269.478 280.23C264.974 281.639 263.684 283.911 263.668 288.532C263.619 299.907 263.356 311.27 262.518 322.528C262.289 325.324 261.036 328.842 258.06 330.233C255.695 331.767 252.051 327.181 250.562 324.819C244.008 314.233 238.08 303.399 231.543 291.889ZM236.381 280.331C241.793 278.619 246.663 277.373 251.285 275.545C252.675 274.986 254.087 272.97 254.209 271.413C254.756 263.089 255.017 254.748 255.026 246.357C255.044 244.83 255.377 243.213 252.473 241.587C247.618 238.815 242.44 236.594 236.88 233.923C233.035 241.166 229.308 247.989 225.945 254.976C225.344 256.257 224.786 256.438 226.417 260.017C229.325 266.622 232.797 273.117 236.381 280.331ZM264.271 271.394C273.238 267.862 281.232 264.701 290.511 261.01C281.011 256.012 273.164 251.929 264.583 247.447C264.486 255.548 264.377 262.831 264.271 271.394ZM218.393 243.727C221.406 238.072 223.742 233.621 226.402 228.62C220.515 225.824 215.32 223.317 208.447 220.073C212.118 228.784 214.968 235.599 218.393 243.727ZM251.655 309.38C252.007 309.33 253.339 293.727 253.705 285.357C249.091 286.724 245.279 287.818 240.98 289.096C244.775 296.251 248.217 302.851 251.655 309.38ZM253.371 228.91C253.077 222.03 252.741 215.042 252.469 207.915C249.322 213.1 246.179 218.358 242.704 224.022C246.833 225.934 250.375 227.526 253.371 228.91ZM219.713 267.022C216.665 274.525 214.265 280.323 211.373 287.444C217.531 285.74 222.292 284.453 227.468 282.976C225.004 277.891 222.744 273.279 219.713 267.022Z" fill="black"/>
<path d="M103.728 185.78C107.372 177.53 110.664 169.33 114.547 161.52C115.694 159.24 118.651 156.283 120.376 156.597C124.221 157.283 126.183 160.455 126.861 162.948C130.183 174.804 133.013 186.773 135.452 198.755C136.411 203.611 138.088 206.767 142.825 209.354C150.936 213.701 158.866 218.608 166.498 223.887C169.091 225.674 172.195 229.517 172.126 232.002C172.053 234.415 168.66 237.205 165.981 238.222C159.587 240.765 152.798 242.646 146.031 244.279C141.648 245.339 140.174 247.493 140.062 252.287C139.834 260.594 138.75 268.851 137.373 276.949C136.176 283.884 132.238 285.254 127.591 279.935C124.957 276.83 121.999 273.672 119.596 270.261C116.887 266.476 111.452 258.017 110.706 257.405C104.941 259.772 99.0964 262.596 92.9207 264.619C90.2674 265.46 85.8389 265.736 84.1819 264.146C82.1138 262.212 80.8196 257.692 81.3711 254.951C83.3414 245.43 90.7101 221.752 90.7101 221.752C87.6539 215.671 81.494 205.748 78.2656 199.765C74.9535 193.563 71.6413 187.361 68.5055 181.134C67.2981 178.717 66.625 174.482 67.8599 173.096C69.1956 171.61 73.4183 171.464 75.8229 172.458C85.0128 176.406 93.9589 181.051 103.728 185.78ZM114.457 245.499C119.47 243.657 123.828 242.169 128.064 240.424C129.139 239.953 130.601 238.794 130.547 237.866C130.056 230.051 129.314 222.185 128.504 214.387C128.467 213.745 127.632 212.843 126.969 212.449C120.894 208.859 114.822 205.342 108.566 201.706C106.148 208.428 103.958 214.167 102.095 220.032C101.552 221.707 101.374 224.15 102.209 225.657C105.932 232.202 110.105 238.525 114.457 245.499ZM126.763 199.743C124.872 189.251 120.464 170.931 119.893 170.898C117.442 177.653 114.919 184.405 112.375 191.403C117.012 194.091 121.17 196.502 126.763 199.743ZM93.9357 211.806C96.0423 205.848 97.7283 201.218 99.4986 196.201C92.8815 192.473 86.6295 188.909 78.9466 184.586C84.2337 194.174 88.7283 202.365 93.9357 211.806ZM139.79 236.626C146.209 234.511 151.86 232.636 158.561 230.466C151.39 226.386 145.469 223.019 139.037 219.409C139.281 225.432 139.504 230.494 139.79 236.626ZM97.0489 234.139C94.891 241.658 93.1494 247.779 90.9284 255.436C97.0332 252.805 101.471 250.859 106.081 248.816C103.1 244.02 100.584 239.891 97.0489 234.139ZM128.097 268.48C128.697 268.408 130.686 256.15 131.131 249.136C126.576 250.898 123.31 252.201 119.556 253.689C122.638 258.989 125.368 263.734 128.097 268.48Z" fill="black"/>
</g>
<defs>
<clipPath id="clip0_253_1171">
<rect width="273.705" height="307.537" fill="white" transform="translate(0 193.539) rotate(-45)"/>
</clipPath>
</defs>
</svg>
