<svg width="287" height="74" viewBox="0 0 287 74" fill="none" xmlns="http://www.w3.org/2000/svg">
<path d="M33.6 19.84C35.28 19.84 36.4 21.12 37.36 22.16C38.96 23.76 41.44 26.56 44.4 26.56C45.12 26.56 45.92 26.4 46.72 26C49.12 24.8 50.8 22.24 50.8 18.96C50.8 15.04 48.64 12 46.64 9.76C42.88 5.28 36.72 0.559997 29.04 0.559997C18.72 0.559997 11.04 8.88 11.04 18.96C11.04 24.24 13.12 29.44 16.72 33.36C20 36.96 24.48 39.52 26.8 44.08C27.04 44.64 27.44 45.36 27.44 46.16C27.44 48 25.76 48.8 24.56 48.8C23.28 48.8 21.84 48.16 21.04 47.2C17.68 43.36 16.88 35.92 9.76 35.92C4.96 35.92 1.92 39.6 0.72 43.2C0.24 44.64 0.08 46.08 0.08 47.44C0.08 52.24 2.48 56.4 4.56 59.28C10.24 67.12 19.2 72.72 28.88 73.36C29.52 73.36 30.08 73.44 30.72 73.44C36.32 73.44 42 71.76 46.16 68.08C49.2 65.44 52.16 60.96 52.16 55.52C52.16 54.24 52 52.88 51.6 51.44C48.16 39.68 34.16 37.04 30.96 25.04C30.8 24.4 30.72 23.68 30.72 23.04C30.72 21.2 31.6 19.84 33.6 19.84ZM44.4 17.76C43.84 17.76 43.6 17.52 43.2 17.28C41.76 16.08 40.32 14.72 39.36 13.04C39.2 12.72 39.04 12.4 38.96 12C38.96 10.88 39.44 10.32 40.64 10.32C41.04 10.32 41.44 10.4 41.76 10.56C43.6 11.52 44.88 14.16 45.04 16.56V17.04C45.04 17.28 44.72 17.76 44.4 17.76ZM46.96 52.48V53.04C46.96 53.28 46.64 53.76 46.32 53.76C45.76 53.76 45.44 53.44 45.12 53.2C43.68 52 42.24 50.72 41.28 49.04C41.12 48.72 40.96 48.32 40.88 47.92C40.88 46.88 41.28 46.32 42.4 46.32C45.28 46.32 46.88 49.84 46.96 52.48ZM14.32 47.2C13.76 47.2 13.52 46.96 13.12 46.72C11.68 45.52 10.24 44.16 9.28 42.48C9.12 42.16 8.96 41.84 8.88 41.44C8.88 40.32 9.36 39.76 10.56 39.76C10.96 39.76 11.36 39.84 11.68 40C13.52 40.96 14.8 43.6 14.96 46V46.48C14.96 46.72 14.64 47.2 14.32 47.2ZM109.274 56.48C109.274 53.12 107.514 50.64 105.754 48.56C102.634 44.8 98.7937 41.76 94.6338 39.12C90.5538 36.56 85.9938 34.64 81.7538 32.24C81.2738 32 80.7938 31.6 80.7938 30.96C80.7938 30.32 81.1138 29.84 81.4338 29.52C86.8738 22.64 95.4338 19.52 102.714 14.48C104.234 13.44 106.394 11.92 106.394 9.44C106.394 7.2 104.154 5.76 102.154 5.76H101.914C100.154 5.76 98.4738 6.48 96.9538 7.28C90.5538 10.48 84.3138 14.96 80.3138 20.8C80.3938 19.52 80.4738 18.24 80.4738 16.96C80.4738 14.4 80.2338 11.92 79.3538 9.52C77.8338 5.2 73.5138 0.879997 67.9138 0.879997C62.7138 0.879997 58.6338 4.64 57.0338 8.48C55.9138 11.04 55.5138 13.76 55.5138 16.56C55.5138 18.24 55.6738 19.92 55.8338 21.6C57.0338 33.04 60.4738 44.24 62.8738 55.52C63.3538 57.6 63.7538 59.68 64.9538 61.44C65.9138 62.8 67.6738 64.24 69.9138 64.24C74.1537 64.24 75.4338 59.84 75.9938 56.24C76.6338 51.92 77.1938 47.6 77.7538 43.2C77.9938 43.44 78.1538 43.68 78.3938 43.92C81.7538 47.68 85.1938 51.28 88.7138 54.8C91.9138 58 95.6738 61.84 100.954 62.72C101.514 62.8 101.994 62.8 102.554 62.8C106.474 62.8 109.274 60.32 109.274 56.48ZM75.5138 16.56H75.1138C73.3538 16.16 73.5938 13.36 73.0338 11.68C72.7938 10.96 72.3138 10.24 71.8338 9.68C71.1938 8.88 70.0738 8.16 69.7538 7.04C69.7538 6.08 70.3138 5.68 70.9538 5.68C71.5138 5.68 72.1538 5.92 72.5538 6.24C74.7938 7.84 76.1538 11.04 76.1538 14.64V15.44C76.1538 15.6 76.0738 15.76 76.0738 15.92C76.0738 16.24 75.8338 16.56 75.5138 16.56ZM101.994 10.88C100.794 10.88 99.6738 9.68 99.4338 8.72C99.4338 7.84 99.9938 7.28 100.794 7.28C100.954 7.28 101.114 7.36 101.274 7.36C102.394 7.6 103.754 8.16 103.754 9.44C103.754 10.32 102.874 10.88 101.994 10.88ZM104.314 56.16H103.914C102.554 55.84 101.914 54 101.194 53.04C100.874 52.64 100.554 52.24 100.154 51.84C99.5138 51.2 98.8738 50.64 98.6338 49.68C98.6338 48.8 98.9538 48.32 99.6738 48.32C101.194 48.32 102.154 49.44 102.874 50.4C103.834 51.52 104.954 53.12 104.954 55.04V55.52C104.954 55.76 104.554 56.16 104.314 56.16ZM130.024 42.48C130.744 36.32 131.384 30.16 132.184 23.92C132.424 21.84 132.664 19.68 132.664 17.36C132.664 13.44 131.464 10.16 129.544 8C127.864 6 125.224 4.16 121.784 4.16C120.344 4.16 118.904 4.48 117.544 5.12C113.224 7.12 110.904 11.6 110.904 17.92C110.904 22.96 111.784 27.2 112.744 31.68C114.184 38.16 115.864 44.56 117.304 51.04C118.104 54.56 119.304 58.56 123.544 58.56C126.104 58.56 127.304 56.88 127.944 54.96C129.064 51.2 129.544 46.72 130.024 42.48ZM128.824 17.2C128.824 17.44 128.584 17.76 128.344 17.76H127.944C127.384 17.52 126.904 17.12 126.744 16.48C126.264 14.72 126.184 12.96 125.144 11.84C124.504 11.12 123.464 10.64 123.304 9.52V9.12C123.304 8.48 123.944 8.48 124.504 8.48C125.784 8.48 126.424 9.2 126.984 9.92C128.184 11.6 128.824 13.44 128.824 16.16V17.2ZM178.107 45.68C176.827 45.68 175.627 45.84 174.427 46.16C168.427 47.84 164.027 52.64 159.467 56C159.307 56.16 158.987 56.24 158.667 56.24C158.347 56.24 158.267 56 158.267 55.68C158.267 55.44 158.267 55.2 158.347 54.96C160.987 44.8 161.947 34.4 162.667 23.92C162.747 22.16 162.907 20.32 162.907 18.48C162.907 15.36 162.587 12.24 161.467 9.36C159.947 5.28 156.267 0.879997 150.907 0.879997C145.787 0.879997 142.267 4.8 140.587 8.56C138.827 12.64 138.667 17.2 138.507 21.6C138.427 24.32 138.347 27.12 138.347 29.84C138.347 37.28 138.827 44.72 140.507 51.92C141.387 55.76 142.747 59.68 145.467 62.48C148.587 65.68 153.227 67.36 158.987 67.36C165.227 67.36 170.507 65.68 176.027 64C178.587 63.2 181.227 62.32 183.467 60.8C185.467 59.36 187.627 56.96 187.627 53.76C187.627 48.72 183.067 45.68 178.107 45.68ZM157.627 16.56H157.227C155.467 16.16 155.707 13.36 155.147 11.68C154.907 10.96 154.427 10.24 153.947 9.68C153.307 8.88 152.187 8.16 151.867 7.04C151.867 6.08 152.427 5.68 153.067 5.68C153.627 5.68 154.267 5.92 154.667 6.24C156.907 7.84 158.267 11.04 158.267 14.64V15.44C158.267 15.6 158.187 15.76 158.187 15.92C158.187 16.24 157.947 16.56 157.627 16.56ZM182.507 55.2C182.347 55.2 182.267 55.12 182.107 55.12C181.787 55.04 181.547 54.88 181.307 54.72C180.187 53.76 178.667 52.64 178.267 51.04V50.48C178.267 49.76 179.227 49.6 179.947 49.76C181.707 50.16 183.147 52 183.147 54.08V54.56C183.147 54.8 182.747 55.2 182.507 55.2ZM227.404 45.68C226.124 45.68 224.924 45.84 223.724 46.16C217.724 47.84 213.324 52.64 208.764 56C208.604 56.16 208.284 56.24 207.964 56.24C207.644 56.24 207.564 56 207.564 55.68C207.564 55.44 207.564 55.2 207.644 54.96C210.284 44.8 211.244 34.4 211.964 23.92C212.044 22.16 212.204 20.32 212.204 18.48C212.204 15.36 211.884 12.24 210.764 9.36C209.244 5.28 205.564 0.879997 200.204 0.879997C195.084 0.879997 191.564 4.8 189.884 8.56C188.124 12.64 187.964 17.2 187.804 21.6C187.724 24.32 187.644 27.12 187.644 29.84C187.644 37.28 188.124 44.72 189.804 51.92C190.684 55.76 192.044 59.68 194.764 62.48C197.884 65.68 202.524 67.36 208.284 67.36C214.524 67.36 219.804 65.68 225.324 64C227.884 63.2 230.524 62.32 232.764 60.8C234.764 59.36 236.924 56.96 236.924 53.76C236.924 48.72 232.364 45.68 227.404 45.68ZM206.924 16.56H206.524C204.764 16.16 205.004 13.36 204.444 11.68C204.204 10.96 203.724 10.24 203.244 9.68C202.604 8.88 201.484 8.16 201.164 7.04C201.164 6.08 201.724 5.68 202.364 5.68C202.924 5.68 203.564 5.92 203.964 6.24C206.204 7.84 207.564 11.04 207.564 14.64V15.44C207.564 15.6 207.484 15.76 207.484 15.92C207.484 16.24 207.244 16.56 206.924 16.56ZM231.804 55.2C231.644 55.2 231.564 55.12 231.404 55.12C231.084 55.04 230.844 54.88 230.604 54.72C229.484 53.76 227.964 52.64 227.564 51.04V50.48C227.564 49.76 228.524 49.6 229.244 49.76C231.004 50.16 232.444 52 232.444 54.08V54.56C232.444 54.8 232.044 55.2 231.804 55.2ZM267.741 19.84C269.421 19.84 270.541 21.12 271.501 22.16C273.101 23.76 275.581 26.56 278.541 26.56C279.261 26.56 280.061 26.4 280.861 26C283.261 24.8 284.941 22.24 284.941 18.96C284.941 15.04 282.781 12 280.781 9.76C277.021 5.28 270.861 0.559997 263.181 0.559997C252.861 0.559997 245.181 8.88 245.181 18.96C245.181 24.24 247.261 29.44 250.861 33.36C254.141 36.96 258.621 39.52 260.941 44.08C261.181 44.64 261.581 45.36 261.581 46.16C261.581 48 259.901 48.8 258.701 48.8C257.421 48.8 255.981 48.16 255.181 47.2C251.821 43.36 251.021 35.92 243.901 35.92C239.101 35.92 236.061 39.6 234.861 43.2C234.381 44.64 234.221 46.08 234.221 47.44C234.221 52.24 236.621 56.4 238.701 59.28C244.381 67.12 253.341 72.72 263.021 73.36C263.661 73.36 264.221 73.44 264.861 73.44C270.461 73.44 276.141 71.76 280.301 68.08C283.341 65.44 286.301 60.96 286.301 55.52C286.301 54.24 286.141 52.88 285.741 51.44C282.301 39.68 268.301 37.04 265.101 25.04C264.941 24.4 264.861 23.68 264.861 23.04C264.861 21.2 265.741 19.84 267.741 19.84ZM278.541 17.76C277.981 17.76 277.741 17.52 277.341 17.28C275.901 16.08 274.461 14.72 273.501 13.04C273.341 12.72 273.181 12.4 273.101 12C273.101 10.88 273.581 10.32 274.781 10.32C275.181 10.32 275.581 10.4 275.901 10.56C277.741 11.52 279.021 14.16 279.181 16.56V17.04C279.181 17.28 278.861 17.76 278.541 17.76ZM281.101 52.48V53.04C281.101 53.28 280.781 53.76 280.461 53.76C279.901 53.76 279.581 53.44 279.261 53.2C277.821 52 276.381 50.72 275.421 49.04C275.261 48.72 275.101 48.32 275.021 47.92C275.021 46.88 275.421 46.32 276.541 46.32C279.421 46.32 281.021 49.84 281.101 52.48ZM248.461 47.2C247.901 47.2 247.661 46.96 247.261 46.72C245.821 45.52 244.381 44.16 243.421 42.48C243.261 42.16 243.101 41.84 243.021 41.44C243.021 40.32 243.501 39.76 244.701 39.76C245.101 39.76 245.501 39.84 245.821 40C247.661 40.96 248.941 43.6 249.101 46V46.48C249.101 46.72 248.781 47.2 248.461 47.2Z" fill="url(#paint0_linear_246_3)"/>
<defs>
<linearGradient id="paint0_linear_246_3" x1="144" y1="-6" x2="144" y2="83" gradientUnits="userSpaceOnUse">
<stop offset="0.104167" stop-color="#E7C06C"/>
<stop offset="0.895833" stop-color="#E464D8"/>
</linearGradient>
</defs>
</svg>
