<svg width="188" height="187" viewBox="0 0 188 187" fill="none" xmlns="http://www.w3.org/2000/svg">
<path d="M148.699 127.9C143.546 126.49 139.153 125.405 134.841 124.076C127.518 121.853 120.385 119.33 114.446 114.15C108.425 108.889 106.147 102.326 108.344 94.8134C109.7 90.203 112.304 85.9722 114.5 81.66C115.368 79.9786 116.724 78.5141 118.379 76.2088C114.256 77.0767 111.029 77.8089 107.774 78.4056C99.8281 79.8972 91.9361 81.7143 83.9355 82.6635C72.9789 84.0195 66.4157 78.4869 65.4394 67.4218C65.0597 63.0825 65.7377 58.6076 65.9818 54.187C66.0632 52.8581 66.3344 51.5563 66.5513 49.9833C60.0424 54.0514 53.9132 58.011 47.6755 61.6994C33.1118 70.2966 24.2434 60.6146 22.7247 48.9528C22.3179 45.8339 22.6705 42.5523 22.9688 39.3792C23.24 37.2639 24.596 35.5281 26.9284 35.8536C29.0438 36.1248 29.6404 38.0232 29.6946 40.0301C29.776 42.0099 29.7218 44.0168 30.0201 45.9424C30.3727 48.1934 30.7523 50.4715 31.5388 52.614C33.7627 58.6348 37.5053 60.4247 43.4176 57.8754C47.5941 56.0854 51.5266 53.6717 55.4319 51.3394C59.0661 49.1697 62.6189 46.8103 66.1716 44.4508C68.0158 43.2575 69.9143 42.1184 72.0839 43.2575C74.579 44.5593 74.3891 47.0272 74.2264 49.3053C74.0366 52.2072 73.4128 55.0549 73.3857 57.9568C73.3043 61.618 73.3043 65.3064 73.7925 68.8863C74.4705 73.7409 76.5859 75.6393 81.4947 75.6122C86.1865 75.585 90.9869 75.2867 95.6245 74.5002C105.551 72.7645 115.368 70.7034 125.213 68.6151C127.545 68.1269 129.525 68.154 130.908 70.1881C132.237 72.1136 131.423 73.9578 130.149 75.6664C127.871 78.7039 125.43 81.6871 123.314 84.8331C121.47 87.5994 119.626 90.4742 118.324 93.5117C114.826 101.621 116.561 107.045 123.748 112.116C129.145 115.94 135.112 118.598 141.404 120.496C145.933 121.88 150.543 122.964 155.1 124.158C157.513 124.782 160.008 125.432 160.361 128.443C160.659 131.29 158.598 132.809 156.51 134.192C155.615 134.762 154.639 135.196 153.689 135.657C151.764 136.552 149.865 137.582 147.858 138.288C132.969 143.63 127.979 155.292 127.789 169.856C127.762 172.541 128.576 175.253 129.091 177.938C129.335 179.267 129.986 180.568 130.067 181.897C130.149 182.846 129.85 184.284 129.2 184.663C128.494 185.097 127.084 184.772 126.243 184.474C124.426 183.796 122.908 181.951 122.202 180.27C120.819 176.934 119.599 173.381 119.246 169.829C118.433 161.964 120.033 154.343 122.989 146.993C125.511 140.728 130.23 136.498 136.088 133.514C139.939 131.616 143.899 130.043 148.699 127.9Z" fill="black"/>
</svg>
