<svg width="206" height="170" viewBox="0 0 206 170" fill="none" xmlns="http://www.w3.org/2000/svg">
<path d="M109.551 18.6042C109.216 21.3698 108.599 24.0976 107.711 26.7282C107.591 27.0551 107.495 27.3872 107.354 27.6889C107.296 27.8424 107.238 27.996 107.179 28.1495C107.105 28.3823 107.333 27.7882 107.184 28.1296C107.138 28.2236 107.113 28.3427 107.067 28.4366C106.801 29.0851 106.51 29.7284 106.218 30.3716C105.61 31.6529 104.901 32.9132 104.124 34.1181C103.744 34.6809 103.364 35.2436 102.958 35.8012C102.745 36.0674 102.557 36.3389 102.318 36.5998C102.28 36.6541 102.159 36.7324 102.142 36.8118C102.183 36.6134 102.347 36.5853 102.218 36.7032C102.084 36.841 101.975 36.984 101.841 37.1218C101.016 38.0479 100.073 38.908 99.0669 39.693C98.8447 39.8746 98.5973 40.051 98.3498 40.2273C98.224 40.3255 98.0729 40.4183 97.9471 40.5164C97.8883 40.5457 97.8254 40.5947 97.7919 40.6292C98.1187 40.3243 97.9136 40.5509 97.8213 40.6146C97.2717 40.9767 96.6715 41.3284 96.0754 41.6602C95.4834 41.9722 94.8954 42.2644 94.257 42.546C93.9671 42.6723 93.6521 42.7933 93.337 42.9143C93.1941 42.9674 93.0512 43.0207 92.9084 43.0738C92.6814 43.151 93.3369 42.9142 92.9924 43.0498C92.8789 43.0884 92.7948 43.1124 92.6814 43.151C91.9459 43.3919 91.1892 43.6077 90.4154 43.7786C89.6417 43.9495 88.8592 44.0358 88.0643 44.1816C88.0936 44.167 88.5228 44.1317 88.2282 44.1535C88.1188 44.1722 88.0137 44.1711 87.9043 44.1899C87.6897 44.2075 87.4751 44.2251 87.2352 44.2375C86.8353 44.2582 86.4355 44.2789 86.0145 44.2745C85.1936 44.2908 84.3598 44.2423 83.5342 44.1541C83.0962 44.1048 82.5165 44.3573 82.2567 44.5932C81.9928 44.849 81.8512 45.1507 81.8319 45.4985C81.8104 46.239 82.4751 46.9768 83.436 47.1757C85.286 47.5381 87.1318 47.9203 88.9572 48.4017C89.3829 48.5106 89.7793 48.634 90.2009 48.7627C90.2262 48.7679 90.6691 48.9217 90.3739 48.8192C90.0534 48.7115 90.4961 48.8652 90.5467 48.8757C90.7701 48.9427 90.9895 49.0295 91.2089 49.1163C92.0904 49.4437 92.9385 49.8055 93.753 50.2018C93.8965 50.2729 94.0611 50.369 94.2046 50.4401C94.2764 50.4757 94.3693 50.5363 94.4411 50.5719C94.5846 50.643 94.7117 50.7935 94.3482 50.5113C94.6187 50.7328 94.9816 50.8907 95.2815 51.0977C95.8603 51.4866 96.4097 51.89 96.9002 52.3227C97.0355 52.4335 97.1707 52.5442 97.3019 52.6749C97.3442 52.725 97.4119 52.7804 97.4584 52.8107C97.6825 53.002 97.3696 52.7303 97.3484 52.7052C97.5602 52.956 97.8519 53.2026 98.0931 53.4388C98.5672 53.9509 99.016 54.4576 99.4313 54.9989C99.6178 55.2444 99.8043 55.49 99.9655 55.7303C100.046 55.8505 100.127 55.9706 100.229 56.1159C100.347 56.306 100.012 55.7606 100.19 56.0459C100.25 56.141 100.288 56.2109 100.347 56.306C100.683 56.8514 100.963 57.4062 101.244 57.9609C101.521 58.5356 101.768 59.1248 101.99 59.7088C102.088 59.9981 102.186 60.2875 102.285 60.5769C102.298 60.6416 102.311 60.7064 102.353 60.7566C102.229 60.3377 102.31 60.5821 102.34 60.6918C102.383 60.8662 102.43 61.0209 102.473 61.1953C102.808 62.5063 102.987 63.8057 103.061 65.104C103.088 65.4821 103.095 65.8352 103.096 66.2081C103.093 66.3522 103.085 66.5162 103.107 66.6655C103.108 66.7898 103.113 66.8943 103.088 67.0134C103.1 66.9538 103.087 66.8891 103.1 66.8295C103.083 66.9089 103.096 66.9737 103.08 67.053C103.033 67.7883 102.99 68.5038 102.893 69.2286C102.493 72.5603 101.558 75.8018 100.606 78.9985C100.404 79.7222 101.081 80.5247 101.946 80.8072C102.861 81.1001 103.815 80.8217 104.241 80.165C107.27 75.598 108.612 70.392 111.151 65.641C111.714 64.578 112.328 63.5254 113.063 62.519C113.214 62.3018 113.39 62.0899 113.536 61.8925C113.611 61.7839 113.737 61.6858 113.816 61.5574C113.812 61.5773 113.569 61.8581 113.741 61.666C113.779 61.6117 113.846 61.5428 113.883 61.4885C114.26 61.0699 114.633 60.6711 115.031 60.2775C115.826 59.4904 116.715 58.7639 117.668 58.1126C117.726 58.0834 117.789 58.0344 117.823 57.9999C117.508 58.2452 117.609 58.1419 117.701 58.0782C117.823 57.9999 117.945 57.9217 118.066 57.8434C118.31 57.6868 118.578 57.5355 118.847 57.3842C119.355 57.0962 119.884 56.8333 120.405 56.61C120.724 56.4692 121.014 56.343 121.354 56.2272C121.413 56.198 121.468 56.1886 121.552 56.1646C121.039 56.3482 121.409 56.2178 121.497 56.174C121.665 56.126 121.808 56.0729 121.976 56.0249C122.594 55.8425 123.233 55.6851 123.889 55.5726C124.053 55.5445 124.243 55.5216 124.407 55.4935C124.487 55.4894 124.542 55.48 124.622 55.4759C125 55.4301 124.218 55.5164 124.567 55.4852C124.916 55.4541 125.265 55.4229 125.636 55.4169C126.006 55.4108 126.351 55.3995 126.718 55.4132C126.874 55.4248 127.059 55.4218 127.215 55.4333C127.37 55.4449 128.095 55.5121 127.425 55.4355C127.943 55.4807 128.436 55.5207 128.856 55.2765C129.183 55.096 129.418 54.8548 129.563 54.5332C129.829 53.8847 129.441 52.956 128.535 52.6233C127.826 52.3524 127.122 52.0617 126.425 51.7313C126.113 51.5839 125.83 51.4218 125.518 51.2744C125.353 51.1782 125.188 51.082 125.02 51.0057C125.564 51.3047 124.952 50.9503 124.808 50.8792C123.571 50.1056 122.405 49.2433 121.36 48.3028C121.318 48.2526 121.25 48.1972 121.204 48.1669C120.984 47.9558 121.292 48.2474 121.314 48.2724C121.208 48.1471 121.047 48.031 120.916 47.9004C120.654 47.6392 120.412 47.403 120.175 47.147C119.701 46.6349 119.231 46.103 118.82 45.5419C118.405 45.0007 118.015 44.4646 117.629 43.9088C117.591 43.8388 117.552 43.7688 117.489 43.6936C117.51 43.7186 117.709 44.0289 117.548 43.7886C117.446 43.6434 117.37 43.5034 117.268 43.3581C117.09 43.0729 116.916 42.7678 116.763 42.4878C116.13 41.3428 115.61 40.1591 115.17 38.9713C115.072 38.6819 114.97 38.4124 114.871 38.123C114.833 38.053 114.824 37.9684 114.811 37.9037C114.73 37.6592 114.845 37.9935 114.841 38.0133C114.802 37.819 114.734 37.6394 114.691 37.4649C114.524 36.8716 114.386 36.2636 114.248 35.6556C113.692 32.995 113.429 30.3127 113.323 27.6419C113.261 26.1598 113.228 24.663 113.246 23.1768C113.259 22.4759 113.268 21.7949 113.281 21.0941C113.301 20.7463 113.291 20.4131 113.31 20.0653C113.309 19.941 113.323 19.3645 113.321 19.8815C113.333 19.6976 113.341 19.5337 113.353 19.3499C113.363 18.9175 113.332 18.5592 113.014 18.183C112.739 17.857 112.249 17.5486 111.764 17.469C111.28 17.3893 110.724 17.3984 110.334 17.628C109.939 17.8774 109.554 18.2115 109.551 18.6042C109.356 24.0061 109.274 29.4938 110.283 34.9381C111.265 40.1286 113.532 45.3574 117.902 49.594C120.385 51.9914 123.385 54.061 126.89 55.3454C127.268 54.4098 127.621 53.4689 128 52.5332C126.399 52.3674 124.892 52.3864 123.323 52.5788C121.943 52.7484 120.631 53.0976 119.375 53.5617C116.925 54.4409 114.772 55.7955 112.974 57.3477C111.083 58.9636 109.557 60.8616 108.371 62.8925C106.952 65.2888 105.896 67.8431 104.844 70.3775C103.671 73.2387 102.473 76.0948 100.714 78.7311C101.925 79.1266 103.139 79.5022 104.349 79.8976C106.046 74.1236 107.749 68.0613 106.392 61.8825C105.271 56.7254 102.065 51.447 96.4835 48.2218C92.7383 46.0599 88.3468 45.1092 84.04 44.2588C84.0156 45.2678 83.966 46.2715 83.9417 47.2805C90.4576 47.9053 96.5637 45.7966 101.102 42.5977C106.136 39.0459 109.078 33.8815 111.047 28.7019C112.198 25.6913 112.948 22.5771 113.315 19.4041C113.399 18.6146 112.797 17.7035 111.727 17.5232C110.762 17.3441 109.648 17.7551 109.551 18.6042Z" fill="#231F20"/>
<path d="M30.9791 44.4054C31.1008 45.9826 31.1679 47.5692 31.1843 49.1453C31.2093 49.9162 31.2091 50.6818 31.1835 51.4422C31.1813 51.8349 31.1831 52.2077 31.1557 52.5952C31.1481 52.7592 31.1363 52.943 31.1287 53.107C31.1218 53.3953 31.1246 53.1268 31.1329 53.0872C31.1335 53.2115 31.1342 53.3358 31.1054 53.4747C30.9907 56.5757 30.6737 59.6348 30.2009 62.6823C30.0097 63.9878 29.7469 65.2578 29.3787 66.5266C29.2917 66.819 29.2047 67.1114 29.0925 67.3986C29.0344 67.5521 28.9763 67.7056 28.9181 67.8591C28.86 68.0126 28.9112 68.1474 28.9263 67.8194C28.9311 67.9239 28.8305 68.0272 28.81 68.1264C28.5562 68.7154 28.2812 69.2792 27.9304 69.8274C27.7676 70.1041 27.5837 70.3557 27.3956 70.6272C27.3204 70.7358 27.1906 70.8538 27.1406 70.9676C27.3034 70.6909 27.2746 70.8298 27.2076 70.8987C27.1364 70.9874 27.0694 71.0563 26.9983 71.1451C26.5251 71.6472 26.0097 72.0992 25.4224 72.5156C25.2713 72.6085 25.1414 72.7265 24.9904 72.8193C25.0239 72.7849 25.2967 72.6138 25.0533 72.7703C24.9904 72.8194 24.9275 72.8684 24.8434 72.8924C24.5371 73.098 24.2055 73.2983 23.874 73.4987C23.2443 73.865 22.5642 74.2208 21.8882 74.5568C21.1533 74.922 20.4013 75.2422 19.6241 75.5572C19.2208 75.722 18.8175 75.8869 18.393 76.0266C18.3048 76.0704 18.1914 76.109 18.1073 76.133C18.0526 76.1424 17.7081 76.278 17.9644 76.1862C18.246 76.0997 17.8509 76.2248 17.8216 76.2394C17.7081 76.278 17.5694 76.3113 17.4518 76.3698C15.7539 76.9287 14.0177 77.4177 12.2644 77.8617C11.5119 78.0577 10.9087 78.6777 11.0554 79.3703C11.185 80.0179 11.8074 80.7055 12.65 80.8386C14.2595 81.0891 15.8648 81.3594 17.4708 81.7541C18.5246 82.0136 19.5702 82.3129 20.5864 82.6268C21.1597 82.7869 21.7077 82.9417 22.2811 83.1018C22.4581 83.1385 22.631 83.195 22.8039 83.2515C22.8545 83.2619 22.8798 83.2672 22.9262 83.2975C23.1244 83.3592 23.0738 83.3487 22.7786 83.2462C22.8251 83.2765 22.9516 83.3028 23.0022 83.3132C23.3944 83.4565 23.7866 83.5998 24.1707 83.7828C24.5082 83.9355 24.8417 84.108 25.1499 84.2753C25.2469 84.3161 25.3146 84.3714 25.4116 84.4122C25.648 84.544 24.9893 84.1592 25.3398 84.3767C25.5257 84.4979 25.6904 84.5941 25.8763 84.7154C26.5267 85.1398 27.1184 85.5934 27.6766 86.0814C27.7443 86.1368 27.8078 86.2121 27.8754 86.2674C28.1207 86.4838 27.8078 86.2121 27.7866 86.187C27.8419 86.3019 28.0954 86.4786 28.1801 86.5789C28.4636 86.8652 28.7219 87.1463 28.9801 87.4274C29.4713 87.9844 29.9543 88.581 30.3614 89.162C30.565 89.4524 30.7685 89.7429 30.9468 90.0282C31.1674 90.3635 30.7514 89.698 30.9468 90.0282C30.985 90.0982 31.0274 90.1483 31.0656 90.2183C31.1845 90.4085 31.3033 90.5986 31.3968 90.7835C31.7663 91.4188 32.1105 92.0487 32.4253 92.6934C33.1103 94.0975 33.7071 95.5455 34.228 96.9777C34.5141 97.7612 34.796 98.5646 35.0568 99.3428C35.1251 99.5225 35.1681 99.697 35.2364 99.8767C35.2705 99.9665 35.3006 100.076 35.3347 100.166C35.4077 100.45 35.3306 100.186 35.3176 100.121C35.463 100.565 35.5578 100.999 35.6779 101.437C36.6477 105.032 37.2177 108.647 37.3919 112.263C37.4169 113.034 38.3674 113.665 39.2435 113.764C40.2755 113.874 40.9339 113.369 41.1911 112.636C43.3128 106.847 42.6195 100.516 44.3155 94.6173C44.4393 94.1463 44.6138 93.6857 44.7589 93.2398C44.8088 93.126 44.8588 93.0122 44.8835 92.8931C44.9499 92.6999 44.7213 93.2941 44.8335 93.007C44.8458 92.9474 44.8794 92.913 44.8917 92.8535C44.9957 92.606 45.0996 92.3585 45.2035 92.111C45.6407 91.1461 46.1536 90.1969 46.709 89.2979C47.0181 88.8239 47.3272 88.3499 47.6616 87.8811C47.812 87.6639 47.9584 87.4666 48.1301 87.2745C48.2053 87.1659 48.3057 87.0626 48.3809 86.954C48.5526 86.7619 48.3099 87.0427 48.2805 87.0573C48.3475 86.9884 48.3892 86.9143 48.4562 86.8454C49.1803 86.0227 49.9762 85.2356 50.8861 84.5342C51.1083 84.3526 51.3559 84.1762 51.6034 83.9998C51.6369 83.9654 51.9095 83.7942 51.6368 83.9653C51.3893 84.1417 51.6662 83.9507 51.725 83.9215C51.8467 83.8433 51.9683 83.765 52.1153 83.6919C52.6274 83.3841 53.1859 83.1066 53.7614 82.8739C53.9084 82.8009 54.0766 82.7529 54.2195 82.6997C54.4211 82.6173 53.8243 82.8249 54.0472 82.7675C54.1312 82.7436 54.2153 82.7196 54.3035 82.6758C54.6104 82.5945 54.8921 82.5079 55.2243 82.4319C55.5271 82.3704 55.8298 82.3089 56.1285 82.2673C56.1832 82.2579 56.5072 82.2215 56.1579 82.2527C55.8339 82.2891 56.1033 82.2621 56.1832 82.2579C56.3726 82.235 56.5577 82.232 56.7429 82.229C57.5426 82.1876 58.3444 81.7535 58.4295 81.0882C58.5186 80.4031 58.1238 79.7626 57.3345 79.3716C54.2746 77.8482 50.9603 76.7894 47.8669 75.3005C47.5082 75.1227 47.1494 74.945 46.7948 74.7474C46.723 74.7118 46.6512 74.6763 46.5794 74.6407C46.533 74.6104 46.233 74.4035 46.4865 74.5801C46.74 74.7567 46.4401 74.5498 46.3936 74.5195C46.3007 74.4589 46.1825 74.393 46.0896 74.3324C45.4097 73.9226 44.7927 73.4637 44.2092 72.9704C44.1204 72.8899 44.0315 72.8095 43.9386 72.7489C43.7357 72.5827 43.9769 72.8189 44.0275 72.8293C43.9475 72.8335 43.6763 72.4876 43.6127 72.4123C43.3333 72.1062 43.0539 71.8 42.8039 71.4792C42.5963 71.2086 42.3927 70.9181 42.1891 70.6277C42.0874 70.4824 41.9856 70.3372 41.8838 70.1919C42.1509 70.5576 41.9856 70.3372 41.9262 70.2421C41.8668 70.147 41.8115 70.0321 41.7268 69.9318C41.0178 68.771 40.4728 67.5821 40.0119 66.3692C39.8924 66.0548 39.7942 65.7654 39.7 65.4562C39.6488 65.3214 39.5976 65.1867 39.5758 65.0373C39.5376 64.9673 39.5287 64.8827 39.4905 64.8127C39.3963 64.5035 39.5847 65.1219 39.4863 64.8325C39.3021 64.1943 39.1471 63.5413 38.9881 62.9083C38.3597 60.2122 38.0006 57.4891 37.5321 54.7847C36.8651 51.1287 35.9583 47.485 34.534 43.9205C34.2227 43.1318 32.9613 42.6016 32.0405 42.8455C31.0357 43.1134 30.6103 43.8945 30.9346 44.748C31.2842 45.6067 31.6044 46.4801 31.8993 47.3482C32.0277 47.7472 32.1813 48.1515 32.2843 48.5454C32.2672 48.5004 32.1942 48.2163 32.2672 48.5004C32.3013 48.5903 32.3314 48.7 32.3655 48.7898C32.4256 49.0092 32.4856 49.2285 32.5497 49.4281C32.9701 50.9637 33.3106 52.5034 33.5964 54.0525C34.1284 56.8322 34.5005 59.6201 35.0872 62.3903C35.6479 65.031 36.4404 67.6991 37.8467 70.2045C38.5986 71.5397 39.4728 72.9209 40.6575 74.0767C41.9228 75.3527 43.3973 76.3823 45.0817 77.2898C48.4463 79.1246 52.2746 80.2484 55.7186 81.9548C55.9158 81.0023 56.113 80.0499 56.3143 79.0776C50.5144 79.3252 46.462 82.9766 43.8792 86.6633C42.5375 88.5584 41.5292 90.6259 40.7992 92.751C39.8617 95.4954 39.5229 98.4052 39.2429 101.286C38.8779 104.831 38.5888 108.393 37.3641 111.761C38.6318 111.878 39.8955 112.016 41.1633 112.134C40.9992 108.851 40.4981 105.539 39.6984 102.27C38.8775 98.9751 37.7955 95.6677 36.3225 92.4656C35.0626 89.7629 33.4364 87.0464 31.1136 84.7651C29.8401 83.5288 28.479 82.4606 26.8199 81.5584C25.3549 80.7377 23.7401 80.2585 22.0959 79.7939C20.8986 79.4632 19.7348 79.0981 18.5334 78.7873C16.7546 78.3362 14.9722 78.0292 13.1604 77.7368C13.2961 78.7375 13.4104 79.7131 13.5461 80.7138C16.8297 79.883 20.0663 78.8977 23.0611 77.5519C26.0306 76.2009 28.8807 74.5354 30.7085 72.203C32.4652 69.9593 33.2468 67.2033 33.7256 64.5088C34.2783 61.4572 34.6034 58.3584 34.7687 55.2679C34.969 51.6259 34.9418 47.9368 34.6746 44.2601C34.6032 43.4589 33.5469 42.7022 32.562 42.7466C31.6072 42.9006 30.8947 43.5395 30.9791 44.4054Z" fill="#231F20"/>
<path d="M122.18 104.966C122.308 106.131 122.36 107.28 122.328 108.453C122.331 108.308 122.331 108.184 122.334 108.04C122.257 110.321 121.84 112.594 121.004 114.718C121.058 114.584 121.108 114.47 121.162 114.337C120.489 116.06 119.546 117.685 118.32 119.149C118.42 119.046 118.496 118.937 118.596 118.834C118.002 119.538 117.361 120.213 116.628 120.827C116.272 121.146 115.865 121.455 115.462 121.744C115.277 121.871 115.093 121.999 114.908 122.126C115.399 121.793 115.001 122.062 114.879 122.141C114.757 122.219 114.636 122.297 114.518 122.356C113.67 122.884 112.734 123.331 111.78 123.734C111.549 123.831 111.293 123.923 111.062 124.02C110.919 124.073 110.436 124.242 111.032 124.034C110.894 124.068 110.776 124.126 110.633 124.179C110.095 124.358 109.536 124.511 108.977 124.664C107.922 124.922 106.879 125.12 105.772 125.242C105.936 125.214 106.096 125.206 106.26 125.178C105.477 125.264 104.695 125.35 103.908 125.456C103.365 125.53 102.852 125.59 102.411 125.809C101.42 126.266 101.346 127.388 102.12 128.107C102.517 128.479 103.108 128.684 103.614 128.913C104.479 129.32 105.336 129.767 106.16 130.248C106.02 130.157 105.877 130.086 105.737 129.995C107.971 131.306 110.088 132.799 111.906 134.459C111.949 134.509 111.995 134.539 112.038 134.589C111.661 134.242 111.814 134.398 111.906 134.459C112.016 134.564 112.105 134.645 112.215 134.75C112.414 134.936 112.609 135.142 112.782 135.323C113.104 135.679 113.426 136.036 113.714 136.426C113.862 136.602 113.981 136.792 114.125 136.988C114.185 137.083 114.244 137.178 114.304 137.273C114.363 137.368 114.461 137.533 114.181 137.102C114.219 137.172 114.261 137.223 114.299 137.293C114.537 137.673 114.771 138.073 114.95 138.483C115.439 139.432 115.789 140.415 116.11 141.413C116.058 141.278 116.033 141.149 115.981 141.014C117.095 144.804 117.17 148.648 117.227 152.446C117.228 153.461 117.254 154.48 117.28 155.499C117.286 155.852 117.634 156.338 117.955 156.57C118.302 156.808 118.694 156.951 119.132 157C120.088 157.095 120.898 156.621 121.08 155.872C121.496 154.241 121.913 152.61 122.334 150.959C122.739 149.387 123.072 147.78 123.678 146.25C123.624 146.383 123.575 146.497 123.521 146.631C124.057 145.314 124.72 144.023 125.45 142.788C125.813 142.181 126.202 141.578 126.59 140.976C126.929 140.487 127.246 139.973 127.635 139.495C127.535 139.598 127.459 139.707 127.359 139.81C127.844 139.249 128.423 138.748 129.069 138.302C129.161 138.238 129.253 138.175 129.35 138.091C129.564 137.949 128.955 138.341 129.291 138.12C129.505 137.978 129.715 137.856 129.929 137.714C130.323 137.465 130.739 137.241 131.154 137.016C132.04 136.558 132.973 136.131 133.926 135.728C134.157 135.631 134.384 135.554 134.615 135.457C134.729 135.418 134.842 135.379 134.96 135.321C135.019 135.292 135.077 135.263 135.157 135.258C135.073 135.282 134.729 135.418 134.989 135.306C135.443 135.152 135.922 135.003 136.376 134.849C137.301 134.585 138.247 134.346 139.244 134.242C139.08 134.27 138.92 134.279 138.756 134.307C138.836 134.303 138.916 134.298 139 134.275C139.484 134.23 139.955 134.12 140.278 133.835C140.542 133.58 140.683 133.278 140.703 132.93C140.728 132.17 140.059 131.452 139.099 131.253C138.669 131.164 138.243 131.055 137.847 130.932C138.019 130.988 138.167 131.039 138.34 131.096C137.526 130.824 136.729 130.472 135.998 130.052C136.137 130.143 136.281 130.214 136.42 130.305C135.973 130.047 135.555 129.774 135.17 129.467C134.963 129.321 134.785 129.16 134.578 129.013C134.49 128.933 134.375 128.847 134.287 128.767C134.24 128.736 134.198 128.686 134.151 128.656C134.13 128.631 134.109 128.606 134.084 128.6C133.931 128.445 134.304 128.812 134.282 128.786C133.538 128.053 132.852 127.29 132.229 126.478C132.089 126.263 131.919 126.062 131.779 125.847C131.72 125.752 131.639 125.632 131.58 125.537C131.419 125.296 131.741 125.777 131.682 125.682C131.644 125.612 131.601 125.562 131.563 125.492C131.262 125.036 131.015 124.571 130.743 124.101C130.208 123.121 129.757 122.117 129.36 121.104C128.891 119.931 128.48 118.728 128.121 117.536C128.172 117.671 128.198 117.801 128.249 117.935C127.208 114.43 126.575 110.863 126.178 107.305C126.086 106.478 126.014 105.677 125.947 104.856C125.875 104.055 124.819 103.298 123.834 103.343C122.808 103.461 122.095 104.1 122.18 104.966C122.337 106.882 122.544 108.808 122.857 110.735C123.21 112.981 123.689 115.253 124.306 117.491C124.979 119.845 125.783 122.205 126.948 124.474C127.977 126.508 129.293 128.56 131.074 130.274C131.932 131.093 132.85 131.884 133.931 132.521C135.13 133.225 136.337 133.764 137.733 134.157C138.007 134.234 138.285 134.292 138.538 134.344C138.562 133.335 138.611 132.332 138.636 131.323C136.431 131.528 134.43 132.149 132.485 132.884C130.539 133.619 128.666 134.515 127.017 135.601C126.195 136.134 125.423 136.678 124.757 137.347C123.987 138.14 123.402 139.053 122.821 139.947C121.422 142.12 120.192 144.369 119.454 146.782C119.04 148.145 118.723 149.549 118.385 150.927C118.039 152.345 117.671 153.739 117.325 155.157C118.593 155.274 119.856 155.412 121.124 155.53C121.031 151.392 121.179 147.243 120.349 143.098C119.913 141 119.275 138.861 118.103 136.88C117.521 135.87 116.826 134.898 116.013 133.985C115.065 132.961 113.974 131.99 112.841 131.093C111.598 130.091 110.263 129.152 108.857 128.302C108.063 127.807 107.235 127.346 106.378 126.899C105.686 126.549 104.986 126.238 104.289 125.908C104.429 125.999 104.572 126.07 104.712 126.161C104.902 126.387 105.071 126.587 105.262 126.813C105.313 126.948 105.339 127.077 105.39 127.212C105.387 127.356 105.388 127.48 105.384 127.624C105.33 127.758 105.28 127.872 105.226 128.006C105.126 128.109 105.05 128.218 104.95 128.321C104.761 128.468 104.514 128.644 104.27 128.677C104.324 128.667 104.354 128.653 104.408 128.643C104.547 128.61 104.682 128.596 104.821 128.563C105.203 128.498 105.607 128.457 106.011 128.416C105.847 128.445 105.687 128.453 105.523 128.481C106.63 128.358 107.762 128.241 108.859 128.034C110.121 127.798 111.323 127.468 112.488 127.067C114.963 126.193 117.184 125.018 119.054 123.502C122.655 120.626 124.791 116.681 125.666 112.579C126.176 110.118 126.259 107.549 125.994 105.011C125.897 104.204 124.896 103.438 123.881 103.497C122.833 103.467 122.07 104.095 122.18 104.966Z" fill="#231F20"/>
<path d="M158.695 57.6266C158.745 58.4027 158.77 59.1735 158.77 59.9391C158.772 60.312 158.77 60.7047 158.767 61.0974C158.768 61.2217 158.779 61.8035 158.768 61.346C158.774 61.5747 158.754 61.7983 158.738 62.0019C158.654 63.5571 158.514 65.1217 158.299 66.6705C157.864 69.788 157.198 72.8783 156.287 75.8765C156.055 76.6148 155.823 77.3532 155.587 78.1113C155.467 78.4382 155.368 78.7901 155.247 79.117C155.189 79.2705 155.131 79.424 155.069 79.5973C155.052 79.6767 155.01 79.7509 154.998 79.8104C154.948 79.9242 154.986 79.8699 155.06 79.637C155.048 79.6966 155.01 79.7509 154.998 79.8104C154.508 81.0332 153.895 82.21 153.21 83.3513C152.855 83.9193 152.475 84.4821 152.074 85.0198C151.86 85.286 151.672 85.5574 151.459 85.8237C151.417 85.8978 151.354 85.9469 151.312 86.021C151.542 85.6754 151.421 85.878 151.35 85.9667C151.216 86.1045 151.103 86.2674 150.969 86.4052C150.044 87.4345 149.03 88.3834 147.873 89.2612C147.558 89.5065 147.219 89.7466 146.883 89.9668C146.791 90.0305 146.618 90.0983 146.975 89.9031C146.883 89.9668 146.765 90.0252 146.673 90.0889C146.492 90.1964 146.337 90.3091 146.157 90.4166C145.464 90.8319 144.755 91.2023 143.995 91.5623C143.617 91.7323 143.239 91.9024 142.835 92.0672C142.634 92.1496 142.411 92.207 142.234 92.2946C142.616 92.1047 142.461 92.2174 142.318 92.2706C142.205 92.3092 142.091 92.3478 141.953 92.3811C141.133 92.646 140.267 92.8806 139.388 93.0504C138.619 93.2014 138.054 93.8915 138.179 94.559C138.231 94.818 138.333 95.0876 138.524 95.3133C138.753 95.609 139.336 95.978 139.774 96.0273C141.501 96.2194 143.211 96.4908 144.897 96.8813C145.728 97.0739 146.529 97.2811 147.351 97.5134C147.549 97.5751 147.772 97.6421 147.971 97.7038C148.118 97.7551 148.86 97.9915 148.219 97.776C148.637 97.9245 149.058 98.0532 149.476 98.2018C151.074 98.7604 152.652 99.4182 154.163 100.145C154.931 100.511 155.695 100.897 156.426 101.317C156.59 101.413 156.734 101.484 156.898 101.58C156.991 101.641 157.088 101.682 157.181 101.742C156.683 101.474 157.017 101.646 157.135 101.712C157.511 101.935 157.861 102.152 158.237 102.375C159.66 103.27 161.021 104.214 162.289 105.221C162.923 105.725 163.532 106.223 164.107 106.756C164.263 106.892 164.42 107.028 164.576 107.164C164.64 107.239 164.733 107.3 164.796 107.375C164.441 107.053 164.597 107.189 164.686 107.27C165.016 107.586 165.325 107.878 165.63 108.189C166.722 109.284 167.746 110.448 168.662 111.631C169.14 112.248 169.59 112.879 170.035 113.53C170.112 113.67 170.218 113.795 170.294 113.935C169.968 113.474 170.354 114.03 170.409 114.145C170.604 114.475 170.8 114.805 170.995 115.136C171.806 116.566 172.504 118.035 173.042 119.512C173.175 119.891 173.307 120.27 173.418 120.625C173.513 120.934 173.311 120.251 173.401 120.58C173.431 120.689 173.457 120.819 173.487 120.929C173.53 121.103 173.573 121.277 173.616 121.452C173.822 122.24 173.974 123.037 174.075 123.823C174.197 124.635 175.173 125.396 176.187 125.337C176.667 125.312 177.167 125.188 177.465 124.898C177.796 124.573 177.895 124.221 177.905 123.789C177.909 123.769 177.912 123.376 177.913 123.625C177.914 123.873 177.912 123.5 177.916 123.48C177.92 123.336 177.923 123.192 177.927 123.048C177.942 122.72 177.957 122.392 177.998 122.069C178.05 121.563 178.102 121.056 178.179 120.555C178.314 119.776 178.504 118.987 178.639 118.208C178.84 117.236 178.962 116.268 179.036 115.269C179.087 114.514 179.113 113.754 179.139 112.994C179.153 112.541 179.168 112.089 179.186 111.617C179.177 111.532 179.194 111.453 179.185 111.368C179.187 110.976 179.186 111.617 179.185 111.368C179.205 111.145 179.195 110.936 179.215 110.712C179.279 109.256 179.373 107.786 179.618 106.347C179.745 105.607 179.893 104.893 180.121 104.174C180.216 103.842 180.315 103.49 180.461 103.169C180.273 103.565 180.552 102.981 180.569 102.902C180.661 102.714 180.723 102.54 180.814 102.352C181.094 101.769 181.444 101.22 181.816 100.697C181.971 100.46 182.151 100.228 182.331 99.9967C182.406 99.8881 182.481 99.7795 182.578 99.696C182.619 99.6219 182.682 99.5728 182.724 99.4987C182.967 99.2178 182.615 99.6417 182.72 99.5185C183.544 98.5925 184.437 97.7219 185.443 96.9369C185.724 96.7261 186.11 96.5164 186.37 96.2805C186.341 96.2951 186.034 96.5007 186.278 96.3441C186.37 96.2805 186.458 96.2366 186.55 96.173C186.702 96.0801 186.853 95.9872 187.004 95.8943C187.633 95.5281 188.284 95.1869 188.981 94.876C189.33 94.7205 189.704 94.5703 190.078 94.4201C190.364 94.3137 189.99 94.4639 189.964 94.4587C190.074 94.4399 190.166 94.3763 190.275 94.3576C190.473 94.295 190.67 94.2324 190.843 94.1646C191.604 93.929 192.377 93.7581 193.197 93.6175C193.963 93.4863 194.536 92.7565 194.406 92.1089C194.264 91.3965 193.663 90.8582 192.812 90.6405C191.935 90.4176 191.062 90.1748 190.194 89.9122C189.996 89.8505 189.797 89.7887 189.599 89.727C189.498 89.7061 189.405 89.6454 189.304 89.6245C189.814 89.7094 189.477 89.681 189.329 89.6297C188.886 89.476 188.44 89.342 188.022 89.1935C186.352 88.5994 184.719 87.9509 183.154 87.2336C182.36 86.8624 181.592 86.4964 180.832 86.0908C180.478 85.8932 180.119 85.7154 179.739 85.5126C179.693 85.4823 179.195 85.2136 179.195 85.2136C179.266 85.2491 179.334 85.3045 179.406 85.3401C179.334 85.3045 179.266 85.2491 179.195 85.2136C179.102 85.153 178.984 85.0871 178.891 85.0265C177.413 84.141 176.027 83.1919 174.712 82.1541C174.057 81.6252 173.402 81.0964 172.805 80.5383C172.738 80.4829 172.695 80.4328 172.628 80.3774C173.008 80.7045 172.691 80.4526 172.628 80.3774C172.497 80.2467 172.34 80.1109 172.209 79.9802C171.9 79.6887 171.621 79.3825 171.341 79.0763C170.804 78.489 170.27 77.8819 169.791 77.2654C169.291 76.6239 168.875 75.9583 168.4 75.322C168.689 75.7127 168.341 75.2269 168.286 75.112C168.188 74.9469 168.086 74.8017 167.989 74.6366C167.772 74.2814 167.581 73.9314 167.39 73.5814C167.007 72.8814 166.679 72.172 166.352 71.4626C165.721 70.0491 165.2 68.6168 164.738 67.1554C164.725 67.0906 164.687 67.0206 164.674 66.9559C164.661 66.8911 164.623 66.8211 164.61 66.7563C164.67 66.9757 164.691 67.0008 164.644 66.8462C164.58 66.6466 164.52 66.4273 164.456 66.2277C164.353 65.8339 164.25 65.4401 164.147 65.0463C163.945 64.2388 163.747 63.4114 163.57 62.6092C163.204 60.9399 162.888 59.2811 162.572 57.6223C162.421 56.8253 161.499 56.0551 160.459 56.1089C159.403 56.1177 158.53 56.7648 158.695 57.6266C159.816 63.6737 161.001 69.9202 164.436 75.6186C166.181 78.5253 168.452 81.1888 171.28 83.5749C173.952 85.825 177.061 87.7516 180.34 89.3618C184.075 91.1906 188.081 92.5996 192.191 93.6368C192.056 92.6361 191.941 91.6605 191.806 90.6599C185.602 91.7136 180.682 95.3511 177.947 99.7719C176.281 102.469 175.703 105.515 175.517 108.581C175.47 109.44 175.428 110.28 175.408 111.145C175.392 111.349 175.405 111.538 175.39 111.741C175.398 111.826 175.382 111.905 175.391 111.99C175.389 112.383 175.39 111.741 175.387 112.01C175.385 112.402 175.353 112.81 175.351 113.203C175.285 114.41 175.22 115.617 175.003 116.793C174.843 117.691 174.633 118.579 174.473 119.477C174.232 120.897 174.143 122.347 174.104 123.809C175.371 123.802 176.642 123.775 177.935 123.774C177.105 117.974 174.07 112.255 169.528 107.444C164.991 102.614 158.979 98.5347 152.235 95.9586C148.472 94.5174 144.467 93.4813 140.441 93.0614C140.576 94.062 140.691 95.0376 140.826 96.0383C147.601 94.6475 152.797 90.6948 156.073 85.9514C157.77 83.4884 158.855 80.7953 159.721 78.0153C160.699 74.9482 161.449 71.834 161.947 68.6674C162.513 65.0392 162.776 61.3481 162.568 57.6422C162.522 56.8463 161.44 56.0843 160.455 56.1287C159.323 56.1218 158.661 56.7711 158.695 57.6266Z" fill="#231F20"/>
</svg>
