<svg width="130" height="151" viewBox="0 0 130 151" fill="none" xmlns="http://www.w3.org/2000/svg">
<path d="M56.3 44C56.6 52.2 56.9 60.4 57.8 68.5C58.1 71.1 58.5 73.8 59.3 76.3C60.8 81 64.5 85.5 70.7 85.5C77 85.5 80.7 80.5 82.3 75.8C83.4 72.5 83.6 68.8 83.6 65.3V63.1C83.2 50.6 81.6 38.2 78.3 26.2C76.5 19.3 73.2 11.8 64.7 11.8C61.8 11.8 59 12.8 56.8 14.5C52.7 17.6 50.8 22.3 49.1 27.7L43.8 44.6C43.4 45.5 43 46.5 41.8 46.5C40.6 46.5 40.1 45.5 39.7 44.6L33.6 25.2C32.4 21.4 31.3 17.5 29 14.2C27.3 11.7 24.2 8.79999 20.2 8.79999C14.6 8.79999 11.6 14 10 18.2C5.7 29.1 5.1 41 3.6 52.6C3 56.7 2.5 60.7 2.5 64.5C2.5 69.7 3.5 74.5 6.5 78.4C8.4 80.9 11.8 83.4 16 83.4C21.9 83.4 25.4 79.1 27.1 74.7C28.1 72 28.5 69 28.5 66.1C28.5 64.4 28.3 62.8 28.2 61.2C27.6 54.6 26.5 48 25.4 41.4C25.2 40.3 25.4 39.1 26.5 39.1C27 39.1 27.5 39.9 27.6 40.3L33.1 51.9C34.1 53.9 35 56.1 36 58.1C37.3 60.6 39.5 63.8 43.1 63.8C47.5 63.8 48.8 60.3 49.5 56.5C50.4 51.9 52 47.4 54.3 43.3C54.4 43 54.9 42.4 55.4 42.4C56.2 42.4 56.3 43.2 56.3 44ZM72.4 23.9V24.5C72.4 24.8 72 25.2 71.7 25.2H71.1C70.7 25.1 70.4 24.9 70.1 24.7C68.3 23.4 66.5 22 65.3 20.1C65.1 19.7 64.9 19.3 64.8 18.9C64.8 17.6 65.7 17.1 66.8 17.1C70.2 17.1 72.3 21 72.4 23.9ZM26.8 19.8V20.4C26.8 20.7 26.4 21.1 26.1 21.1H25.5C25.1 21 24.8 20.8 24.5 20.6C22.7 19.3 20.9 17.9 19.7 16C19.5 15.6 19.3 15.2 19.2 14.8C19.2 13.5 20.1 13 21.2 13C24.6 13 26.7 16.9 26.8 19.8Z" fill="url(#paint0_linear_118_255)"/>
<path d="M102.3 97.3C102.3 101.8 101.9 106.3 100.8 110.7C100.5 111.8 100.3 112.9 99.8 113.9C98.6 116.4 96.3 118.5 92.9 118.5C86.8 118.5 83.5 113.1 82.6 107.8C82.2 105.4 81.6 102.2 78.8 102.2C76.3 102.2 75.4 104.4 75.4 106.8C75.4 107.6 75.5 108.4 75.6 109.2C76.1 112 76.9 114.7 78.2 117.2C80.6 121.7 84.7 125.2 89.4 127C91.9 127.9 94.6 128.4 97.2 128.4C100.7 128.4 104.1 127.6 107.3 126.2C112.9 123.7 117.6 119.2 120.6 113.8C124.8 106.4 125.8 98.6 125.8 89.1C125.8 83.4 125.4 77.6 125.3 71.9C125.2 66.9 125.3 61.8 123.6 57.1C121.9 52.7 118.2 48 112.4 48C107.4 48 103.7 52.1 102 55.7C100.5 59.1 100.1 62.7 100.1 66.4C100.1 76.9 102.3 87 102.3 97.3ZM119.4 65.3H118.8C117.6 65 117.1 63.4 116.8 62.1C116.3 59.8 116 58.2 114.8 56.7C114 55.7 112.6 54.8 112.2 53.4C112.2 52.2 112.9 51.7 113.7 51.7C114.4 51.7 115.1 52 115.6 52.4C118.4 54.4 120.2 58.2 120.2 62.8V63.9C120.2 64.1 120.1 64.3 120.1 64.5C120.1 64.9 119.8 65.3 119.4 65.3Z" fill="url(#paint1_linear_118_255)"/>
<defs>
<linearGradient id="paint0_linear_118_255" x1="43.5" y1="0" x2="43.5" y2="111" gradientUnits="userSpaceOnUse">
<stop offset="0.104167" stop-color="#E7C06C"/>
<stop offset="0.895833" stop-color="#E464D8"/>
</linearGradient>
<linearGradient id="paint1_linear_118_255" x1="103.5" y1="40" x2="103.5" y2="151" gradientUnits="userSpaceOnUse">
<stop offset="0.104167" stop-color="#E7C06C"/>
<stop offset="0.895833" stop-color="#E464D8"/>
</linearGradient>
</defs>
</svg>
