<svg width="366" height="226" viewBox="0 0 366 226" fill="none" xmlns="http://www.w3.org/2000/svg">
<path d="M365 208.766L297.583 209.721L294.252 206.993C292.672 207.059 290.973 207.13 289.179 207.205M289.179 207.205C266.372 208.158 228.303 209.721 225.635 209.721C222.038 209.721 205.384 208.22 206.316 206.993C207.249 205.765 209.514 200.99 228.833 200.99C248.152 200.99 272.801 202.181 281.461 204.674C285.339 205.789 287.756 206.629 289.179 207.205ZM289.179 207.205C290.299 207.658 290.804 207.949 290.921 208.084C292.431 209.266 294.358 211.74 289.988 212.177C284.526 212.722 223.903 213.541 221.239 213.268C218.574 212.995 207.782 210.54 205.25 210.676C202.719 210.812 199.255 211.085 201.253 212.177C202.852 213.05 211.157 214.814 215.11 215.587C213.866 216.406 210.367 218.179 206.316 218.725C201.253 219.407 131.038 220.498 123.977 221.59C118.327 222.463 105.634 224.227 99.9941 225H84.1391L79.7423 221.59L60.6896 150.788M175.782 194.806L180.222 195.557L187.017 191.192C189.859 190.919 196.103 190.128 198.342 189.146C200.58 188.163 202.916 185.826 203.804 184.78L207.002 186.008L215.529 192.965C215.529 193.647 215.049 195.121 213.131 195.557C210.733 196.103 204.337 198.013 196.876 206.607C189.415 215.202 179.689 211.245 175.159 208.517C170.629 205.789 162.368 204.97 156.905 204.834C151.443 204.697 118.4 210.973 113.071 209.881C108.807 209.008 102.234 203.242 99.4808 200.468L58.4442 148.493C57.5116 148.356 54.5804 147.074 50.3168 143.036C44.9874 137.988 40.5906 121.345 40.1909 113.16C39.7912 104.975 45.5203 99.2455 55.6463 96.1079C63.747 93.5977 70.7463 102.61 73.2334 107.431L88.6887 138.125V139.216C91.0426 143.218 96.4963 152.694 99.4808 158.588C103.211 165.954 117.068 181.233 130.258 188.191C140.811 193.757 163.967 196.239 174.226 196.785L175.782 194.806ZM175.782 194.806L149.939 190.432M175.782 194.806L178.623 191.192C180.533 190.191 184.885 187.972 187.017 187.099C189.148 186.226 193.501 186.008 195.411 186.008C194.878 185.599 193.492 184.453 192.213 183.143C190.934 181.834 184.219 179.96 181.021 179.187C178.134 180.733 171.108 184.698 166.099 188.191C161.797 191.19 154.436 191.05 149.939 190.432M149.939 190.432L147.979 190.101C148.537 190.216 149.199 190.331 149.939 190.432ZM73.9046 95.3412C72.7327 93.5846 71.7154 92.1058 70.9542 91.0744C67.3302 86.1633 69.4442 79.2969 70.9542 76.4776L79.7478 48.6481C81.8796 46.329 88.3815 40.3811 97.3349 35.1426C106.288 29.9041 104.086 26.8665 101.865 26.0025L94.1373 18.0902L90.007 14.5433C85.8322 12.4516 74.1253 7.85882 60.6951 6.22179C43.9074 4.17551 22.8562 66.6554 18.1929 77.5689C13.5297 88.4824 13.2632 114.266 10.332 122.178C7.98705 128.508 5.97963 140.185 5.26904 145.233L10.332 152.463C12.5082 152.736 18.2728 153.118 23.922 152.463C29.5712 151.808 30.5394 148.37 30.3174 146.733L32.1827 136.229L36.313 129.408C36.8459 126.134 38.1783 118.085 39.2441 112.083C40.31 106.08 48.4818 98.7593 52.4345 95.8491L64.026 93.9392L73.9046 95.3412ZM73.9046 95.3412C78.3125 101.949 84.9068 112.489 88.2749 117.949C88.719 121.087 90.0603 127.771 91.8723 129.408C94.1373 131.454 100.533 134.456 103.064 138.003C105.089 140.84 107.727 145.005 108.793 146.733C108.438 149.78 107.514 155.846 106.661 155.737C105.809 155.628 97.9567 141.868 94.1373 135.001C91.8278 132.227 86.4629 126.68 83.4784 126.68L83.3482 126.68C79.5058 126.678 69.0449 126.674 65.2251 138.003C62.134 147.17 61.6277 153.645 61.761 155.737L77.0831 212.897V216.034C72.864 217.444 63.573 218.244 60.1622 210.168C55.8986 200.073 51.6351 179.883 45.1065 173.062C38.578 166.241 25.2544 163.649 16.8605 159.693C8.4667 155.737 5.80198 155.055 2.47109 148.78C-0.859802 142.504 2.07138 126.816 5.26904 123.542C8.4667 120.268 2.8708 112.901 4.06992 103.216C5.26904 93.5299 28.1856 22.8649 36.313 14.5433C44.4403 6.22179 53.5004 -1.41768 67.7566 1.71996C82.0128 4.8576 106.395 12.9063 107.594 18.0902C108.793 23.2742 113.323 27.6396 107.594 33.5056C101.865 39.3716 102.531 38.5531 100.533 45.374C98.9338 50.8308 97.7346 55.469 97.3349 57.1061L100.533 70.6116V73.8856L95.4696 75.2498H91.8723L87.742 77.5689V83.4349C88.6746 84.3899 89.5806 87.2547 85.7434 91.0744C81.9062 94.8941 78.6375 95.8491 77.4828 95.8491L73.9046 95.3412ZM70.2139 211.865H15.1875C10.0801 199.178 0.105226 173.368 1.06452 171.621C2.26365 169.439 1.59746 160.572 11.0572 159.753C20.5169 158.934 39.7029 158.252 47.697 164.937C55.6912 171.621 59.9547 180.762 61.6868 184.308C63.4188 187.855 68.4818 204.635 68.7483 207.227C68.9614 209.3 69.8142 211.183 70.2139 211.865ZM271.335 126.778L316.635 129.234C311.617 155.699 300.594 208.302 296.65 206.993C291.72 205.356 287.457 200.99 274 199.899C263.235 199.026 255.569 198.353 253.082 198.125C251.306 199.535 248.419 200.172 251.083 191.441C253.748 182.71 264.096 147.787 268.937 131.417L271.335 126.778Z" stroke="white"/>
</svg>
